<svg width="32" height="32" viewBox="0 0 32 32" fill="none" xmlns="http://www.w3.org/2000/svg">
<path d="M15.9998 2.66699C15.8245 2.66736 15.651 2.70228 15.4893 2.76975C15.3275 2.83723 15.1807 2.93593 15.0571 3.06022L8.21333 9.51335C8.20805 9.51761 8.20284 9.52195 8.1977 9.52637L8.1951 9.52897C8.07007 9.65398 7.99981 9.82352 7.99978 10.0003C7.99978 10.1771 8.07002 10.3467 8.19505 10.4717C8.32007 10.5968 8.48964 10.667 8.66645 10.667H13.3331V21.3337C13.3331 22.0697 13.9305 22.667 14.6665 22.667H15.9998H17.3331C18.0691 22.667 18.6665 22.0697 18.6665 21.3337V10.667H23.3331C23.5099 10.667 23.6795 10.5968 23.8045 10.4717C23.9295 10.3467 23.9998 10.1771 23.9998 10.0003C23.9998 9.82352 23.9295 9.65398 23.8045 9.52897L23.7628 9.48991L16.9555 3.07064C16.9411 3.05641 16.9263 3.04252 16.9112 3.02897C16.6644 2.7969 16.3386 2.66748 15.9998 2.66699ZM3.99978 26.667C3.8231 26.6645 3.64768 26.6971 3.48373 26.763C3.31977 26.8289 3.17054 26.9267 3.04471 27.0508C2.91889 27.1748 2.81897 27.3227 2.75078 27.4857C2.68258 27.6487 2.64746 27.8236 2.64746 28.0003C2.64746 28.177 2.68258 28.352 2.75078 28.515C2.81897 28.678 2.91889 28.8258 3.04471 28.9499C3.17054 29.0739 3.31977 29.1717 3.48373 29.2376C3.64768 29.3035 3.8231 29.3362 3.99978 29.3337H27.9998C28.1765 29.3362 28.3519 29.3035 28.5158 29.2376C28.6798 29.1717 28.829 29.0739 28.9549 28.9499C29.0807 28.8258 29.1806 28.678 29.2488 28.515C29.317 28.352 29.3521 28.177 29.3521 28.0003C29.3521 27.8236 29.317 27.6487 29.2488 27.4857C29.1806 27.3227 29.0807 27.1748 28.9549 27.0508C28.829 26.9267 28.6798 26.8289 28.5158 26.763C28.3519 26.6971 28.1765 26.6645 27.9998 26.667H3.99978Z" fill="#858998"/>
</svg>
