<svg width="24" height="24" viewBox="0 0 24 24" fill="none" xmlns="http://www.w3.org/2000/svg">
<path d="M16.9395 2C15.7059 2 14.7531 2.28507 14.0215 2.74805C13.4064 3.13727 12.9985 3.60343 12.5684 4.04688C11.5709 4.09214 10.522 4.27857 9.63477 4.97266C8.79611 5.62876 8.32227 6.76971 8.15039 8.16406C7.08184 8.33768 6.08742 8.73668 5.37695 9.51367C4.59161 10.3726 4.19585 11.5755 4.08984 12.9258C3.80387 13.056 3.66936 13.0383 3.30273 13.3945C2.62525 14.0529 2 15.2123 2 16.8867C2 18.059 2.3316 19.4223 3.44922 20.3477C4.10007 20.9622 5.0596 21.0982 5.87891 20.8984C6.71706 20.6941 7.53598 20.2391 8.42383 19.627C10.1995 18.4027 12.2304 16.5033 14.4102 14.3613L14.4141 14.3594L14.418 14.3555C16.1634 12.6066 17.7531 10.996 18.9434 9.50195C20.1337 8.00794 21 6.63483 21 5.13086C21 4.07063 20.3212 3.23484 19.5488 2.74219C18.7765 2.24953 17.8585 2 16.9395 2ZM16.9395 4C17.4654 4 18.0782 4.17684 18.4746 4.42969C18.871 4.68253 19 4.91309 19 5.13086C19 5.75689 18.4624 6.89591 17.3789 8.25586C16.2955 9.61581 14.7415 11.2003 13.002 12.9434C10.8502 15.0575 8.8454 16.9061 7.28711 17.9805C6.50683 18.5184 5.83317 18.8505 5.4043 18.9551C4.97542 19.0596 4.9268 19.0208 4.8125 18.9062L4.77344 18.8672L4.73047 18.832C4.18568 18.3956 4 17.7424 4 16.8867C4 15.8627 4.26757 15.3356 4.54492 15.0039C5.5947 15.0262 6.94531 15.832 6.94531 15.832L8.05469 14.168C8.05469 14.168 7.21292 13.5656 6.01953 13.2266C6.06954 12.1552 6.38624 11.3743 6.85352 10.8633C7.32269 10.3502 7.95955 10.0608 8.79688 10.0176C10.3136 10.1075 11.4453 10.832 11.4453 10.832L12.5547 9.16797C12.5547 9.16797 11.5583 8.49596 10.0586 8.17188C10.1785 7.30266 10.4864 6.84517 10.8652 6.54883C11.3508 6.16894 12.1157 6 13 6C13.8333 6 14.422 6.20416 14.8027 6.39453C15.1835 6.5849 15.293 6.70703 15.293 6.70703L16.707 5.29297C16.707 5.29297 16.3165 4.9151 15.6973 4.60547C15.5453 4.5295 15.3741 4.45491 15.1875 4.38477C15.5864 4.1515 16.0556 4 16.9395 4Z" fill="#000"/>
</svg>
