<svg width="40" height="40" viewBox="0 0 40 40" fill="none" xmlns="http://www.w3.org/2000/svg">
<path d="M24.9967 4.99609L14.9967 5.00586L11.94 8.33268H6.66659C4.83325 8.33268 3.33325 9.83268 3.33325 11.666V31.666C3.33325 33.4993 4.83325 34.9993 6.66659 34.9993H33.3333C35.1666 34.9993 36.6666 33.4993 36.6666 31.666V11.666C36.6666 9.83268 35.1666 8.33268 33.3333 8.33268H28.0728L24.9967 4.99609ZM23.5351 8.32943L26.6112 11.666H33.3333V31.666H6.66659V11.666H13.4049L16.4648 8.33594L23.5351 8.32943ZM18.3333 14.9993V19.9993H13.3333V23.3327H18.3333V28.3327H21.6666V23.3327H26.6666V19.9993H21.6666V14.9993H18.3333Z" fill="#007332"/>
</svg>
