<svg width="24" height="24" viewBox="0 0 24 24" fill="none" xmlns="http://www.w3.org/2000/svg">
<path d="M14.9471 2.00408C14.7786 1.99808 14.6083 2.03265 14.4588 2.10565L11.9998 3.30877L9.53886 2.10565C9.05686 1.87065 8.47845 2.05657 8.22245 2.52557L6.89042 4.96893L4.19316 5.44158C3.66716 5.53358 3.3068 6.02487 3.3748 6.55487L3.73222 9.31463L1.82792 11.2814C1.45592 11.6654 1.45311 12.2752 1.82011 12.6642L3.73222 14.6857L3.3494 17.3967C3.2744 17.9267 3.62909 18.4207 4.15409 18.5197L6.89042 19.0314L8.17362 21.4494C8.42362 21.9224 8.99817 22.1149 9.48417 21.8849L11.9978 20.6916H11.9998L14.4588 21.8947C14.5998 21.9637 14.7493 21.9963 14.8963 21.9963C15.2523 21.9963 15.5952 21.8077 15.7752 21.4767L17.1072 19.0334L19.8045 18.5588C20.3305 18.4668 20.6908 17.9755 20.6228 17.4455L20.2674 14.6877L22.1697 12.7189C22.5417 12.3349 22.5445 11.7271 22.1775 11.3381L20.2674 9.31463L20.6502 6.60369C20.7252 6.07369 20.3685 5.57965 19.8435 5.48065L17.1092 4.96893L15.826 2.55096C15.74 2.38896 15.5826 2.2348 15.4256 2.1408C15.2821 2.0558 15.1156 2.01008 14.9471 2.00408ZM14.4959 4.31073L15.5701 6.33807C15.7151 6.61107 15.977 6.80069 16.281 6.85369L18.535 7.26971L18.2185 9.51971C18.1755 9.82471 18.2731 10.1327 18.4881 10.3537L20.0662 12.0158L18.8279 13.2971L18.4881 13.6486C18.2741 13.8696 18.1755 14.1776 18.2185 14.4826L18.5174 16.7541L16.281 17.1467C15.977 17.2007 15.7171 17.3903 15.5721 17.6623L14.4783 19.6799L12.4373 18.6818C12.2993 18.6148 12.1498 18.5803 11.9998 18.5803C11.8498 18.5803 11.6993 18.6138 11.5603 18.6818L9.49198 19.6701L8.42753 17.6623C8.28253 17.3893 8.02255 17.1997 7.71855 17.1467L5.46464 16.7306L5.78105 14.4846C5.82505 14.1786 5.72556 13.8697 5.50956 13.6467L3.93144 11.9865L5.50956 10.3556C5.72456 10.1326 5.82505 9.82376 5.78105 9.51776L5.48026 7.24627L7.71855 6.85369C8.02155 6.80069 8.28253 6.61107 8.42753 6.33807L9.51933 4.32049L11.5603 5.31854C11.8373 5.45354 12.1603 5.45354 12.4373 5.31854L14.4959 4.31073ZM14.4021 7.55096L8.39823 15.549L9.59745 16.4494L15.6014 8.45135L14.4021 7.55096ZM9.4998 8.00018C8.6718 8.00018 7.9998 8.67218 7.9998 9.50018C7.9998 10.3282 8.6718 11.0002 9.4998 11.0002C10.3278 11.0002 10.9998 10.3282 10.9998 9.50018C10.9998 8.67218 10.3278 8.00018 9.4998 8.00018ZM14.4998 13.0002C13.6718 13.0002 12.9998 13.6722 12.9998 14.5002C12.9998 15.3282 13.6718 16.0002 14.4998 16.0002C15.3278 16.0002 15.9998 15.3282 15.9998 14.5002C15.9998 13.6722 15.3278 13.0002 14.4998 13.0002Z" fill="#000"/>
</svg>
