<svg width="16" height="16" viewBox="0 0 16 16" fill="none" xmlns="http://www.w3.org/2000/svg">
<path d="M10.9357 6.00019H9.33366V4.66685C9.33366 3.97885 9.38966 3.54552 10.3757 3.54552H10.9543C11.3223 3.54552 11.621 3.24685 11.621 2.87885V2.04285C11.621 1.69419 11.3537 1.39619 11.0057 1.37285C10.603 1.34552 10.1997 1.33285 9.79566 1.33352C7.98699 1.33352 6.66699 2.43819 6.66699 4.46619V6.00019H5.33366C4.96566 6.00019 4.66699 6.29885 4.66699 6.66685V8.00019C4.66699 8.36819 4.96566 8.66685 5.33366 8.66685L6.66699 8.66619V14.0002C6.66699 14.3682 6.96566 14.6669 7.33366 14.6669H8.66699C9.03499 14.6669 9.33366 14.3682 9.33366 14.0002V8.66485L10.783 8.66419C11.1217 8.66419 11.4063 8.41019 11.445 8.07352L11.5977 6.74285C11.6437 6.34752 11.3343 6.00019 10.9357 6.00019Z" fill="#000"/>
</svg>
