<svg width="24" height="24" viewBox="0 0 24 24" fill="none" xmlns="http://www.w3.org/2000/svg">
<path d="M1 6H23V18H1V6Z" fill="#3F9C35"/>
<path d="M1 6H23V14H1V6Z" fill="#ED2939"/>
<path d="M1 6H23V10H1V6Z" fill="#00B9E4"/>
<path d="M11.9125 13.8002C12.9687 13.8002 13.825 12.9943 13.825 12.0002C13.825 11.0061 12.9687 10.2002 11.9125 10.2002C10.8563 10.2002 10 11.0061 10 12.0002C10 12.9943 10.8563 13.8002 11.9125 13.8002Z" fill="#EEEEEE"/>
<path d="M12.3379 13.5C13.2181 13.5 13.9316 12.8284 13.9316 12C13.9316 11.1716 13.2181 10.5 12.3379 10.5C11.4577 10.5 10.7441 11.1716 10.7441 12C10.7441 12.8284 11.4577 13.5 12.3379 13.5Z" fill="#ED2939"/>
<path d="M14.0381 11L14.2426 11.5375L14.7898 11.2925L14.5295 11.81L15.1006 12L14.5295 12.1925L14.7898 12.7075L14.2426 12.4625L14.0381 13L13.8336 12.4625L13.2864 12.7075L13.5467 12.1925L12.9756 12L13.5467 11.8075L13.2864 11.2925L13.8336 11.5375L14.0381 11Z" fill="#EEEEEE"/>
</svg>
