<svg width="25" height="24" viewBox="0 0 25 24" fill="none" xmlns="http://www.w3.org/2000/svg">
<path d="M24.0034 0H0V24H24.0034V0Z" fill="#FFCB0A"/>
<path d="M17.3665 5.41307L17.8056 5.24212L17.2927 3.97508L14.6111 4.92369L14.9497 5.75497H14.9262C14.9262 5.75497 14.9497 5.77843 14.9497 5.80525L15.0469 6.07341C15.657 7.61195 18.0469 14.6075 12.1441 15.0734H11.8257C5.5307 14.5874 8.67819 6.58626 8.99662 5.82871L9.43573 4.80302L6.77763 3.80078L6.23796 5.06782L6.70053 5.23877C3.4793 10.8231 3.87148 13.508 3.87148 13.508C4.45808 19.7293 11.0916 20.1684 11.7754 20.1918H11.7989C11.8223 20.2187 11.8223 20.2187 11.8223 20.2187V20.1918H12.1408V20.2187C12.1408 20.2187 19.4815 20.0712 20.1184 13.508C20.1251 13.5114 20.4905 10.8768 17.3665 5.41307Z" fill="black"/>
<path d="M7.31727 9.19396C7.31727 9.48558 7.04911 9.73027 6.73068 9.73027C6.41224 9.73027 6.1709 9.48558 6.1709 9.19396C6.1709 8.89899 6.41559 8.6543 6.73068 8.6543C7.04911 8.65765 7.31727 8.90234 7.31727 9.19396Z" fill="#FFCB0A"/>
<path d="M6.26788 13.0266C6.26788 13.3216 6.02319 13.5629 5.70476 13.5629C5.38632 13.5629 5.11816 13.3216 5.11816 13.0266C5.11816 12.7082 5.38632 12.4668 5.70476 12.4668C6.02654 12.4635 6.26788 12.7082 6.26788 13.0266Z" fill="#FFCB0A"/>
<path d="M7.63563 16.756C7.63563 17.0477 7.36747 17.2924 7.04903 17.2924C6.7306 17.2924 6.48926 17.0477 6.48926 16.756C6.48926 16.4644 6.7306 16.2197 7.04903 16.2197C7.36747 16.2197 7.63563 16.4644 7.63563 16.756Z" fill="#FFCB0A"/>
<path d="M16.8066 9.19396C16.8066 9.48558 17.0748 9.73027 17.3932 9.73027C17.7318 9.73027 18.0033 9.48558 18.0033 9.19396C18.0033 8.89899 17.7351 8.6543 17.3932 8.6543C17.0748 8.65765 16.8066 8.90234 16.8066 9.19396Z" fill="#FFCB0A"/>
<path d="M17.6611 13.0266C17.6611 13.3216 17.9293 13.5629 18.2712 13.5629C18.5896 13.5629 18.8544 13.3216 18.8544 13.0266C18.8544 12.7082 18.5863 12.4668 18.2712 12.4668C17.9259 12.4635 17.6611 12.7082 17.6611 13.0266Z" fill="#FFCB0A"/>
<path d="M16.4648 16.756C16.4648 17.0477 16.733 17.2924 17.0749 17.2924C17.3933 17.2924 17.6615 17.0477 17.6615 16.756C17.6615 16.4644 17.3933 16.2197 17.0749 16.2197C16.733 16.2197 16.4648 16.4644 16.4648 16.756Z" fill="#FFCB0A"/>
</svg>
