<svg width="23" height="8" viewBox="0 0 23 8" fill="none" xmlns="http://www.w3.org/2000/svg">
<path d="M19.568 0.490346C19.2932 0.442768 18.9996 0.643659 18.9996 0.966909V3.00011H1.99959C1.86708 2.99824 1.73552 3.02272 1.61255 3.07213C1.48958 3.12155 1.37766 3.19491 1.28329 3.28795C1.18892 3.381 1.11399 3.49187 1.06284 3.61413C1.01169 3.73638 0.985352 3.86759 0.985352 4.00011C0.985352 4.13264 1.01169 4.26384 1.06284 4.3861C1.11399 4.50836 1.18892 4.61923 1.28329 4.71227C1.37766 4.80532 1.48958 4.87868 1.61255 4.92809C1.73552 4.97751 1.86708 5.00199 1.99959 5.00011H18.9996V7.03332C18.9996 7.46432 19.5198 7.68011 19.8238 7.37511L22.857 4.34191C23.046 4.15291 23.046 3.84731 22.857 3.65831L19.8238 0.625112C19.7478 0.549112 19.6595 0.506206 19.568 0.490346Z" fill="#000"/>
</svg>
