<svg width="14" height="13" viewBox="0 0 14 13" fill="none" xmlns="http://www.w3.org/2000/svg">
<path fill-rule="evenodd" clip-rule="evenodd" d="M1.69504 0.0175781C0.670278 0.0175781 0 0.670513 0 1.52914C0 2.36906 0.650886 3.04181 1.65528 3.04181H1.67529C2.7199 3.04181 3.36955 2.36919 3.36955 1.52914C3.34987 0.670513 2.7199 0.0175781 1.69504 0.0175781ZM13.9713 7.96871V12.9862H10.9768V8.30475C10.9768 7.12872 10.5437 6.32613 9.45979 6.32613C8.63237 6.32613 8.13996 6.86702 7.92334 7.39024C7.84434 7.57729 7.824 7.83763 7.824 8.09946V12.9862H4.82849C4.82849 12.9862 4.86883 5.05734 4.82849 4.23584H7.82371V5.47618C7.82084 5.48056 7.81757 5.4851 7.81431 5.48962L7.81431 5.48962C7.81067 5.49468 7.80704 5.4997 7.80403 5.50445H7.82371V5.47618C8.22166 4.8808 8.93234 4.03027 10.5231 4.03027C12.4939 4.03024 13.9713 5.28092 13.9713 7.96871ZM3.17235 12.9862H0.177979V4.23584H3.17235V12.9862Z" fill="#000"/>
</svg>
