<svg width="32" height="32" viewBox="0 0 32 32" fill="none" xmlns="http://www.w3.org/2000/svg">
<path d="M3.66699 6.6665C3.11471 6.6665 2.66699 7.11422 2.66699 7.6665V8.33317C2.66699 8.88545 3.11471 9.33317 3.66699 9.33317H28.3337C28.8859 9.33317 29.3337 8.88546 29.3337 8.33317V7.6665C29.3337 7.11422 28.8859 6.6665 28.3337 6.6665H3.66699ZM3.66699 14.6665C3.11471 14.6665 2.66699 15.1142 2.66699 15.6665V16.3332C2.66699 16.8855 3.11471 17.3332 3.66699 17.3332H28.3337C28.8859 17.3332 29.3337 16.8855 29.3337 16.3332V15.6665C29.3337 15.1142 28.8859 14.6665 28.3337 14.6665H3.66699ZM3.66699 22.6665C3.11471 22.6665 2.66699 23.1142 2.66699 23.6665V24.3332C2.66699 24.8855 3.11471 25.3332 3.66699 25.3332H28.3337C28.8859 25.3332 29.3337 24.8855 29.3337 24.3332V23.6665C29.3337 23.1142 28.8859 22.6665 28.3337 22.6665H3.66699Z" fill="#000"/>
</svg>
