<svg width="24" height="24" viewBox="0 0 24 24" fill="none" xmlns="http://www.w3.org/2000/svg">
<path d="M12 3C9.80271 3 8 4.80271 8 7C8 9.19729 9.80271 11 12 11C14.1973 11 16 9.19729 16 7C16 4.80271 14.1973 3 12 3ZM12 5C13.1164 5 14 5.88359 14 7C14 8.11641 13.1164 9 12 9C10.8836 9 10 8.11641 10 7C10 5.88359 10.8836 5 12 5ZM12 14C8.859 14 3 15.545 3 18.5V21H13.1719L15.1719 19H5V18.5C5 17.631 8.708 16 12 16C13.801 16 15.7227 16.4892 17.0977 17.0742L18.5977 15.5742C16.6167 14.5362 13.844 14 12 14ZM22.207 15C22.0792 15 21.951 15.049 21.8535 15.1465L20.8535 16.1465L22.8535 18.1465L23.8535 17.1465C24.0485 16.9515 24.0485 16.6345 23.8535 16.4395L22.5605 15.1465C22.4625 15.049 22.3349 15 22.207 15ZM20.1465 16.8535L15 22V24H17L22.1465 18.8535L20.1465 16.8535Z" fill="#2675D2"/>
</svg>
