<svg width="24" height="24" viewBox="0 0 24 24" fill="none" xmlns="http://www.w3.org/2000/svg">
<path d="M4.43205 8.49035C4.70683 8.44277 5.00041 8.64366 5.00041 8.96691V11.0001H22.0004C22.1329 10.9982 22.2645 11.0227 22.3874 11.0721C22.5104 11.1215 22.6223 11.1949 22.7167 11.288C22.8111 11.381 22.886 11.4919 22.9372 11.6141C22.9883 11.7364 23.0146 11.8676 23.0146 12.0001C23.0146 12.1326 22.9883 12.2638 22.9372 12.3861C22.886 12.5084 22.8111 12.6192 22.7167 12.7123C22.6223 12.8053 22.5104 12.8787 22.3874 12.9281C22.2645 12.9775 22.1329 13.002 22.0004 13.0001H5.00041V15.0333C5.00041 15.4643 4.48019 15.6801 4.17619 15.3751L1.14298 12.3419C0.953985 12.1529 0.953985 11.8473 1.14298 11.6583L4.17619 8.62511C4.25219 8.54911 4.34045 8.50621 4.43205 8.49035Z" fill="#000"/>
</svg>
