<svg width="24" height="24" viewBox="0 0 24 24" fill="none" xmlns="http://www.w3.org/2000/svg">
<g opacity="0.4">
<path d="M20.1851 20.1851C20.6351 19.735 20.6351 19.0053 20.1851 18.5552L16.3391 14.7092C17.2253 13.492 17.7541 11.9982 17.7541 10.377C17.7541 6.30261 14.4515 3 10.377 3C6.30261 3 3 6.30261 3 10.377C3 14.4515 6.30261 17.7541 10.377 17.7541C11.9982 17.7541 13.492 17.2253 14.7092 16.3391L18.5552 20.1851C19.0053 20.6351 19.735 20.6351 20.1851 20.1851ZM10.377 15.4488C7.58069 15.4488 5.30533 13.1734 5.30533 10.377C5.30533 7.58069 7.58069 5.30533 10.377 5.30533C13.1734 5.30533 15.4488 7.58069 15.4488 10.377C15.4488 13.1734 13.1734 15.4488 10.377 15.4488Z" fill="#000000"/>
</g>
</svg>
