<svg width="24" height="24" viewBox="0 0 24 24" fill="none" xmlns="http://www.w3.org/2000/svg">
<path d="M5 3C4.44772 3 4 3.44772 4 4V7.0293L2.10239 12.7295C2.03457 12.9333 2 13.1466 2 13.3613V14C2 14.5523 2.44772 15 3 15V20C3 20.5523 3.44772 21 4 21H12C12.5523 21 13 20.5523 13 20V15H19V20C19 20.5523 19.4477 21 20 21C20.5523 21 21 20.5523 21 20V15C21.5523 15 22 14.5523 22 14V13.3613C22 13.1466 21.9654 12.9333 21.8976 12.7295L20 7.0293V4C20 3.44772 19.5523 3 19 3H5ZM6 5H18V7H6V5ZM5.45117 9H18.5488L19.8809 13H13H4.12109L5.45117 9ZM5 15H11V19H5V15Z" fill="#000"/>
</svg>
