<svg width="48" height="48" viewBox="0 0 48 48" fill="none" xmlns="http://www.w3.org/2000/svg">
<path d="M16 10C12.686 10 10 12.686 10 16C10 19.314 12.686 22 16 22C19.314 22 22 19.314 22 16C22 12.686 19.314 10 16 10ZM32 10C28.686 10 26 12.686 26 16C26 19.314 28.686 22 32 22C35.314 22 38 19.314 38 16C38 12.686 35.314 10 32 10ZM16 14C17.102 14 18 14.898 18 16C18 17.102 17.102 18 16 18C14.898 18 14 17.102 14 16C14 14.898 14.898 14 16 14ZM32 14C33.102 14 34 14.898 34 16C34 17.102 33.102 18 32 18C30.898 18 30 17.102 30 16C30 14.898 30.898 14 32 14ZM7.52734 18.0039C6.65106 18.0376 4.74441 18.2634 3.50391 19.5039C1.84991 21.1579 2.00391 23.9961 2.00391 23.9961C2.00391 23.9961 4.84209 24.1501 6.49609 22.4961C8.15009 20.8421 7.99609 18.0039 7.99609 18.0039C7.99609 18.0039 7.81944 17.9927 7.52734 18.0039ZM16 26C10 26 2 28.928 2 33V38H28.1562H30H46V33C46 28.928 38 26 32 26C29.4319 26 26.5234 26.5659 24.0078 27.5C21.4876 26.5635 18.5734 26 16 26ZM16 30C20.72 30 25.24 32.0512 26 33.1992V34H6V33.1992C6.76 32.0512 11.28 30 16 30ZM32 30C36.72 30 41.24 32.0512 42 33.1992V34H30V33C30 32.0365 29.5407 31.1399 28.7773 30.3281C29.8166 30.1386 30.8895 30 32 30Z" fill="white"/>
</svg>
