<svg width="16" height="16" viewBox="0 0 16 16" fill="none" xmlns="http://www.w3.org/2000/svg">
<path d="M13.598 4.07521C12.1576 4.07521 10.9858 2.87967 10.9858 1.41016C10.9858 1.18361 10.8058 1 10.5837 1H8.43061C8.20865 1 8.02858 1.18361 8.02858 1.41016V10.4163C8.02858 11.2802 7.33959 11.983 6.49283 11.983C5.64607 11.983 4.95718 11.2802 4.95718 10.4163C4.95718 9.55229 5.64607 8.84947 6.49283 8.84947C6.71488 8.84947 6.89485 8.66586 6.89485 8.43932V6.24263C6.89485 6.01619 6.71488 5.83247 6.49283 5.83247C4.01546 5.83247 2 7.88881 2 10.4163C2 12.9438 4.01546 15 6.49283 15C8.9702 15 10.9858 12.9438 10.9858 10.4163V6.42976C11.7858 6.86502 12.6763 7.09221 13.598 7.09221C13.82 7.09221 14 6.9086 14 6.68205V4.48537C14 4.25893 13.82 4.07521 13.598 4.07521Z" fill="#000"/>
</svg>
