<svg width="20" height="20" viewBox="0 0 20 20" fill="none" xmlns="http://www.w3.org/2000/svg">
<path d="M8.33325 1.66663L7.49992 2.49996H4.16659C3.66659 2.49996 3.33325 2.83329 3.33325 3.33329C3.33325 3.83329 3.66659 4.16663 4.16659 4.16663H5.83325H14.1666H15.8333C16.3333 4.16663 16.6666 3.83329 16.6666 3.33329C16.6666 2.83329 16.3333 2.49996 15.8333 2.49996H12.4999L11.6666 1.66663H8.33325ZM4.16659 5.83329V16.6666C4.16659 17.5833 4.91659 18.3333 5.83325 18.3333H14.1666C15.0833 18.3333 15.8333 17.5833 15.8333 16.6666V5.83329H4.16659ZM7.49992 7.49996C7.99992 7.49996 8.33325 7.83329 8.33325 8.33329V15.8333C8.33325 16.3333 7.99992 16.6666 7.49992 16.6666C6.99992 16.6666 6.66658 16.3333 6.66658 15.8333V8.33329C6.66658 7.83329 6.99992 7.49996 7.49992 7.49996ZM12.4999 7.49996C12.9999 7.49996 13.3333 7.83329 13.3333 8.33329V15.8333C13.3333 16.3333 12.9999 16.6666 12.4999 16.6666C11.9999 16.6666 11.6666 16.3333 11.6666 15.8333V8.33329C11.6666 7.83329 11.9999 7.49996 12.4999 7.49996Z" fill="#858998"/>
</svg>
