<svg width="32" height="32" viewBox="0 0 32 32" fill="none" xmlns="http://www.w3.org/2000/svg">
<path d="M13.333 2.66699L11.9997 4.00033H6.66634C5.86634 4.00033 5.33301 4.53366 5.33301 5.33366C5.33301 6.13366 5.86634 6.66699 6.66634 6.66699H9.33301H22.6663H25.333C26.133 6.66699 26.6663 6.13366 26.6663 5.33366C26.6663 4.53366 26.133 4.00033 25.333 4.00033H19.9997L18.6663 2.66699H13.333ZM6.66634 9.33366V26.667C6.66634 28.1337 7.86634 29.3337 9.33301 29.3337H22.6663C24.133 29.3337 25.333 28.1337 25.333 26.667V9.33366H6.66634ZM11.9997 12.0003C12.7997 12.0003 13.333 12.5337 13.333 13.3337V25.3337C13.333 26.1337 12.7997 26.667 11.9997 26.667C11.1997 26.667 10.6663 26.1337 10.6663 25.3337V13.3337C10.6663 12.5337 11.1997 12.0003 11.9997 12.0003ZM19.9997 12.0003C20.7997 12.0003 21.333 12.5337 21.333 13.3337V25.3337C21.333 26.1337 20.7997 26.667 19.9997 26.667C19.1997 26.667 18.6663 26.1337 18.6663 25.3337V13.3337C18.6663 12.5337 19.1997 12.0003 19.9997 12.0003Z" fill="white"/>
</svg>
