<svg width="16" height="16" viewBox="0 0 16 16" fill="none" xmlns="http://www.w3.org/2000/svg">
<path d="M14.3877 4.12384C14.2343 3.5505 13.7823 3.0985 13.209 2.94517C12.169 2.6665 7.99967 2.6665 7.99967 2.6665C7.99967 2.6665 3.83034 2.6665 2.79034 2.94517C2.21701 3.0985 1.76501 3.5505 1.61167 4.12384C1.33301 5.16384 1.33301 7.99984 1.33301 7.99984C1.33301 7.99984 1.33301 10.8358 1.61167 11.8758C1.76501 12.4492 2.21701 12.9012 2.79034 13.0545C3.83034 13.3332 7.99967 13.3332 7.99967 13.3332C7.99967 13.3332 12.169 13.3332 13.209 13.0545C13.783 12.9012 14.2343 12.4492 14.3877 11.8758C14.6663 10.8358 14.6663 7.99984 14.6663 7.99984C14.6663 7.99984 14.6663 5.16384 14.3877 4.12384ZM6.66634 9.73184V6.26784C6.66634 6.01117 6.94434 5.85117 7.16634 5.97917L10.1663 7.71117C10.3883 7.83917 10.3883 8.1605 10.1663 8.2885L7.16634 10.0205C6.94434 10.1492 6.66634 9.9885 6.66634 9.73184Z" fill="#000"/>
</svg>
