<svg width="156" height="52" viewBox="0 0 156 52" fill="none" xmlns="http://www.w3.org/2000/svg">
<path fill-rule="evenodd" clip-rule="evenodd" d="M145.939 0H9.74002C1.61154 0 0.257812 2.81412 0.257812 9.50682V42.5528C0.257812 49.2409 3.04175 52 9.73085 52H145.94C152.634 52 155.516 49.2364 155.516 42.5436V9.50682C155.516 2.81412 152.632 0 145.939 0Z" fill="black"/>
<path fill-rule="evenodd" clip-rule="evenodd" d="M40.7371 32.3681C39.9554 34.101 39.5806 34.8748 38.5741 36.4058C37.1684 38.5439 35.1891 41.2066 32.7355 41.2295C30.5558 41.2494 29.996 39.8103 27.0376 39.8271C24.0793 39.8439 23.4614 41.254 21.2801 41.2357C18.8266 41.2127 16.9512 38.8085 15.5455 36.6704C11.6174 30.6904 11.2059 23.6734 13.6289 19.9432C15.3512 17.2927 18.0663 15.7404 20.6208 15.7404C23.2212 15.7404 24.8564 17.1658 27.0055 17.1658C29.0904 17.1658 30.3615 15.7373 33.3688 15.7373C35.6418 15.7373 38.0495 16.9746 39.7642 19.1142C34.1443 22.1945 35.0575 30.2208 40.7371 32.3681Z" fill="white"/>
<path fill-rule="evenodd" clip-rule="evenodd" d="M31.0882 13.3483C32.1803 11.9474 33.0094 9.96677 32.7096 7.94336C30.926 8.06571 28.8381 9.20054 27.619 10.681C26.513 12.0238 25.5998 14.0167 25.9562 15.9529C27.9035 16.0141 29.918 14.8502 31.0882 13.3483Z" fill="white"/>
<path fill-rule="evenodd" clip-rule="evenodd" d="M141.653 35.1762H133.754C133.784 36.2468 134.167 37.1858 134.901 37.8022C135.565 38.3558 136.426 38.6082 137.483 38.6082C138.654 38.6082 139.716 38.4094 140.677 38.0301L141.091 39.8547C139.975 40.3456 138.647 40.5811 137.116 40.5811C135.283 40.5811 133.841 40.0428 132.793 38.963C131.745 37.8832 131.217 36.4318 131.217 34.6134C131.217 32.8224 131.707 31.3389 132.68 30.1475C133.708 28.8827 135.089 28.2495 136.825 28.2495C138.537 28.2495 139.826 28.8811 140.701 30.1475C141.397 31.1584 141.749 32.4523 141.749 33.9312C141.749 34.3977 141.715 34.8703 141.653 35.1762ZM130.43 30.8311C130.277 30.7837 129.871 30.7638 129.581 30.7638C128.655 30.7638 127.932 31.1125 127.427 31.8099C126.986 32.4294 126.759 33.1971 126.759 34.1469V40.2232H124.158V32.2412C124.158 30.8847 124.102 29.6703 124.056 28.4468H126.345L126.443 30.8938H126.515C126.791 30.1291 127.227 29.4332 127.831 28.9668C128.415 28.5401 129.073 28.3076 129.755 28.3076C129.997 28.3076 130.275 28.2923 130.428 28.3244V30.8311H130.43ZM120.912 38.8299C119.82 40.029 118.375 40.6301 116.574 40.6301C114.832 40.6301 113.443 40.0535 112.412 38.9003C111.381 37.7502 110.869 36.2896 110.869 34.5384C110.869 32.7046 111.399 31.1997 112.464 30.0312C113.53 28.8567 114.96 28.2801 116.764 28.2801C118.509 28.2801 119.906 28.8505 120.961 30.0098C121.966 31.1248 122.469 32.5747 122.469 34.3442C122.468 36.1672 121.952 37.6554 120.912 38.8299ZM110.085 30.5879H107.332V36.2452C107.332 37.7058 107.785 38.4308 108.81 38.4308C109.281 38.4308 109.636 38.3971 109.948 38.3161L110.007 40.3089C109.486 40.5047 108.798 40.6025 107.953 40.6025C106.919 40.6025 106.072 40.2905 105.489 39.6512C104.898 39.0211 104.58 37.9551 104.58 36.4609V30.5864H102.898V28.4452H104.58V26.3484L107.334 25.5684V28.4468H110.087V30.5879H110.085ZM100.833 39.1649C99.7574 40.1254 98.2675 40.6025 96.357 40.6025C94.5857 40.6025 93.1692 40.2599 92.1 39.5809L92.7119 37.3877C93.8652 38.0668 95.1318 38.4109 96.5084 38.4109C97.5042 38.4109 98.2736 38.1845 98.8274 37.741C99.3765 37.2959 99.6534 36.6995 99.6534 35.9424C99.6534 35.2848 99.4254 34.725 98.9727 34.2662C98.5138 33.8119 97.7643 33.3929 96.7073 32.9998C93.8346 31.9308 92.3952 30.3631 92.3952 28.2999C92.3952 26.9525 92.897 25.8437 93.9142 24.9842C94.9299 24.1247 96.2744 23.6934 97.9493 23.6934C99.4438 23.6934 100.687 23.9549 101.68 24.4718L101.016 26.6176C100.091 26.1159 99.0369 25.8605 97.8637 25.8605C96.9352 25.8605 96.2086 26.0961 95.684 26.5411C95.2465 26.9525 95.0262 27.4481 95.0262 28.0308C95.0262 28.6762 95.2786 29.2145 95.7803 29.6428C96.2209 30.0312 97.0163 30.4503 98.1666 30.9045C99.5845 31.4689 100.622 32.1388 101.29 32.905C101.954 33.6682 102.289 34.6164 102.289 35.7528C102.29 37.1522 101.801 38.2931 100.833 39.1649ZM85.6236 39.0731C84.6431 40.1085 83.4193 40.6285 81.9631 40.6285C80.3953 40.6285 79.3398 40.0688 78.575 38.9431V45.2688H75.9746V32.4064C75.9746 31.1401 75.9257 29.9747 75.8629 28.4452H78.1727L78.3257 30.4335H78.3716C79.2557 29.057 80.5834 28.2984 82.37 28.2984C83.7681 28.2984 84.9337 28.8352 85.8683 29.9425C86.8044 31.0452 87.271 32.4966 87.271 34.2998C87.2694 36.3202 86.7218 37.9001 85.6236 39.0731ZM72.6094 39.0731C71.6304 40.1085 70.4098 40.6285 68.9566 40.6285C67.3842 40.6285 66.3379 40.0688 65.5731 38.9431V45.2688H62.9727V32.4064C62.9727 31.1401 62.9131 29.9747 62.8458 28.4452H65.1616L65.3069 30.4335H65.3528C66.2354 29.057 67.5647 28.2984 69.3543 28.2984C70.7509 28.2984 71.915 28.8352 72.8542 29.9425C73.7857 31.0452 74.2538 32.4966 74.2538 34.2998C74.2553 36.3202 73.7077 37.9001 72.6094 39.0731ZM58.5322 40.2232L56.998 35.4821H51.658L50.1941 40.2232H47.4668L52.7517 23.8585H56.022L61.3375 40.2232H58.5322ZM136.631 30.0741C135.771 30.0741 135.074 30.5145 134.535 31.2242C134.098 31.7916 133.835 32.4232 133.755 33.3409H139.239C139.253 32.4232 139.086 31.8191 138.729 31.2471C138.272 30.5191 137.571 30.0741 136.631 30.0741ZM54.315 26.1527H54.2691C54.1039 26.9174 53.8469 27.9359 53.4859 29.3017L52.1199 33.6468H56.5299L55.1471 29.3017C54.9987 28.8612 54.7188 27.6821 54.315 26.1527ZM81.5165 30.3662C80.8649 30.3662 80.2821 30.5803 79.7513 31.0101C79.2236 31.4459 78.8672 32.0103 78.7035 32.7092C78.6224 33.0365 78.575 33.3026 78.575 33.5152V35.4867C78.575 36.3492 78.8442 37.0788 79.375 37.6722C79.9027 38.2595 80.5941 38.5577 81.4354 38.5577C82.4312 38.5577 83.2052 38.1784 83.7574 37.4122C84.3111 36.6475 84.5895 35.6411 84.5895 34.387C84.5895 33.2369 84.3279 32.2856 83.8094 31.5392C83.2373 30.7638 82.4725 30.3662 81.5165 30.3662ZM116.666 30.2025C115.612 30.2025 114.807 30.6705 114.258 31.6111C113.783 32.385 113.549 33.3317 113.549 34.4497C113.549 35.5402 113.783 36.4685 114.258 37.2455C114.821 38.1845 115.618 38.6525 116.646 38.6525C117.646 38.6525 118.439 38.1784 119.005 37.2164C119.496 36.4303 119.741 35.4867 119.741 34.4054C119.741 33.321 119.505 32.3865 119.037 31.6127C118.477 30.6705 117.691 30.2025 116.666 30.2025ZM68.4978 30.3662C67.8492 30.3662 67.2633 30.5803 66.7326 31.0101C66.2033 31.4459 65.8576 32.0103 65.6939 32.7092C65.6144 33.0365 65.5716 33.3026 65.5716 33.5152V35.4867C65.5716 36.3492 65.8331 37.0788 66.3639 37.6722C66.8916 38.2595 67.58 38.5577 68.4228 38.5577C69.4125 38.5577 70.1895 38.1784 70.7417 37.4122C71.2939 36.6475 71.5677 35.6411 71.5677 34.387C71.5677 33.2369 71.3107 32.2856 70.7907 31.5392C70.2201 30.7638 69.4584 30.3662 68.4978 30.3662Z" fill="white"/>
<path d="M50.9346 17.4108L50.2049 19.8135H48.6064L51.3246 11.3359H53.2994L56.0542 19.8135H54.3931L53.6252 17.4108H50.9346ZM53.3636 16.2408L52.6967 14.1531C52.533 13.6377 52.3954 13.0581 52.2684 12.5686H52.2439C52.1185 13.0596 51.9915 13.6499 51.8416 14.1531L51.1869 16.2408H53.3636Z" fill="white"/>
<path d="M57.8175 13.6885L58.8118 16.7947C58.9877 17.3361 59.1131 17.8255 59.2263 18.3287H59.2646C59.3778 17.8255 59.517 17.3468 59.6791 16.7947L60.6474 13.6885H62.2825L59.9422 19.8138H58.4202L56.1426 13.6885H57.8175Z" fill="white"/>
<path d="M66.5992 19.8133L66.4982 19.1343H66.46C66.0822 19.613 65.4412 19.9525 64.6489 19.9525C63.416 19.9525 62.7246 19.0593 62.7246 18.1279C62.7246 16.5801 64.0952 15.8001 66.3606 15.8139V15.713C66.3606 15.3107 66.1969 14.6439 65.1154 14.6439C64.5112 14.6439 63.8825 14.832 63.468 15.0966L63.1667 14.0902C63.6194 13.8134 64.4118 13.5488 65.3816 13.5488C67.3441 13.5488 67.9101 14.7938 67.9101 16.1274V18.342C67.9101 18.8957 67.9345 19.4371 67.9988 19.8133H66.5992ZM66.3973 16.8187C65.302 16.7942 64.2588 17.0328 64.2588 17.9627C64.2588 18.5668 64.6489 18.8437 65.1399 18.8437C65.7564 18.8437 66.2091 18.4414 66.3483 18.001C66.3866 17.8878 66.3988 17.7624 66.3988 17.6614V16.8187H66.3973Z" fill="white"/>
<path d="M69.543 10.8818H71.1032V19.8121H69.543V10.8818Z" fill="white"/>
<path d="M74.4256 11.9775C74.4256 12.4424 74.086 12.8079 73.5445 12.8079C73.029 12.8079 72.6895 12.4439 72.6895 11.9775C72.6895 11.5003 73.0413 11.1348 73.5568 11.1348C74.0845 11.1348 74.4118 11.4988 74.4256 11.9775ZM72.7766 19.8142V13.6889H74.3369V19.8142H72.7766Z" fill="white"/>
<path d="M75.9473 19.8136C75.9717 19.3991 75.9977 18.7185 75.9977 18.0899V10.8818H77.5457V14.5295H77.5702C77.948 13.9376 78.615 13.5476 79.5327 13.5476C81.0302 13.5476 82.0995 14.7925 82.0872 16.6538C82.0872 18.8547 80.6907 19.9497 79.3063 19.9497C78.514 19.9497 77.8088 19.6484 77.3683 18.8929H77.3438L77.2689 19.8105H75.9473V19.8136ZM77.5442 17.2855C77.5442 17.4109 77.5564 17.5378 77.5824 17.651C77.7461 18.2674 78.2876 18.7323 78.953 18.7323C79.9213 18.7323 80.5132 17.9523 80.5132 16.7196C80.5132 15.6383 79.9977 14.7574 78.9652 14.7574C78.3366 14.7574 77.7706 15.2101 77.5947 15.8891C77.5702 16.0023 77.5442 16.1399 77.5442 16.2914V17.2855Z" fill="white"/>
<path d="M83.3564 10.8818H84.9167V19.8121H83.3564V10.8818Z" fill="white"/>
<path d="M87.6859 17.1842C87.7241 18.2915 88.5914 18.7687 89.5735 18.7687C90.2909 18.7687 90.8064 18.6678 91.2714 18.4919L91.4978 19.5609C90.97 19.7751 90.2404 19.9387 89.3593 19.9387C87.3723 19.9387 86.2021 18.7182 86.2021 16.8447C86.2021 15.1471 87.2331 13.5488 89.1957 13.5488C91.1842 13.5488 91.8373 15.1838 91.8373 16.5297C91.8373 16.8187 91.8129 17.0451 91.7869 17.1842H87.6859ZM90.3781 16.1029C90.3903 15.5371 90.1394 14.6057 89.1069 14.6057C88.1509 14.6057 87.7486 15.4728 87.6859 16.1029H90.3781Z" fill="white"/>
<path d="M101.512 16.6933C101.512 18.9446 99.9271 19.951 98.3669 19.951C96.6307 19.951 95.2969 18.7565 95.2969 16.7942C95.2969 14.7815 96.6185 13.5488 98.4678 13.5488C100.291 13.5488 101.512 14.832 101.512 16.6933ZM96.8938 16.756C96.8938 17.9382 97.472 18.8314 98.4158 18.8314C99.2969 18.8314 99.9133 17.9642 99.9133 16.7315C99.9133 15.7757 99.485 14.6806 98.428 14.6806C97.3343 14.6806 96.8938 15.7374 96.8938 16.756Z" fill="white"/>
<path d="M102.783 15.5106C102.783 14.8056 102.771 14.2152 102.732 13.6861H104.091L104.166 14.6037H104.204C104.469 14.125 105.135 13.5469 106.154 13.5469C107.223 13.5469 108.331 14.2382 108.331 16.1759V19.8113H106.783V16.3518C106.783 15.4709 106.456 14.8041 105.613 14.8041C104.996 14.8041 104.568 15.2445 104.404 15.7095C104.354 15.8471 104.342 16.0368 104.342 16.2126V19.8098H102.781V15.5106H102.783Z" fill="white"/>
<path d="M114.358 11.9385V13.6866H115.83V14.8444H114.358V17.5484C114.358 18.2901 114.56 18.6801 115.151 18.6801C115.415 18.6801 115.616 18.6419 115.755 18.6052L115.779 19.7874C115.553 19.8761 115.151 19.9388 114.66 19.9388C114.094 19.9388 113.615 19.7507 113.326 19.4357C112.998 19.0839 112.847 18.5303 112.847 17.7243V14.8444H111.966V13.6866H112.847V12.3025L114.358 11.9385Z" fill="white"/>
<path d="M117 10.8818H118.56V14.5295H118.585C118.773 14.2404 119.025 14.0018 119.353 13.8244C119.654 13.6485 120.019 13.5476 120.41 13.5476C121.454 13.5476 122.548 14.2389 122.548 16.2011V19.8105H121V16.377C121 15.4838 120.673 14.817 119.818 14.817C119.213 14.817 118.787 15.2193 118.623 15.6842C118.572 15.8096 118.56 15.9732 118.56 16.1491V19.809H117V10.8818Z" fill="white"/>
<path d="M125.29 17.1842C125.329 18.2915 126.196 18.7687 127.178 18.7687C127.895 18.7687 128.411 18.6678 128.876 18.4919L129.102 19.5609C128.575 19.7751 127.845 19.9387 126.964 19.9387C124.977 19.9387 123.807 18.7182 123.807 16.8447C123.807 15.1471 124.838 13.5488 126.8 13.5488C128.789 13.5488 129.442 15.1838 129.442 16.5297C129.442 16.8187 129.417 17.0451 129.391 17.1842H125.29ZM127.983 16.1029C127.995 15.5371 127.744 14.6057 126.711 14.6057C125.755 14.6057 125.353 15.4728 125.29 16.1029H127.983Z" fill="white"/>
</svg>
