<svg width="1440" height="710" viewBox="0 0 1440 710" fill="none" xmlns="http://www.w3.org/2000/svg">
<mask id="mask0" mask-type="alpha" maskUnits="userSpaceOnUse" x="0" y="0" width="1440" height="710">
<rect width="1440" height="710" fill="#73C470"/>
</mask>
<g mask="url(#mask0)">
<path d="M192 355C192 239.572 285.573 146 401 146C516.427 146 610 239.572 610 355C610 470.428 516.428 564 401 564C285.573 564 192 470.428 192 355Z" stroke="white" stroke-width="100"/>
<path opacity="0.2" d="M192 873C192 757.572 285.573 664 401 664C516.427 664 610 757.572 610 873C610 988.428 516.428 1082 401 1082C285.573 1082 192 988.428 192 873Z" stroke="white" stroke-width="100"/>
<path opacity="0.2" d="M192 -163C192 -278.428 285.573 -372 401 -372C516.427 -372 610 -278.428 610 -163C610 -47.5725 516.428 46 401 46C285.573 46 192 -47.5725 192 -163Z" stroke="white" stroke-width="100"/>
</g>
</svg>
