<svg width="93" height="48" viewBox="0 0 93 48" fill="none" xmlns="http://www.w3.org/2000/svg">
<path fill-rule="evenodd" clip-rule="evenodd" d="M85.942 0C90.1496 7.00757 92.5714 15.2198 92.5714 24.0013C92.5714 32.7828 90.1494 40.9952 85.942 48.0026H6.62938C2.4218 40.995 0 32.7828 0 24.0013C0 15.2198 2.42204 7.00757 6.62938 0H85.942Z" fill="#FFDC32"/>
<path fill-rule="evenodd" clip-rule="evenodd" d="M78.6769 0C83.6098 6.7138 86.5276 15.0148 86.5276 24.0013C86.5276 32.988 83.6098 41.2887 78.6769 48.0026H13.8937C8.96077 41.2885 6.04297 32.988 6.04297 24.0013C6.04297 15.0146 8.96077 6.7138 13.8937 0H78.6769Z" fill="#007332"/>
<path fill-rule="evenodd" clip-rule="evenodd" d="M46.8907 35.8646C45.736 35.8646 44.9448 35.291 44.5925 34.4732C43.7977 32.6295 44.4958 28.6896 45.6213 24.5499C47.0858 24.5819 49.41 25.1937 50.5166 26.145C51.6118 27.0862 52.041 28.5519 51.4129 30.9574C50.8697 33.0381 49.3197 35.8648 46.8905 35.8648L46.8907 35.8646ZM45.9466 23.3878C47.2582 18.8268 48.9638 14.2389 49.6628 12.1181C55.7203 13.5066 53.7183 20.8938 48.7593 22.8149C48.0979 23.0709 46.8891 23.3351 45.9464 23.3876L45.9466 23.3878ZM44.0048 12.53C42.3737 16.955 40.3081 22.9244 39.6996 27.4873C39.0247 32.5439 41.3403 37.6094 46.8656 37.6094C51.1608 37.9366 55.3667 34.6553 56.0236 30.833C56.4367 28.4307 55.8301 25.774 51.7698 23.792C51.7542 23.7944 60.5004 20.87 58.6876 15.1347C57.6193 11.7546 53.6556 10.5439 49.7817 10.3887C46.6858 10.265 42.4285 10.8976 39.5394 12.3038C38.2796 12.9166 36.5639 13.8557 36.5412 15.4518C36.522 16.7686 38.2094 18.2198 39.6778 18.2198C39.9064 15.9289 41.7151 13.379 44.0048 12.5297V12.53Z" fill="#FEFEFE"/>
<path fill-rule="evenodd" clip-rule="evenodd" d="M23.9825 35.4514C19.2011 35.4514 21.4367 26.2883 22.0983 23.483C22.8538 20.2802 24.5505 12.5523 28.8407 12.5523C33.4617 12.5523 31.0882 22.3539 30.4438 24.8587C29.6953 27.768 27.9894 35.4514 23.9825 35.4514ZM29.8676 10.647C36.7393 11.5606 37.6173 20.1664 36.1348 25.8678C34.6114 31.726 29.1363 38.799 22.3738 37.253C15.7102 35.7293 15.0766 27.8676 16.5102 22.2892C18.0652 16.2384 23.0333 9.7395 29.8676 10.6468V10.647Z" fill="#FEFEFE"/>
<path fill-rule="evenodd" clip-rule="evenodd" d="M76.694 37.1944C71.9332 38.2294 70.5343 36.0566 69.9294 31.3913C68.878 31.4666 63.6361 31.4119 62.455 31.4885C61.4913 33.8056 61.051 37.1436 61.0161 37.1894C60.7511 37.5341 58.2594 37.5271 57.6124 37.2743C55.8962 36.6042 57.8405 32.5591 58.4339 31.243C56.8207 30.9772 56.1641 29.6534 56.9442 28.6812C57.2382 28.3152 57.3689 28.3768 57.8388 28.4736L59.5992 28.7291C61.8618 23.9395 64.9206 17.8328 67.8193 10.8132L67.9165 10.5762C68.5166 10.5762 69.116 10.5985 69.7163 10.6471C77.3406 11.2669 75.5931 13.9419 74.9686 20.1937C74.7639 22.2458 74.8479 24.3813 74.9018 25.5996C75.0713 29.3977 75.8988 33.4654 76.6943 37.1944H76.694ZM69.5217 16.5165L69.3072 16.938C68.6533 18.0659 67.9619 19.3911 67.2945 20.744C65.6148 24.1501 64.0883 27.7318 63.7019 28.7844C65.5507 28.7279 67.7522 28.4404 69.5414 28.2318C69.2055 24.1306 69.3453 19.3966 69.7525 16.1599C69.6986 16.1719 69.5787 16.4022 69.5217 16.5167V16.5165Z" fill="#FEFEFE"/>
</svg>
