<svg width="246" height="54" viewBox="0 0 246 54" fill="none" xmlns="http://www.w3.org/2000/svg">
<path d="M45.896 14.264C40.496 14.264 35.384 16.928 32.864 21.464C30.776 16.784 26.6 14.264 21.344 14.264C16.52 14.264 12.128 16.424 9.536 20.24V14.84H0.896V53H9.68V32.624C9.68 25.856 13.496 22.256 18.32 22.256C22.64 22.256 25.52 25.208 25.52 31.544V53H34.304V32.624C34.304 25.856 38.12 22.256 42.944 22.256C47.264 22.256 50.144 25.208 50.144 31.544V53H58.928V29.024C58.928 19.592 53.528 14.264 45.896 14.264ZM103.321 45.728C101.233 45.728 100.297 44.792 100.297 42.704V29.384C100.297 19.736 94.5371 14.264 84.0971 14.264C74.0891 14.264 67.6091 19.232 66.8171 27.08H75.8891C76.4651 23.552 79.2731 21.464 83.8811 21.464C88.9211 21.464 91.8011 24.056 91.8011 29.096V30.392H80.8571C71.3531 30.392 65.5211 35 65.5211 41.984C65.5211 48.752 71.0651 53.432 79.1291 53.432C84.8171 53.432 89.6411 51.128 92.1611 47.168C92.8811 50.984 95.8331 53 100.225 53H104.833V45.728H103.321ZM81.1451 46.52C76.8971 46.52 74.3771 44.504 74.3771 41.48C74.3771 38.384 76.9691 36.512 82.0091 36.512H91.8011V37.016C91.8011 42.488 87.2651 46.52 81.1451 46.52ZM130.531 14.84C125.635 14.84 121.315 17.144 119.083 21.392V14.84H110.443V53H119.227V34.712C119.227 26.72 123.115 22.832 130.387 22.832H133.555V14.84H130.531ZM176.55 53L161.214 32.84L175.83 14.84H165.534L154.014 29.096H148.758V0.439999H139.974V53H148.758V36.728H153.654L166.038 53H176.55ZM215.913 32.912C215.913 21.536 207.849 14.264 197.337 14.264C186.177 14.264 177.537 22.328 177.537 34.208C177.537 45.8 185.673 53.576 197.265 53.576C206.265 53.576 213.321 48.896 215.409 41.12H206.913C205.401 44.288 201.873 46.232 197.481 46.232C191.577 46.232 186.969 42.776 186.177 35.936H215.769C215.841 35 215.913 33.992 215.913 32.912ZM197.337 21.536C202.449 21.536 206.193 24.2 207.129 29.672H186.609C188.049 24.416 192.153 21.536 197.337 21.536ZM245.11 14.84H234.67V5.48H225.886V12.032C225.886 14.048 225.094 14.84 223.078 14.84H219.55V22.472H225.886V41.84C225.886 49.184 229.63 53 237.046 53H245.11V45.296H239.638C235.966 45.296 234.67 44 234.67 40.256V22.472H245.11V14.84Z" fill="white"/>
</svg>
