<svg width="1440" height="568" viewBox="0 0 1440 568" fill="none" xmlns="http://www.w3.org/2000/svg">
<path fill-rule="evenodd" clip-rule="evenodd" d="M1546.07 -261.49C1561.26 -253.945 1579.69 -260.134 1587.23 -275.314C1594.77 -290.494 1588.56 -308.916 1573.36 -316.461C1558.16 -324.006 1539.74 -317.817 1532.2 -302.637C1524.66 -287.457 1530.87 -269.035 1546.07 -261.49ZM1526.57 -222.224C1563.48 -203.901 1608.23 -218.932 1626.54 -255.798C1644.84 -292.664 1629.76 -337.403 1592.86 -355.727C1555.95 -374.051 1511.2 -359.019 1492.89 -322.153C1474.59 -285.288 1489.67 -240.548 1526.57 -222.224Z" fill="#E8EDF4"/>
<path fill-rule="evenodd" clip-rule="evenodd" d="M1347.21 139.019C1362.41 146.564 1380.84 140.374 1388.37 125.194C1395.91 110.014 1389.7 91.5922 1374.51 84.0472C1359.31 76.5022 1340.88 82.6915 1333.34 97.8715C1325.81 113.052 1332.02 131.474 1347.21 139.019ZM1327.72 178.284C1364.62 196.608 1409.38 181.577 1427.68 144.711C1445.99 107.845 1430.91 63.1051 1394 44.7816C1357.1 26.458 1312.34 41.4894 1294.04 78.3552C1275.73 115.221 1290.81 159.961 1327.72 178.284Z" fill="#E8EDF4"/>
<path fill-rule="evenodd" clip-rule="evenodd" d="M1413.5 5.51604C1428.69 13.061 1447.12 6.87158 1454.66 -8.30846C1462.2 -23.4885 1455.99 -41.9107 1440.79 -49.4557C1425.59 -57.0007 1407.17 -50.8113 1399.63 -35.6313C1392.09 -20.4513 1398.3 -2.02896 1413.5 5.51604ZM1394 44.7816C1430.91 63.1051 1475.66 48.0737 1493.97 11.2079C1512.27 -25.6579 1497.19 -70.3977 1460.29 -88.7213C1423.38 -107.045 1378.63 -92.0134 1360.32 -55.1476C1342.02 -18.2818 1357.1 26.458 1394 44.7816Z" fill="#E8EDF4"/>
<path fill-rule="evenodd" clip-rule="evenodd" d="M1214.64 406.025C1229.84 413.57 1248.27 407.38 1255.8 392.2C1263.34 377.02 1257.13 358.598 1241.94 351.053C1226.74 343.508 1208.31 349.697 1200.77 364.877C1193.24 380.057 1199.45 398.48 1214.64 406.025ZM1195.15 445.29C1232.05 463.614 1276.81 448.582 1295.11 411.717C1313.42 374.851 1298.34 330.111 1261.43 311.787C1224.53 293.464 1179.77 308.495 1161.47 345.361C1143.16 382.227 1158.24 426.967 1195.15 445.29Z" fill="#E8EDF4"/>
<path fill-rule="evenodd" clip-rule="evenodd" d="M1346.14 -194.342C1361.33 -186.797 1379.76 -192.987 1387.3 -208.167C1394.84 -223.347 1388.63 -241.769 1373.43 -249.314C1358.23 -256.859 1339.81 -250.67 1332.27 -235.49C1324.73 -220.31 1330.94 -201.887 1346.14 -194.342ZM1326.64 -155.077C1363.55 -136.753 1408.3 -151.785 1426.61 -188.65C1444.91 -225.516 1429.83 -270.256 1392.93 -288.58C1356.02 -306.903 1311.27 -291.872 1292.96 -255.006C1274.66 -218.14 1289.74 -173.4 1326.64 -155.077Z" fill="#E8EDF4"/>
<path fill-rule="evenodd" clip-rule="evenodd" d="M1147.28 206.166C1162.48 213.711 1180.91 207.522 1188.44 192.342C1195.98 177.162 1189.77 158.74 1174.58 151.195C1159.38 143.65 1140.95 149.839 1133.41 165.019C1125.88 180.199 1132.09 198.621 1147.28 206.166ZM1127.79 245.432C1164.69 263.755 1209.45 248.724 1227.75 211.858C1246.06 174.992 1230.98 130.253 1194.07 111.929C1157.17 93.6054 1112.41 108.637 1094.11 145.503C1075.8 182.368 1090.88 227.108 1127.79 245.432Z" fill="#E8EDF4"/>
<path fill-rule="evenodd" clip-rule="evenodd" d="M1813.36 -128.779C1828.55 -121.234 1846.98 -127.423 1854.52 -142.603C1862.06 -157.783 1855.85 -176.205 1840.65 -183.75C1825.45 -191.295 1807.03 -185.106 1799.49 -169.926C1791.95 -154.746 1798.16 -136.324 1813.36 -128.779ZM1793.86 -89.5131C1830.77 -71.1895 1875.52 -86.2209 1893.83 -123.087C1912.13 -159.953 1897.05 -204.692 1860.15 -223.016C1823.24 -241.34 1778.49 -226.308 1760.18 -189.442C1741.88 -152.576 1756.96 -107.837 1793.86 -89.5131Z" fill="#E8EDF4"/>
<path fill-rule="evenodd" clip-rule="evenodd" d="M1614.5 271.73C1629.7 279.275 1648.13 273.086 1655.66 257.905C1663.2 242.725 1656.99 224.303 1641.8 216.758C1626.6 209.213 1608.17 215.403 1600.63 230.583C1593.1 245.763 1599.31 264.185 1614.5 271.73ZM1595.01 310.995C1631.91 329.319 1676.67 314.288 1694.97 277.422C1713.28 240.556 1698.2 195.816 1661.29 177.493C1624.39 159.169 1579.63 174.201 1561.33 211.066C1543.02 247.932 1558.1 292.672 1595.01 310.995Z" fill="#E8EDF4"/>
<path fill-rule="evenodd" clip-rule="evenodd" d="M1680.79 138.227C1695.98 145.772 1714.41 139.583 1721.95 124.403C1729.49 109.223 1723.28 90.8004 1708.08 83.2553C1692.88 75.7104 1674.46 81.8998 1666.92 97.0798C1659.38 112.26 1665.59 130.682 1680.79 138.227ZM1661.29 177.493C1698.2 195.816 1742.95 180.785 1761.26 143.919C1779.56 107.053 1764.48 62.3134 1727.58 43.9898C1690.67 25.6662 1645.92 40.6977 1627.61 77.5634C1609.31 114.429 1624.39 159.169 1661.29 177.493Z" fill="#E8EDF4"/>
<path fill-rule="evenodd" clip-rule="evenodd" d="M1481.93 538.736C1497.13 546.281 1515.56 540.091 1523.09 524.911C1530.63 509.731 1524.42 491.309 1509.23 483.764C1494.03 476.219 1475.6 482.408 1468.06 497.588C1460.53 512.769 1466.74 531.191 1481.93 538.736ZM1462.44 578.001C1499.34 596.325 1544.1 581.293 1562.4 544.428C1580.71 507.562 1565.63 462.822 1528.72 444.498C1491.82 426.175 1447.06 441.206 1428.76 478.072C1410.45 514.938 1425.53 559.678 1462.44 578.001Z" fill="#E8EDF4"/>
<path fill-rule="evenodd" clip-rule="evenodd" d="M1613.43 -61.6313C1628.62 -54.0863 1647.05 -60.2757 1654.59 -75.4558C1662.13 -90.6358 1655.92 -109.058 1640.72 -116.603C1625.52 -124.148 1607.1 -117.959 1599.56 -102.779C1592.02 -87.5986 1598.23 -69.1763 1613.43 -61.6313ZM1593.93 -22.3658C1630.84 -4.04218 1675.59 -19.0736 1693.9 -55.9394C1712.2 -92.8052 1697.12 -137.545 1660.22 -155.869C1623.31 -174.192 1578.56 -159.161 1560.25 -122.295C1541.95 -85.4292 1557.03 -40.6894 1593.93 -22.3658Z" fill="#E8EDF4"/>
<path fill-rule="evenodd" clip-rule="evenodd" d="M1414.57 338.877C1429.77 346.422 1448.2 340.233 1455.73 325.053C1463.27 309.873 1457.06 291.451 1441.87 283.906C1426.67 276.361 1408.24 282.55 1400.7 297.73C1393.17 312.91 1399.38 331.332 1414.57 338.877ZM1395.08 378.143C1431.98 396.466 1476.74 381.435 1495.04 344.569C1513.35 307.703 1498.27 262.964 1461.36 244.64C1424.46 226.316 1379.7 241.348 1361.4 278.214C1343.09 315.079 1358.17 359.819 1395.08 378.143Z" fill="#E8EDF4"/>
<path fill-rule="evenodd" clip-rule="evenodd" d="M2079.34 3.28193C2094.53 10.8269 2112.96 4.6375 2120.5 -10.5425C2128.04 -25.7226 2121.83 -44.1449 2106.63 -51.6898C2091.43 -59.2349 2073.01 -53.0455 2065.47 -37.8655C2057.93 -22.6855 2064.14 -4.26312 2079.34 3.28193ZM2059.84 42.5475C2096.75 60.8711 2141.5 45.8396 2159.81 8.97382C2178.11 -27.892 2163.03 -72.6318 2126.13 -90.9554C2089.22 -109.279 2044.46 -94.2475 2026.16 -57.3817C2007.86 -20.5159 2022.94 24.2239 2059.84 42.5475Z" fill="#E8EDF4"/>
<path fill-rule="evenodd" clip-rule="evenodd" d="M1880.48 403.791C1895.68 411.335 1914.11 405.146 1921.64 389.966C1929.18 374.786 1922.97 356.364 1907.78 348.819C1892.58 341.274 1874.15 347.463 1866.61 362.643C1859.08 377.823 1865.29 396.245 1880.48 403.791ZM1860.99 443.056C1897.89 461.38 1942.65 446.348 1960.95 409.482C1979.26 372.617 1964.18 327.877 1927.27 309.553C1890.37 291.23 1845.61 306.261 1827.31 343.127C1809 379.993 1824.08 424.732 1860.99 443.056Z" fill="#E8EDF4"/>
<path fill-rule="evenodd" clip-rule="evenodd" d="M1946.77 270.288C1961.96 277.833 1980.39 271.643 1987.93 256.463C1995.47 241.283 1989.26 222.861 1974.06 215.316C1958.86 207.771 1940.44 213.96 1932.9 229.14C1925.36 244.32 1931.57 262.743 1946.77 270.288ZM1927.27 309.553C1964.18 327.877 2008.93 312.845 2027.24 275.98C2045.54 239.114 2030.46 194.374 1993.56 176.05C1956.65 157.727 1911.9 172.758 1893.59 209.624C1875.29 246.49 1890.37 291.23 1927.27 309.553Z" fill="#E8EDF4"/>
<path fill-rule="evenodd" clip-rule="evenodd" d="M1747.91 670.796C1763.11 678.341 1781.54 672.152 1789.07 656.972C1796.61 641.792 1790.4 623.369 1775.21 615.825C1760.01 608.279 1741.58 614.469 1734.04 629.649C1726.51 644.829 1732.72 663.251 1747.91 670.796ZM1728.42 710.062C1765.32 728.385 1810.08 713.354 1828.38 676.488C1846.69 639.622 1831.61 594.883 1794.7 576.559C1757.8 558.235 1713.04 573.267 1694.74 610.133C1676.43 646.998 1691.51 691.738 1728.42 710.062Z" fill="#E8EDF4"/>
<path fill-rule="evenodd" clip-rule="evenodd" d="M1879.41 70.4293C1894.6 77.9743 1913.03 71.7849 1920.57 56.6049C1928.11 41.4249 1921.9 23.0025 1906.7 15.4576C1891.5 7.91252 1873.08 14.1019 1865.54 29.2819C1858 44.462 1864.21 62.8843 1879.41 70.4293ZM1859.91 109.695C1896.82 128.018 1941.57 112.987 1959.88 76.1212C1978.18 39.2554 1963.1 -5.48438 1926.2 -23.808C1889.29 -42.1316 1844.54 -27.1001 1826.23 9.76569C1807.93 46.6315 1823.01 91.3713 1859.91 109.695Z" fill="#E8EDF4"/>
<path fill-rule="evenodd" clip-rule="evenodd" d="M1680.55 470.938C1695.75 478.483 1714.18 472.293 1721.71 457.113C1729.25 441.933 1723.04 423.511 1707.85 415.966C1692.65 408.421 1674.22 414.61 1666.68 429.791C1659.15 444.971 1665.36 463.393 1680.55 470.938ZM1661.06 510.203C1697.96 528.527 1742.72 513.496 1761.02 476.63C1779.33 439.764 1764.25 395.024 1727.34 376.701C1690.44 358.377 1645.68 373.408 1627.38 410.274C1609.07 447.14 1624.15 491.88 1661.06 510.203Z" fill="#E8EDF4"/>
<path fill-rule="evenodd" clip-rule="evenodd" d="M2613.92 268.704C2629.11 276.249 2647.54 270.06 2655.08 254.88C2662.62 239.7 2656.41 221.277 2641.21 213.732C2626.01 206.187 2607.58 212.377 2600.05 227.557C2592.51 242.737 2598.72 261.159 2613.92 268.704ZM2594.42 307.969C2631.33 326.293 2676.08 311.262 2694.39 274.396C2712.69 237.53 2697.61 192.79 2660.71 174.467C2623.8 156.143 2579.04 171.175 2560.74 208.04C2542.44 244.906 2557.52 289.646 2594.42 307.969Z" fill="#E8EDF4"/>
<path fill-rule="evenodd" clip-rule="evenodd" d="M2415.06 669.213C2430.26 676.758 2448.69 670.568 2456.22 655.388C2463.76 640.208 2457.55 621.786 2442.35 614.241C2427.16 606.696 2408.73 612.885 2401.19 628.065C2393.66 643.245 2399.87 661.668 2415.06 669.213ZM2395.57 708.478C2432.47 726.802 2477.23 711.77 2495.53 674.904C2513.83 638.039 2498.76 593.299 2461.85 574.975C2424.95 556.652 2380.19 571.683 2361.89 608.549C2343.58 645.415 2358.66 690.154 2395.57 708.478Z" fill="#E8EDF4"/>
<path fill-rule="evenodd" clip-rule="evenodd" d="M2481.35 535.71C2496.54 543.255 2514.97 537.065 2522.51 521.885C2530.05 506.705 2523.84 488.283 2508.64 480.738C2493.44 473.193 2475.01 479.382 2467.48 494.562C2459.94 509.742 2466.15 528.165 2481.35 535.71ZM2461.85 574.975C2498.76 593.299 2543.51 578.267 2561.82 541.402C2580.12 504.536 2565.04 459.796 2528.14 441.472C2491.23 423.149 2446.47 438.18 2428.17 475.046C2409.87 511.912 2424.95 556.652 2461.85 574.975Z" fill="#E8EDF4"/>
<path fill-rule="evenodd" clip-rule="evenodd" d="M2282.49 936.218C2297.69 943.763 2316.12 937.574 2323.65 922.394C2331.19 907.214 2324.98 888.792 2309.78 881.247C2294.59 873.702 2276.16 879.891 2268.62 895.071C2261.09 910.251 2267.3 928.673 2282.49 936.218ZM2263 975.484C2299.9 993.807 2344.66 978.776 2362.96 941.91C2381.26 905.045 2366.19 860.305 2329.28 841.981C2292.38 823.657 2247.62 838.689 2229.32 875.555C2211.01 912.421 2226.09 957.16 2263 975.484Z" fill="#E8EDF4"/>
<path fill-rule="evenodd" clip-rule="evenodd" d="M2413.99 335.851C2429.18 343.396 2447.61 337.207 2455.15 322.027C2462.69 306.847 2456.48 288.425 2441.28 280.88C2426.08 273.335 2407.66 279.524 2400.12 294.704C2392.58 309.884 2398.79 328.306 2413.99 335.851ZM2394.49 375.117C2431.4 393.441 2476.15 378.409 2494.46 341.543C2512.76 304.678 2497.68 259.938 2460.78 241.614C2423.87 223.291 2379.12 238.322 2360.81 275.188C2342.51 312.054 2357.59 356.793 2394.49 375.117Z" fill="#E8EDF4"/>
<path fill-rule="evenodd" clip-rule="evenodd" d="M2215.13 736.36C2230.33 743.905 2248.76 737.715 2256.29 722.535C2263.83 707.355 2257.62 688.933 2242.43 681.388C2227.23 673.843 2208.8 680.033 2201.26 695.213C2193.73 710.393 2199.94 728.815 2215.13 736.36ZM2195.64 775.626C2232.54 793.949 2277.3 778.918 2295.6 742.052C2313.91 705.186 2298.83 660.446 2261.92 642.123C2225.02 623.799 2180.26 638.831 2161.96 675.696C2143.65 712.562 2158.73 757.302 2195.64 775.626Z" fill="#E8EDF4"/>
<path fill-rule="evenodd" clip-rule="evenodd" d="M2346.63 135.993C2361.82 143.538 2380.25 137.349 2387.79 122.168C2395.33 106.988 2389.12 88.5661 2373.92 81.0212C2358.72 73.4762 2340.3 79.6656 2332.76 94.8456C2325.22 110.026 2331.43 128.448 2346.63 135.993ZM2327.13 175.258C2364.04 193.582 2408.79 178.551 2427.1 141.685C2445.4 104.819 2430.32 60.0792 2393.42 41.7556C2356.51 23.432 2311.75 38.4635 2293.45 75.3293C2275.15 112.195 2290.23 156.935 2327.13 175.258Z" fill="#E8EDF4"/>
<path fill-rule="evenodd" clip-rule="evenodd" d="M2147.77 536.502C2162.97 544.046 2181.4 537.857 2188.93 522.677C2196.47 507.497 2190.26 489.075 2175.07 481.53C2159.87 473.985 2141.44 480.174 2133.9 495.354C2126.37 510.534 2132.58 528.957 2147.77 536.502ZM2128.28 575.767C2165.18 594.091 2209.94 579.059 2228.24 542.193C2246.54 505.328 2231.47 460.588 2194.56 442.264C2157.66 423.941 2112.9 438.972 2094.6 475.838C2076.29 512.704 2091.37 557.443 2128.28 575.767Z" fill="#E8EDF4"/>
<path fill-rule="evenodd" clip-rule="evenodd" d="M2214.06 402.999C2229.25 410.544 2247.68 404.354 2255.22 389.174C2262.76 373.994 2256.55 355.572 2241.35 348.027C2226.15 340.482 2207.73 346.671 2200.19 361.851C2192.65 377.031 2198.86 395.454 2214.06 402.999ZM2194.56 442.264C2231.47 460.588 2276.22 445.556 2294.53 408.691C2312.83 371.825 2297.75 327.085 2260.85 308.761C2223.94 290.438 2179.18 305.469 2160.88 342.335C2142.58 379.201 2157.66 423.941 2194.56 442.264Z" fill="#E8EDF4"/>
<path fill-rule="evenodd" clip-rule="evenodd" d="M2015.2 803.507C2030.4 811.052 2048.83 804.863 2056.36 789.683C2063.9 774.503 2057.69 756.08 2042.5 748.536C2027.3 740.991 2008.87 747.18 2001.33 762.36C1993.8 777.54 2000.01 795.962 2015.2 803.507ZM1995.71 842.773C2032.61 861.096 2077.37 846.065 2095.67 809.199C2113.97 772.333 2098.9 727.594 2061.99 709.27C2025.09 690.946 1980.33 705.978 1962.03 742.844C1943.72 779.709 1958.8 824.449 1995.71 842.773Z" fill="#E8EDF4"/>
<path fill-rule="evenodd" clip-rule="evenodd" d="M2146.7 203.14C2161.89 210.685 2180.32 204.496 2187.86 189.316C2195.4 174.136 2189.19 155.714 2173.99 148.169C2158.79 140.624 2140.37 146.813 2132.83 161.993C2125.29 177.173 2131.5 195.595 2146.7 203.14ZM2127.2 242.406C2164.11 260.729 2208.86 245.698 2227.17 208.832C2245.47 171.966 2230.39 127.227 2193.49 108.903C2156.58 90.5794 2111.83 105.611 2093.52 142.477C2075.22 179.342 2090.3 224.082 2127.2 242.406Z" fill="#E8EDF4"/>
<path fill-rule="evenodd" clip-rule="evenodd" d="M1947.84 603.649C1963.04 611.194 1981.47 605.004 1989 589.824C1996.54 574.644 1990.33 556.222 1975.14 548.677C1959.94 541.132 1941.51 547.321 1933.97 562.501C1926.44 577.682 1932.65 596.104 1947.84 603.649ZM1928.35 642.914C1965.25 661.238 2010.01 646.207 2028.31 609.341C2046.62 572.475 2031.54 527.735 1994.63 509.412C1957.73 491.088 1912.97 506.119 1894.67 542.985C1876.36 579.851 1891.44 624.591 1928.35 642.914Z" fill="#E8EDF4"/>
<path fill-rule="evenodd" clip-rule="evenodd" d="M2881.21 401.415C2896.4 408.96 2914.83 402.771 2922.37 387.591C2929.91 372.411 2923.7 353.988 2908.5 346.443C2893.3 338.898 2874.88 345.088 2867.34 360.268C2859.8 375.448 2866.01 393.87 2881.21 401.415ZM2861.71 440.681C2898.62 459.004 2943.37 443.973 2961.68 407.107C2979.98 370.241 2964.9 325.501 2928 307.178C2891.09 288.854 2846.33 303.886 2828.03 340.751C2809.73 377.617 2824.81 422.357 2861.71 440.681Z" fill="#E8EDF4"/>
<path fill-rule="evenodd" clip-rule="evenodd" d="M2682.35 801.924C2697.55 809.469 2715.98 803.279 2723.51 788.099C2731.05 772.919 2724.84 754.497 2709.64 746.952C2694.45 739.407 2676.02 745.596 2668.48 760.776C2660.95 775.956 2667.15 794.379 2682.35 801.924ZM2662.86 841.189C2699.76 859.513 2744.52 844.481 2762.82 807.616C2781.12 770.75 2766.05 726.01 2729.14 707.686C2692.24 689.363 2647.48 704.394 2629.18 741.26C2610.87 778.126 2625.95 822.866 2662.86 841.189Z" fill="#E8EDF4"/>
<path fill-rule="evenodd" clip-rule="evenodd" d="M2748.64 668.421C2763.83 675.966 2782.26 669.776 2789.8 654.596C2797.34 639.416 2791.13 620.994 2775.93 613.449C2760.73 605.904 2742.31 612.094 2734.77 627.274C2727.23 642.454 2733.44 660.876 2748.64 668.421ZM2729.14 707.686C2766.05 726.01 2810.8 710.979 2829.11 674.113C2847.41 637.247 2832.33 592.507 2795.43 574.183C2758.52 555.86 2713.76 570.891 2695.46 607.757C2677.16 644.623 2692.24 689.363 2729.14 707.686Z" fill="#E8EDF4"/>
<path fill-rule="evenodd" clip-rule="evenodd" d="M2549.78 1068.93C2564.98 1076.47 2583.41 1070.29 2590.94 1055.1C2598.48 1039.92 2592.27 1021.5 2577.07 1013.96C2561.88 1006.41 2543.45 1012.6 2535.91 1027.78C2528.38 1042.96 2534.58 1061.38 2549.78 1068.93ZM2530.29 1108.19C2567.19 1126.52 2611.95 1111.49 2630.25 1074.62C2648.55 1037.76 2633.48 993.016 2596.57 974.692C2559.67 956.368 2514.91 971.4 2496.61 1008.27C2478.3 1045.13 2493.38 1089.87 2530.29 1108.19Z" fill="#E8EDF4"/>
<path fill-rule="evenodd" clip-rule="evenodd" d="M2681.28 468.562C2696.47 476.107 2714.9 469.918 2722.44 454.738C2729.98 439.558 2723.77 421.136 2708.57 413.591C2693.37 406.046 2674.95 412.235 2667.41 427.415C2659.87 442.595 2666.08 461.017 2681.28 468.562ZM2661.78 507.828C2698.69 526.151 2743.44 511.12 2761.75 474.254C2780.05 437.389 2764.97 392.649 2728.07 374.325C2691.16 356.001 2646.4 371.033 2628.1 407.899C2609.8 444.765 2624.88 489.504 2661.78 507.828Z" fill="#E8EDF4"/>
<path fill-rule="evenodd" clip-rule="evenodd" d="M2482.42 869.071C2497.62 876.616 2516.05 870.427 2523.58 855.247C2531.12 840.067 2524.91 821.644 2509.71 814.099C2494.52 806.554 2476.09 812.744 2468.55 827.924C2461.02 843.104 2467.23 861.526 2482.42 869.071ZM2462.93 908.336C2499.83 926.66 2544.59 911.629 2562.89 874.763C2581.19 837.897 2566.12 793.157 2529.21 774.834C2492.31 756.51 2447.55 771.542 2429.25 808.407C2410.94 845.273 2426.02 890.013 2462.93 908.336Z" fill="#E8EDF4"/>
<path fill-rule="evenodd" clip-rule="evenodd" d="M1670.61 -176.81C1695.94 -164.235 1726.66 -174.551 1739.22 -199.851C1751.78 -225.151 1741.43 -255.855 1716.1 -268.43C1690.78 -281.005 1660.06 -270.689 1647.5 -245.389C1634.94 -220.089 1645.29 -189.385 1670.61 -176.81ZM1660.22 -155.869C1697.12 -137.545 1741.88 -152.576 1760.18 -189.442C1778.49 -226.308 1763.41 -271.048 1726.5 -289.371C1689.6 -307.695 1644.84 -292.664 1626.54 -255.798C1608.23 -218.932 1623.31 -174.192 1660.22 -155.869Z" fill="#E8EDF4"/>
<path fill-rule="evenodd" clip-rule="evenodd" d="M1471.76 223.698C1497.09 236.273 1527.8 225.958 1540.36 200.658C1552.92 175.358 1542.58 144.654 1517.25 132.079C1491.92 119.504 1461.21 129.819 1448.65 155.119C1436.08 180.42 1446.43 211.123 1471.76 223.698ZM1461.36 244.64C1498.27 262.964 1543.02 247.932 1561.33 211.066C1579.63 174.201 1564.55 129.461 1527.65 111.137C1490.74 92.8135 1445.99 107.845 1427.68 144.711C1409.38 181.577 1424.46 226.316 1461.36 244.64Z" fill="#E8EDF4"/>
<path fill-rule="evenodd" clip-rule="evenodd" d="M1538.04 90.1955C1563.37 102.771 1594.09 92.4548 1606.65 67.1547C1619.21 41.8547 1608.86 11.1509 1583.53 -1.42414C1558.21 -13.9991 1527.49 -3.68342 1514.93 21.6166C1502.37 46.9167 1512.72 77.6205 1538.04 90.1955ZM1527.65 111.137C1564.55 129.461 1609.31 114.429 1627.61 77.5634C1645.92 40.6977 1630.84 -4.04218 1593.93 -22.3658C1557.03 -40.6894 1512.27 -25.6579 1493.97 11.2079C1475.66 48.0737 1490.74 92.8135 1527.65 111.137Z" fill="#E8EDF4"/>
<path fill-rule="evenodd" clip-rule="evenodd" d="M1339.19 490.704C1364.52 503.279 1395.23 492.963 1407.79 467.663C1420.35 442.363 1410.01 411.66 1384.68 399.084C1359.35 386.51 1328.64 396.825 1316.08 422.125C1303.51 447.425 1313.86 478.129 1339.19 490.704ZM1328.79 511.646C1365.7 529.969 1410.45 514.938 1428.76 478.072C1447.06 441.206 1431.98 396.466 1395.08 378.143C1358.17 359.819 1313.42 374.851 1295.11 411.717C1276.81 448.582 1291.89 493.322 1328.79 511.646Z" fill="#E8EDF4"/>
<path fill-rule="evenodd" clip-rule="evenodd" d="M1470.68 -109.663C1496.01 -97.0879 1526.73 -107.404 1539.29 -132.704C1551.85 -158.004 1541.5 -188.708 1516.17 -201.282C1490.85 -213.857 1460.13 -203.542 1447.57 -178.242C1435.01 -152.942 1445.36 -122.238 1470.68 -109.663ZM1460.29 -88.7213C1497.19 -70.3977 1541.95 -85.4292 1560.25 -122.295C1578.56 -159.161 1563.48 -203.901 1526.57 -222.224C1489.67 -240.548 1444.91 -225.516 1426.61 -188.65C1408.3 -151.785 1423.38 -107.045 1460.29 -88.7213Z" fill="#E8EDF4"/>
<path fill-rule="evenodd" clip-rule="evenodd" d="M1271.83 290.846C1297.16 303.421 1327.87 293.105 1340.43 267.805C1352.99 242.505 1342.65 211.801 1317.32 199.226C1291.99 186.651 1261.28 196.967 1248.72 222.267C1236.15 247.567 1246.5 278.271 1271.83 290.846ZM1261.43 311.787C1298.34 330.111 1343.09 315.079 1361.4 278.214C1379.7 241.348 1364.62 196.608 1327.72 178.284C1290.81 159.961 1246.06 174.992 1227.75 211.858C1209.45 248.724 1224.53 293.464 1261.43 311.787Z" fill="#E8EDF4"/>
<path fill-rule="evenodd" clip-rule="evenodd" d="M1937.25 -44.4244C1962.02 -32.1255 1992.54 -42.2954 2005.2 -67.7905C2017.86 -93.2855 2007.51 -123.745 1982.74 -136.044C1957.97 -148.343 1927.45 -138.173 1914.79 -112.678C1902.13 -87.1829 1912.48 -56.7233 1937.25 -44.4244ZM1926.85 -23.4828C1963.39 -5.3389 2007.86 -20.5159 2026.16 -57.3817C2044.46 -94.2475 2029.68 -138.842 1993.14 -156.986C1956.59 -175.13 1912.13 -159.953 1893.83 -123.087C1875.52 -86.2209 1890.31 -41.6267 1926.85 -23.4828Z" fill="#E8EDF4"/>
<path fill-rule="evenodd" clip-rule="evenodd" d="M1738.39 356.084C1763.16 368.383 1793.68 358.213 1806.34 332.718C1819 307.223 1808.65 276.764 1783.88 264.465C1759.11 252.166 1728.59 262.336 1715.94 287.831C1703.28 313.326 1713.62 343.785 1738.39 356.084ZM1728 377.026C1764.54 395.17 1809 379.993 1827.31 343.127C1845.61 306.261 1830.82 261.667 1794.28 243.523C1757.74 225.379 1713.28 240.556 1694.97 277.422C1676.67 314.288 1691.45 358.882 1728 377.026Z" fill="#E8EDF4"/>
<path fill-rule="evenodd" clip-rule="evenodd" d="M1804.68 222.581C1829.45 234.88 1859.97 224.71 1872.63 199.215C1885.29 173.72 1874.94 143.261 1850.17 130.962C1825.4 118.663 1794.88 128.833 1782.22 154.328C1769.56 179.823 1779.91 210.282 1804.68 222.581ZM1794.28 243.523C1830.82 261.667 1875.29 246.49 1893.59 209.624C1911.9 172.758 1897.11 128.164 1860.57 110.02C1824.02 91.8762 1779.56 107.053 1761.26 143.919C1742.95 180.785 1757.74 225.379 1794.28 243.523Z" fill="#E8EDF4"/>
<path fill-rule="evenodd" clip-rule="evenodd" d="M1605.82 623.09C1630.59 635.389 1661.11 625.219 1673.77 599.724C1686.43 574.229 1676.08 543.769 1651.31 531.47C1626.54 519.171 1596.02 529.341 1583.37 554.836C1570.71 580.331 1581.05 610.791 1605.82 623.09ZM1595.43 644.032C1631.97 662.175 1676.43 646.998 1694.74 610.133C1713.04 573.267 1698.25 528.673 1661.71 510.529C1625.17 492.385 1580.71 507.562 1562.4 544.428C1544.1 581.293 1558.88 625.888 1595.43 644.032Z" fill="#E8EDF4"/>
<path fill-rule="evenodd" clip-rule="evenodd" d="M1737.32 22.7229C1762.09 35.0219 1792.61 24.8519 1805.27 -0.643157C1817.93 -26.1382 1807.58 -56.5978 1782.81 -68.8967C1758.04 -81.1956 1727.52 -71.0257 1714.86 -45.5307C1702.2 -20.0356 1712.55 10.424 1737.32 22.7229ZM1726.92 43.6645C1763.46 61.8084 1807.93 46.6315 1826.23 9.76569C1844.54 -27.1001 1829.75 -71.6945 1793.21 -89.8384C1756.66 -107.982 1712.2 -92.8052 1693.9 -55.9394C1675.59 -19.0736 1690.38 25.5206 1726.92 43.6645Z" fill="#E8EDF4"/>
<path fill-rule="evenodd" clip-rule="evenodd" d="M1538.46 423.231C1563.23 435.53 1593.75 425.36 1606.41 399.865C1619.07 374.37 1608.72 343.911 1583.95 331.612C1559.18 319.313 1528.66 329.483 1516.01 354.978C1503.35 380.473 1513.69 410.933 1538.46 423.231ZM1528.07 444.173C1564.61 462.317 1609.07 447.14 1627.38 410.274C1645.68 373.408 1630.89 328.814 1594.35 310.67C1557.81 292.526 1513.35 307.703 1495.04 344.569C1476.74 381.435 1491.52 426.029 1528.07 444.173Z" fill="#E8EDF4"/>
<path fill-rule="evenodd" clip-rule="evenodd" d="M2203.88 87.9614C2229.21 100.536 2259.93 90.2207 2272.49 64.9206C2285.05 39.6206 2274.7 8.91675 2249.37 -3.65821C2224.05 -16.2333 2193.33 -5.9175 2180.77 19.3826C2168.21 44.6826 2178.56 75.3863 2203.88 87.9614ZM2193.49 108.903C2230.39 127.227 2275.15 112.195 2293.45 75.3293C2311.75 38.4635 2296.68 -6.27624 2259.77 -24.5998C2222.87 -42.9234 2178.11 -27.892 2159.81 8.97382C2141.5 45.8396 2156.58 90.5794 2193.49 108.903Z" fill="#E8EDF4"/>
<path fill-rule="evenodd" clip-rule="evenodd" d="M2005.03 488.47C2030.36 501.045 2061.07 490.729 2073.63 465.429C2086.19 440.129 2075.85 409.425 2050.52 396.85C2025.19 384.275 1994.48 394.591 1981.91 419.891C1969.35 445.191 1979.7 475.895 2005.03 488.47ZM1994.63 509.412C2031.54 527.735 2076.29 512.704 2094.6 475.838C2112.9 438.972 2097.82 394.232 2060.92 375.909C2024.01 357.585 1979.26 372.617 1960.95 409.482C1942.65 446.348 1957.73 491.088 1994.63 509.412Z" fill="#E8EDF4"/>
<path fill-rule="evenodd" clip-rule="evenodd" d="M2071.31 354.967C2096.64 367.542 2127.36 357.226 2139.92 331.926C2152.48 306.626 2142.13 275.922 2116.8 263.348C2091.48 250.772 2060.76 261.088 2048.2 286.388C2035.64 311.688 2045.99 342.392 2071.31 354.967ZM2060.92 375.909C2097.82 394.232 2142.58 379.201 2160.88 342.335C2179.18 305.469 2164.11 260.729 2127.2 242.406C2090.3 224.082 2045.54 239.114 2027.24 275.98C2008.93 312.845 2024.01 357.585 2060.92 375.909Z" fill="#E8EDF4"/>
<path fill-rule="evenodd" clip-rule="evenodd" d="M1872.46 755.476C1897.79 768.051 1928.5 757.735 1941.06 732.435C1953.62 707.135 1943.28 676.431 1917.95 663.856C1892.62 651.281 1861.91 661.597 1849.34 686.897C1836.78 712.197 1847.13 742.901 1872.46 755.476ZM1862.06 776.417C1898.97 794.741 1943.72 779.709 1962.03 742.844C1980.33 705.978 1965.25 661.238 1928.35 642.914C1891.44 624.591 1846.69 639.622 1828.38 676.488C1810.08 713.354 1825.16 758.094 1862.06 776.417Z" fill="#E8EDF4"/>
<path fill-rule="evenodd" clip-rule="evenodd" d="M2003.95 155.109C2029.28 167.684 2060 157.368 2072.56 132.068C2085.12 106.768 2074.77 76.0641 2049.44 63.4891C2024.12 50.9142 1993.4 61.2298 1980.84 86.5299C1968.28 111.83 1978.63 142.534 2003.95 155.109ZM1993.56 176.05C2030.46 194.374 2075.22 179.342 2093.52 142.477C2111.83 105.611 2096.75 60.8711 2059.84 42.5475C2022.94 24.2239 1978.18 39.2554 1959.88 76.1212C1941.57 112.987 1956.65 157.727 1993.56 176.05Z" fill="#E8EDF4"/>
<path fill-rule="evenodd" clip-rule="evenodd" d="M1805.1 555.617C1830.43 568.192 1861.14 557.877 1873.7 532.577C1886.26 507.276 1875.92 476.573 1850.59 463.998C1825.26 451.423 1794.55 461.738 1781.98 487.038C1769.42 512.338 1779.77 543.042 1805.1 555.617ZM1794.7 576.559C1831.61 594.883 1876.36 579.851 1894.67 542.985C1912.97 506.119 1897.89 461.38 1860.99 443.056C1824.08 424.732 1779.33 439.764 1761.02 476.63C1742.72 513.496 1757.8 558.235 1794.7 576.559Z" fill="#E8EDF4"/>
<path fill-rule="evenodd" clip-rule="evenodd" d="M2738.46 353.383C2763.79 365.958 2794.51 355.643 2807.07 330.343C2819.63 305.043 2809.28 274.339 2783.95 261.764C2758.63 249.189 2727.91 259.504 2715.35 284.805C2702.79 310.105 2713.14 340.808 2738.46 353.383ZM2728.07 374.325C2764.97 392.649 2809.73 377.617 2828.03 340.751C2846.33 303.886 2831.26 259.146 2794.35 240.822C2757.45 222.499 2712.69 237.53 2694.39 274.396C2676.08 311.262 2691.16 356.001 2728.07 374.325Z" fill="#E8EDF4"/>
<path fill-rule="evenodd" clip-rule="evenodd" d="M2539.61 753.892C2564.94 766.467 2595.65 756.151 2608.21 730.851C2620.77 705.551 2610.42 674.847 2585.1 662.272C2559.77 649.697 2529.06 660.013 2516.49 685.313C2503.93 710.613 2514.28 741.317 2539.61 753.892ZM2529.21 774.834C2566.12 793.157 2610.87 778.126 2629.18 741.26C2647.48 704.394 2632.4 659.654 2595.5 641.331C2558.59 623.007 2513.83 638.039 2495.53 674.904C2477.23 711.77 2492.31 756.51 2529.21 774.834Z" fill="#E8EDF4"/>
<path fill-rule="evenodd" clip-rule="evenodd" d="M2605.89 620.389C2631.22 632.964 2661.94 622.649 2674.5 597.348C2687.06 572.048 2676.71 541.344 2651.38 528.77C2626.06 516.195 2595.34 526.51 2582.78 551.81C2570.22 577.11 2580.57 607.814 2605.89 620.389ZM2595.5 641.331C2632.4 659.654 2677.16 644.623 2695.46 607.757C2713.76 570.891 2698.69 526.151 2661.78 507.828C2624.88 489.504 2580.12 504.536 2561.82 541.402C2543.51 578.267 2558.59 623.007 2595.5 641.331Z" fill="#E8EDF4"/>
<path fill-rule="evenodd" clip-rule="evenodd" d="M2407.04 1020.9C2432.37 1033.47 2463.08 1023.16 2475.64 997.857C2488.2 972.557 2477.85 941.853 2452.53 929.278C2427.2 916.703 2396.49 927.019 2383.92 952.319C2371.36 977.619 2381.71 1008.32 2407.04 1020.9ZM2396.64 1041.84C2433.55 1060.16 2478.3 1045.13 2496.61 1008.27C2514.91 971.4 2499.83 926.66 2462.93 908.336C2426.02 890.013 2381.26 905.045 2362.96 941.91C2344.66 978.776 2359.74 1023.52 2396.64 1041.84Z" fill="#E8EDF4"/>
<path fill-rule="evenodd" clip-rule="evenodd" d="M2538.53 420.531C2563.86 433.106 2594.58 422.79 2607.14 397.49C2619.7 372.19 2609.35 341.486 2584.02 328.911C2558.7 316.336 2527.98 326.652 2515.42 351.952C2502.86 377.252 2513.21 407.956 2538.53 420.531ZM2528.14 441.472C2565.04 459.796 2609.8 444.765 2628.1 407.899C2646.4 371.033 2631.33 326.293 2594.42 307.969C2557.52 289.646 2512.76 304.678 2494.46 341.543C2476.15 378.409 2491.23 423.149 2528.14 441.472Z" fill="#E8EDF4"/>
<path fill-rule="evenodd" clip-rule="evenodd" d="M2339.68 821.039C2365.01 833.614 2395.72 823.299 2408.28 797.999C2420.84 772.699 2410.5 741.995 2385.17 729.42C2359.84 716.845 2329.13 727.161 2316.56 752.461C2304 777.761 2314.35 808.464 2339.68 821.039ZM2329.28 841.981C2366.19 860.305 2410.94 845.273 2429.25 808.407C2447.55 771.542 2432.47 726.802 2395.57 708.478C2358.66 690.154 2313.91 705.186 2295.6 742.052C2277.3 778.918 2292.38 823.657 2329.28 841.981Z" fill="#E8EDF4"/>
<path fill-rule="evenodd" clip-rule="evenodd" d="M2471.17 220.673C2496.5 233.247 2527.22 222.932 2539.78 197.632C2552.34 172.332 2541.99 141.628 2516.66 129.053C2491.34 116.478 2460.62 126.794 2448.06 152.094C2435.5 177.394 2445.85 208.097 2471.17 220.673ZM2460.78 241.614C2497.68 259.938 2542.44 244.906 2560.74 208.04C2579.04 171.175 2563.97 126.435 2527.06 108.111C2490.16 89.7877 2445.4 104.819 2427.1 141.685C2408.79 178.551 2423.87 223.291 2460.78 241.614Z" fill="#E8EDF4"/>
<path fill-rule="evenodd" clip-rule="evenodd" d="M2272.32 621.181C2297.65 633.756 2328.36 623.44 2340.92 598.14C2353.48 572.84 2343.14 542.136 2317.81 529.561C2292.48 516.986 2261.77 527.302 2249.2 552.602C2236.64 577.902 2246.99 608.606 2272.32 621.181ZM2261.92 642.123C2298.83 660.446 2343.58 645.415 2361.89 608.549C2380.19 571.683 2365.11 526.943 2328.21 508.62C2291.3 490.296 2246.54 505.328 2228.24 542.193C2209.94 579.059 2225.02 623.799 2261.92 642.123Z" fill="#E8EDF4"/>
<path fill-rule="evenodd" clip-rule="evenodd" d="M2338.6 487.678C2363.93 500.253 2394.65 489.938 2407.21 464.637C2419.77 439.337 2409.42 408.634 2384.09 396.059C2358.77 383.484 2328.05 393.799 2315.49 419.099C2302.93 444.399 2313.28 475.103 2338.6 487.678ZM2328.21 508.62C2365.11 526.943 2409.87 511.912 2428.17 475.046C2446.47 438.18 2431.4 393.441 2394.49 375.117C2357.59 356.793 2312.83 371.825 2294.53 408.691C2276.22 445.556 2291.3 490.296 2328.21 508.62Z" fill="#E8EDF4"/>
<path fill-rule="evenodd" clip-rule="evenodd" d="M2139.75 888.187C2165.08 900.762 2195.79 890.446 2208.35 865.146C2220.91 839.846 2210.57 809.142 2185.24 796.567C2159.91 783.992 2129.2 794.308 2116.63 819.608C2104.07 844.908 2114.42 875.612 2139.75 888.187ZM2129.35 909.128C2166.26 927.452 2211.01 912.421 2229.32 875.555C2247.62 838.689 2232.54 793.949 2195.64 775.626C2158.73 757.302 2113.97 772.333 2095.67 809.199C2077.37 846.065 2092.45 890.805 2129.35 909.128Z" fill="#E8EDF4"/>
<path fill-rule="evenodd" clip-rule="evenodd" d="M2271.24 287.82C2296.57 300.395 2327.29 290.079 2339.85 264.779C2352.41 239.479 2342.06 208.775 2316.73 196.2C2291.41 183.625 2260.69 193.941 2248.13 219.241C2235.57 244.541 2245.92 275.245 2271.24 287.82ZM2260.85 308.761C2297.75 327.085 2342.51 312.054 2360.81 275.188C2379.12 238.322 2364.04 193.582 2327.13 175.258C2290.23 156.935 2245.47 171.966 2227.17 208.832C2208.86 245.698 2223.94 290.438 2260.85 308.761Z" fill="#E8EDF4"/>
<path fill-rule="evenodd" clip-rule="evenodd" d="M2072.39 688.328C2097.72 700.903 2128.43 690.588 2140.99 665.288C2153.55 639.987 2143.2 609.284 2117.88 596.709C2092.55 584.134 2061.84 594.449 2049.27 619.749C2036.71 645.049 2047.06 675.753 2072.39 688.328ZM2061.99 709.27C2098.9 727.594 2143.65 712.562 2161.96 675.696C2180.26 638.831 2165.18 594.091 2128.28 575.767C2091.37 557.443 2046.62 572.475 2028.31 609.341C2010.01 646.207 2025.09 690.946 2061.99 709.27Z" fill="#E8EDF4"/>
<path fill-rule="evenodd" clip-rule="evenodd" d="M3005.75 486.094C3031.08 498.669 3061.79 488.354 3074.36 463.054C3086.92 437.754 3076.57 407.05 3051.24 394.475C3025.92 381.9 2995.2 392.215 2982.64 417.515C2970.08 442.815 2980.43 473.519 3005.75 486.094ZM2995.36 507.036C3032.26 525.359 3077.02 510.328 3095.32 473.462C3113.62 436.597 3098.55 391.857 3061.64 373.533C3024.73 355.209 2979.98 370.241 2961.68 407.107C2943.37 443.973 2958.45 488.712 2995.36 507.036Z" fill="#E8EDF4"/>
<path fill-rule="evenodd" clip-rule="evenodd" d="M2806.9 886.603C2832.22 899.178 2862.94 888.862 2875.5 863.562C2888.06 838.262 2877.71 807.558 2852.39 794.983C2827.06 782.408 2796.35 792.724 2783.78 818.024C2771.22 843.324 2781.57 874.028 2806.9 886.603ZM2796.5 907.544C2833.41 925.868 2878.16 910.837 2896.47 873.971C2914.77 837.105 2899.69 792.365 2862.79 774.042C2825.88 755.718 2781.12 770.75 2762.82 807.616C2744.52 844.481 2759.6 889.221 2796.5 907.544Z" fill="#E8EDF4"/>
<path fill-rule="evenodd" clip-rule="evenodd" d="M2873.18 753.1C2898.51 765.675 2929.22 755.36 2941.79 730.059C2954.35 704.759 2944 674.055 2918.67 661.48C2893.35 648.905 2862.63 659.221 2850.07 684.521C2837.51 709.821 2847.86 740.525 2873.18 753.1ZM2862.79 774.042C2899.69 792.365 2944.45 777.334 2962.75 740.468C2981.05 703.602 2965.98 658.862 2929.07 640.539C2892.17 622.215 2847.41 637.247 2829.11 674.113C2810.8 710.979 2825.88 755.718 2862.79 774.042Z" fill="#E8EDF4"/>
<path fill-rule="evenodd" clip-rule="evenodd" d="M2674.33 1153.61C2699.65 1166.18 2730.37 1155.87 2742.93 1130.57C2755.49 1105.27 2745.14 1074.56 2719.82 1061.99C2694.49 1049.41 2663.78 1059.73 2651.21 1085.03C2638.65 1110.33 2649 1141.03 2674.33 1153.61ZM2663.93 1174.55C2700.84 1192.87 2745.59 1177.84 2763.9 1140.98C2782.2 1104.11 2767.12 1059.37 2730.22 1041.05C2693.31 1022.72 2648.55 1037.76 2630.25 1074.62C2611.95 1111.49 2627.03 1156.23 2663.93 1174.55Z" fill="#E8EDF4"/>
<path fill-rule="evenodd" clip-rule="evenodd" d="M2805.82 553.242C2831.15 565.817 2861.87 555.501 2874.43 530.201C2886.99 504.901 2876.64 474.197 2851.31 461.622C2825.99 449.047 2795.27 459.363 2782.71 484.663C2770.15 509.963 2780.5 540.667 2805.82 553.242ZM2795.43 574.183C2832.33 592.507 2877.09 577.476 2895.39 540.61C2913.69 503.744 2898.62 459.004 2861.71 440.681C2824.81 422.357 2780.05 437.389 2761.75 474.254C2743.44 511.12 2758.52 555.86 2795.43 574.183Z" fill="#E8EDF4"/>
<path fill-rule="evenodd" clip-rule="evenodd" d="M2606.97 953.75C2632.3 966.325 2663.01 956.01 2675.57 930.71C2688.13 905.41 2677.78 874.706 2652.46 862.131C2627.13 849.556 2596.42 859.871 2583.85 885.172C2571.29 910.472 2581.64 941.175 2606.97 953.75ZM2596.57 974.692C2633.48 993.016 2678.23 977.984 2696.54 941.118C2714.84 904.253 2699.76 859.513 2662.86 841.189C2625.95 822.866 2581.19 837.897 2562.89 874.763C2544.59 911.629 2559.67 956.368 2596.57 974.692Z" fill="#E8EDF4"/>
<path fill-rule="evenodd" clip-rule="evenodd" d="M-56.6121 -1057.23C-41.4159 -1049.68 -22.987 -1055.87 -15.45 -1071.05C-7.91304 -1086.23 -14.1221 -1104.66 -29.3182 -1112.2C-44.5144 -1119.75 -62.9433 -1113.56 -70.4803 -1098.38C-78.0173 -1083.2 -71.8082 -1064.77 -56.6121 -1057.23ZM-76.1076 -1017.96C-39.2026 -999.64 5.55323 -1014.67 23.8573 -1051.54C42.1614 -1088.4 27.0824 -1133.14 -9.82267 -1151.47C-46.7277 -1169.79 -91.4835 -1154.76 -109.788 -1117.89C-128.092 -1081.03 -113.013 -1036.29 -76.1076 -1017.96Z" fill="#E8EDF4"/>
<path fill-rule="evenodd" clip-rule="evenodd" d="M-255.467 -656.721C-240.271 -649.176 -221.842 -655.365 -214.305 -670.545C-206.768 -685.725 -212.977 -704.148 -228.173 -711.693C-243.369 -719.238 -261.798 -713.048 -269.335 -697.868C-276.872 -682.688 -270.663 -664.266 -255.467 -656.721ZM-274.963 -617.455C-238.058 -599.132 -193.302 -614.163 -174.998 -651.029C-156.694 -687.895 -171.773 -732.635 -208.678 -750.958C-245.583 -769.282 -290.338 -754.25 -308.643 -717.384C-326.947 -680.519 -311.868 -635.779 -274.963 -617.455Z" fill="#E8EDF4"/>
<path fill-rule="evenodd" clip-rule="evenodd" d="M-189.182 -790.224C-173.986 -782.679 -155.557 -788.868 -148.02 -804.048C-140.483 -819.228 -146.692 -837.65 -161.888 -845.195C-177.084 -852.74 -195.513 -846.551 -203.05 -831.371C-210.587 -816.191 -204.378 -797.769 -189.182 -790.224ZM-208.678 -750.958C-171.773 -732.635 -127.017 -747.666 -108.713 -784.532C-90.4085 -821.398 -105.488 -866.137 -142.393 -884.461C-179.298 -902.785 -224.053 -887.753 -242.358 -850.887C-260.662 -814.022 -245.583 -769.282 -208.678 -750.958Z" fill="#E8EDF4"/>
<path fill-rule="evenodd" clip-rule="evenodd" d="M-388.037 -389.715C-372.841 -382.17 -354.412 -388.359 -346.875 -403.54C-339.338 -418.72 -345.547 -437.142 -360.743 -444.687C-375.939 -452.232 -394.368 -446.042 -401.905 -430.862C-409.442 -415.682 -403.233 -397.26 -388.037 -389.715ZM-407.533 -350.45C-370.627 -332.126 -325.872 -347.157 -307.568 -384.023C-289.264 -420.889 -304.343 -465.629 -341.248 -483.952C-378.153 -502.276 -422.908 -487.244 -441.213 -450.379C-459.517 -413.513 -444.438 -368.773 -407.533 -350.45Z" fill="#E8EDF4"/>
<path fill-rule="evenodd" clip-rule="evenodd" d="M-256.542 -990.082C-241.346 -982.537 -222.917 -988.727 -215.38 -1003.91C-207.843 -1019.09 -214.052 -1037.51 -229.248 -1045.05C-244.444 -1052.6 -262.873 -1046.41 -270.41 -1031.23C-277.947 -1016.05 -271.738 -997.627 -256.542 -990.082ZM-276.037 -950.817C-239.132 -932.493 -194.377 -947.524 -176.073 -984.39C-157.768 -1021.26 -172.847 -1066 -209.753 -1084.32C-246.658 -1102.64 -291.413 -1087.61 -309.717 -1050.75C-328.022 -1013.88 -312.943 -969.14 -276.037 -950.817Z" fill="#E8EDF4"/>
<path fill-rule="evenodd" clip-rule="evenodd" d="M-455.397 -589.573C-440.201 -582.028 -421.772 -588.218 -414.235 -603.398C-406.698 -618.578 -412.907 -637 -428.103 -644.545C-443.299 -652.09 -461.728 -645.901 -469.265 -630.721C-476.802 -615.541 -470.593 -597.119 -455.397 -589.573ZM-474.892 -550.308C-437.987 -531.984 -393.232 -547.016 -374.927 -583.882C-356.623 -620.747 -371.702 -665.487 -408.607 -683.811C-445.512 -702.134 -490.268 -687.103 -508.572 -650.237C-526.877 -613.371 -511.797 -568.632 -474.892 -550.308Z" fill="#E8EDF4"/>
<path fill-rule="evenodd" clip-rule="evenodd" d="M210.678 -924.518C225.874 -916.973 244.303 -923.163 251.84 -938.343C259.377 -953.523 253.168 -971.945 237.972 -979.49C222.776 -987.035 204.347 -980.846 196.81 -965.666C189.273 -950.486 195.482 -932.063 210.678 -924.518ZM191.183 -885.253C228.088 -866.929 272.843 -881.961 291.147 -918.826C309.452 -955.692 294.372 -1000.43 257.467 -1018.76C220.562 -1037.08 175.807 -1022.05 157.503 -985.182C139.198 -948.316 154.277 -903.576 191.183 -885.253Z" fill="#E8EDF4"/>
<path fill-rule="evenodd" clip-rule="evenodd" d="M11.8231 -524.01C27.0193 -516.465 45.4482 -522.654 52.9852 -537.834C60.5222 -553.014 54.3131 -571.436 39.1169 -578.981C23.9207 -586.526 5.49191 -580.337 -2.04508 -565.157C-9.58204 -549.977 -3.37305 -531.555 11.8231 -524.01ZM-7.67244 -484.744C29.2326 -466.421 73.9885 -481.452 92.2926 -518.318C110.597 -555.184 95.5175 -599.923 58.6125 -618.247C21.7075 -636.571 -23.0483 -621.539 -41.3524 -584.673C-59.6565 -547.807 -44.5775 -503.068 -7.67244 -484.744Z" fill="#E8EDF4"/>
<path fill-rule="evenodd" clip-rule="evenodd" d="M78.1081 -657.513C93.3043 -649.968 111.733 -656.157 119.27 -671.337C126.807 -686.517 120.598 -704.939 105.402 -712.484C90.2057 -720.029 71.7769 -713.84 64.2399 -698.66C56.7029 -683.48 62.9119 -665.058 78.1081 -657.513ZM58.6125 -618.247C95.5175 -599.923 140.273 -614.955 158.578 -651.821C176.882 -688.686 161.803 -733.426 124.898 -751.75C87.9925 -770.073 43.2367 -755.042 24.9326 -718.176C6.62847 -681.31 21.7075 -636.571 58.6125 -618.247Z" fill="#E8EDF4"/>
<path fill-rule="evenodd" clip-rule="evenodd" d="M-120.747 -257.004C-105.551 -249.459 -87.1218 -255.648 -79.5848 -270.828C-72.0478 -286.008 -78.2568 -304.431 -93.453 -311.976C-108.649 -319.521 -127.078 -313.331 -134.615 -298.151C-142.152 -282.971 -135.943 -264.549 -120.747 -257.004ZM-140.242 -217.738C-103.337 -199.415 -58.5815 -214.446 -40.2774 -251.312C-21.9733 -288.178 -37.0524 -332.918 -73.9574 -351.241C-110.862 -369.565 -155.618 -354.533 -173.922 -317.668C-192.226 -280.802 -177.147 -236.062 -140.242 -217.738Z" fill="#E8EDF4"/>
<path fill-rule="evenodd" clip-rule="evenodd" d="M10.7479 -857.371C25.9441 -849.826 44.373 -856.016 51.9099 -871.196C59.4469 -886.376 53.2379 -904.798 38.0417 -912.343C22.8455 -919.888 4.41664 -913.698 -3.12034 -898.518C-10.6573 -883.338 -4.44829 -864.916 10.7479 -857.371ZM-8.74771 -818.106C28.1573 -799.782 72.9132 -814.813 91.2173 -851.679C109.521 -888.545 94.4423 -933.285 57.5373 -951.608C20.6323 -969.932 -24.1236 -954.901 -42.4277 -918.035C-60.7317 -881.169 -45.6527 -836.429 -8.74771 -818.106Z" fill="#E8EDF4"/>
<path fill-rule="evenodd" clip-rule="evenodd" d="M-188.107 -456.863C-172.911 -449.317 -154.482 -455.507 -146.945 -470.687C-139.408 -485.867 -145.617 -504.289 -160.813 -511.834C-176.009 -519.379 -194.438 -513.19 -201.975 -498.01C-209.512 -482.83 -203.303 -464.407 -188.107 -456.863ZM-207.603 -417.597C-170.698 -399.273 -125.942 -414.305 -107.638 -451.171C-89.3336 -488.036 -104.413 -532.776 -141.318 -551.1C-178.223 -569.423 -222.979 -554.392 -241.283 -517.526C-259.587 -480.66 -244.508 -435.921 -207.603 -417.597Z" fill="#E8EDF4"/>
<path fill-rule="evenodd" clip-rule="evenodd" d="M476.657 -792.458C491.854 -784.913 510.282 -791.102 517.819 -806.282C525.356 -821.462 519.147 -839.885 503.951 -847.43C488.755 -854.975 470.326 -848.785 462.789 -833.605C455.252 -818.425 461.461 -800.003 476.657 -792.458ZM457.162 -753.192C494.067 -734.869 538.823 -749.9 557.127 -786.766C575.431 -823.632 560.352 -868.372 523.447 -886.695C486.542 -905.019 441.786 -889.987 423.482 -853.122C405.178 -816.256 420.257 -771.516 457.162 -753.192Z" fill="#E8EDF4"/>
<path fill-rule="evenodd" clip-rule="evenodd" d="M277.802 -391.949C292.999 -384.404 311.428 -390.594 318.964 -405.774C326.501 -420.954 320.292 -439.376 305.096 -446.921C289.9 -454.466 271.471 -448.277 263.934 -433.097C256.397 -417.917 262.606 -399.494 277.802 -391.949ZM258.307 -352.684C295.212 -334.36 339.968 -349.392 358.272 -386.257C376.576 -423.123 361.497 -467.863 324.592 -486.187C287.687 -504.51 242.931 -489.479 224.627 -452.613C206.323 -415.747 221.402 -371.007 258.307 -352.684Z" fill="#E8EDF4"/>
<path fill-rule="evenodd" clip-rule="evenodd" d="M344.087 -525.452C359.284 -517.907 377.712 -524.097 385.249 -539.277C392.786 -554.457 386.577 -572.879 371.381 -580.424C356.185 -587.969 337.756 -581.78 330.219 -566.6C322.682 -551.419 328.891 -532.997 344.087 -525.452ZM324.592 -486.187C361.497 -467.863 406.253 -482.895 424.557 -519.76C442.861 -556.626 427.782 -601.366 390.877 -619.69C353.972 -638.013 309.216 -622.982 290.912 -586.116C272.608 -549.25 287.687 -504.51 324.592 -486.187Z" fill="#E8EDF4"/>
<path fill-rule="evenodd" clip-rule="evenodd" d="M145.232 -124.944C160.429 -117.399 178.858 -123.588 186.395 -138.768C193.931 -153.948 187.722 -172.37 172.526 -179.915C157.33 -187.46 138.901 -181.271 131.364 -166.091C123.827 -150.911 130.036 -132.489 145.232 -124.944ZM125.737 -85.6781C162.642 -67.3545 207.398 -82.3859 225.702 -119.252C244.006 -156.117 228.927 -200.857 192.022 -219.181C155.117 -237.504 110.361 -222.473 92.0569 -185.607C73.7528 -148.741 88.8319 -104.002 125.737 -85.6781Z" fill="#E8EDF4"/>
<path fill-rule="evenodd" clip-rule="evenodd" d="M276.728 -725.31C291.924 -717.765 310.353 -723.955 317.89 -739.135C325.427 -754.315 319.218 -772.737 304.022 -780.282C288.825 -787.827 270.397 -781.638 262.86 -766.458C255.323 -751.278 261.532 -732.855 276.728 -725.31ZM257.232 -686.045C294.137 -667.721 338.893 -682.753 357.197 -719.619C375.501 -756.484 360.422 -801.224 323.517 -819.548C286.612 -837.871 241.856 -822.84 223.552 -785.974C205.248 -749.108 220.327 -704.368 257.232 -686.045Z" fill="#E8EDF4"/>
<path fill-rule="evenodd" clip-rule="evenodd" d="M77.8729 -324.802C93.0691 -317.257 111.498 -323.446 119.035 -338.626C126.572 -353.806 120.363 -372.229 105.167 -379.774C89.9705 -387.319 71.5417 -381.129 64.0047 -365.949C56.4677 -350.769 62.6767 -332.347 77.8729 -324.802ZM58.3773 -285.536C95.2823 -267.213 140.038 -282.244 158.342 -319.11C176.646 -355.976 161.567 -400.716 124.662 -419.039C87.7573 -437.363 43.0014 -422.331 24.6973 -385.465C6.39322 -348.6 21.4723 -303.86 58.3773 -285.536Z" fill="#E8EDF4"/>
<path fill-rule="evenodd" clip-rule="evenodd" d="M1011.24 -527.036C1026.43 -519.491 1044.86 -525.68 1052.4 -540.86C1059.94 -556.04 1053.73 -574.463 1038.53 -582.008C1023.33 -589.553 1004.91 -583.363 997.369 -568.183C989.832 -553.003 996.041 -534.581 1011.24 -527.036ZM991.742 -487.77C1028.65 -469.447 1073.4 -484.478 1091.71 -521.344C1110.01 -558.21 1094.93 -602.949 1058.03 -621.273C1021.12 -639.597 976.366 -624.565 958.062 -587.699C939.758 -550.834 954.837 -506.094 991.742 -487.77Z" fill="#E8EDF4"/>
<path fill-rule="evenodd" clip-rule="evenodd" d="M812.382 -126.527C827.579 -118.982 846.008 -125.172 853.544 -140.352C861.081 -155.532 854.872 -173.954 839.676 -181.499C824.48 -189.044 806.051 -182.854 798.514 -167.674C790.977 -152.494 797.186 -134.072 812.382 -126.527ZM792.887 -87.2616C829.792 -68.938 874.548 -83.9695 892.852 -120.835C911.156 -157.701 896.077 -202.441 859.172 -220.764C822.267 -239.088 777.511 -224.057 759.207 -187.191C740.903 -150.325 755.982 -105.585 792.887 -87.2616Z" fill="#E8EDF4"/>
<path fill-rule="evenodd" clip-rule="evenodd" d="M878.667 -260.03C893.864 -252.485 912.293 -258.674 919.829 -273.854C927.366 -289.034 921.157 -307.457 905.961 -315.002C890.765 -322.547 872.336 -316.357 864.799 -301.177C857.262 -285.997 863.471 -267.575 878.667 -260.03ZM859.172 -220.764C896.077 -202.441 940.833 -217.472 959.137 -254.338C977.441 -291.204 962.362 -335.944 925.457 -354.267C888.552 -372.591 843.796 -357.559 825.492 -320.694C807.188 -283.828 822.267 -239.088 859.172 -220.764Z" fill="#E8EDF4"/>
<path fill-rule="evenodd" clip-rule="evenodd" d="M679.812 140.479C695.009 148.024 713.438 141.834 720.975 126.654C728.512 111.474 722.302 93.0518 707.106 85.5068C691.91 77.9618 673.481 84.1513 665.944 99.3313C658.407 114.511 664.616 132.934 679.812 140.479ZM660.317 179.744C697.222 198.068 741.978 183.036 760.282 146.17C778.586 109.305 763.507 64.5649 726.602 46.2413C689.697 27.9177 644.941 42.9492 626.637 79.8149C608.333 116.681 623.412 161.421 660.317 179.744Z" fill="#E8EDF4"/>
<path fill-rule="evenodd" clip-rule="evenodd" d="M811.307 -459.888C826.504 -452.343 844.933 -458.533 852.47 -473.713C860.007 -488.893 853.797 -507.315 838.601 -514.86C823.405 -522.405 804.976 -516.216 797.439 -501.036C789.902 -485.856 796.111 -467.433 811.307 -459.888ZM791.812 -420.623C828.717 -402.299 873.473 -417.331 891.777 -454.197C910.081 -491.062 895.002 -535.802 858.097 -554.126C821.192 -572.449 776.436 -557.418 758.132 -520.552C739.828 -483.686 754.907 -438.946 791.812 -420.623Z" fill="#E8EDF4"/>
<path fill-rule="evenodd" clip-rule="evenodd" d="M612.453 -59.3798C627.649 -51.8348 646.078 -58.0242 653.615 -73.2042C661.152 -88.3842 654.943 -106.807 639.746 -114.352C624.55 -121.897 606.121 -115.707 598.584 -100.527C591.047 -85.3471 597.256 -66.9248 612.453 -59.3798ZM592.957 -20.1143C629.862 -1.79069 674.618 -16.8222 692.922 -53.688C711.226 -90.5538 696.147 -135.294 659.242 -153.617C622.337 -171.941 577.581 -156.909 559.277 -120.043C540.973 -83.1777 556.052 -38.4378 592.957 -20.1143Z" fill="#E8EDF4"/>
<path fill-rule="evenodd" clip-rule="evenodd" d="M743.947 -659.747C759.143 -652.202 777.572 -658.391 785.109 -673.571C792.646 -688.751 786.437 -707.174 771.241 -714.719C756.045 -722.264 737.616 -716.074 730.079 -700.894C722.542 -685.714 728.751 -667.292 743.947 -659.747ZM724.452 -620.481C761.357 -602.158 806.112 -617.189 824.416 -654.055C842.721 -690.921 827.642 -735.661 790.737 -753.984C753.832 -772.308 709.076 -757.276 690.772 -720.411C672.467 -683.545 687.547 -638.805 724.452 -620.481Z" fill="#E8EDF4"/>
<path fill-rule="evenodd" clip-rule="evenodd" d="M545.092 -259.238C560.288 -251.693 578.717 -257.883 586.254 -273.063C593.791 -288.243 587.582 -306.665 572.386 -314.21C557.19 -321.755 538.761 -315.566 531.224 -300.386C523.687 -285.206 529.896 -266.783 545.092 -259.238ZM525.597 -219.973C562.502 -201.649 607.257 -216.681 625.562 -253.546C643.866 -290.412 628.787 -335.152 591.882 -353.476C554.977 -371.799 510.221 -356.768 491.917 -319.902C473.613 -283.036 488.692 -238.296 525.597 -219.973Z" fill="#E8EDF4"/>
<path fill-rule="evenodd" clip-rule="evenodd" d="M611.377 -392.741C626.573 -385.196 645.002 -391.386 652.539 -406.566C660.076 -421.746 653.867 -440.168 638.671 -447.713C623.475 -455.258 605.046 -449.069 597.509 -433.889C589.972 -418.708 596.181 -400.286 611.377 -392.741ZM591.882 -353.476C628.787 -335.152 673.542 -350.184 691.847 -387.049C710.151 -423.915 695.072 -468.655 658.167 -486.979C621.262 -505.302 576.506 -490.271 558.202 -453.405C539.898 -416.539 554.977 -371.799 591.882 -353.476Z" fill="#E8EDF4"/>
<path fill-rule="evenodd" clip-rule="evenodd" d="M412.522 7.76748C427.718 15.3125 446.147 9.12305 453.684 -6.05702C461.221 -21.237 455.012 -39.6593 439.816 -47.2043C424.62 -54.7493 406.191 -48.5599 398.654 -33.3799C391.117 -18.1998 397.326 0.222479 412.522 7.76748ZM393.027 47.0329C429.932 65.3565 474.687 50.3251 492.992 13.4593C511.296 -23.4065 496.217 -68.1463 459.312 -86.4699C422.407 -104.793 377.651 -89.762 359.347 -52.8962C341.043 -16.0304 356.122 28.7093 393.027 47.0329Z" fill="#E8EDF4"/>
<path fill-rule="evenodd" clip-rule="evenodd" d="M544.018 -592.599C559.214 -585.054 577.643 -591.244 585.18 -606.424C592.717 -621.604 586.508 -640.026 571.311 -647.571C556.115 -655.116 537.686 -648.927 530.149 -633.747C522.612 -618.567 528.821 -600.144 544.018 -592.599ZM524.522 -553.334C561.427 -535.01 606.183 -550.042 624.487 -586.908C642.791 -623.773 627.712 -668.513 590.807 -686.837C553.902 -705.16 509.146 -690.129 490.842 -653.263C472.538 -616.397 487.617 -571.657 524.522 -553.334Z" fill="#E8EDF4"/>
<path fill-rule="evenodd" clip-rule="evenodd" d="M345.163 -192.091C360.359 -184.546 378.788 -190.735 386.325 -205.915C393.862 -221.095 387.653 -239.518 372.457 -247.063C357.26 -254.608 338.831 -248.418 331.294 -233.238C323.758 -218.058 329.967 -199.636 345.163 -192.091ZM325.667 -152.825C362.572 -134.502 407.328 -149.533 425.632 -186.399C443.936 -223.265 428.857 -268.005 391.952 -286.328C355.047 -304.652 310.291 -289.62 291.987 -252.754C273.683 -215.889 288.762 -171.149 325.667 -152.825Z" fill="#E8EDF4"/>
<path fill-rule="evenodd" clip-rule="evenodd" d="M1278.53 -394.325C1293.72 -386.78 1312.15 -392.969 1319.69 -408.149C1327.23 -423.329 1321.02 -441.752 1305.82 -449.297C1290.62 -456.841 1272.2 -450.652 1264.66 -435.472C1257.12 -420.292 1263.33 -401.87 1278.53 -394.325ZM1259.03 -355.059C1295.94 -336.736 1340.69 -351.767 1359 -388.633C1377.3 -425.499 1362.22 -470.238 1325.32 -488.562C1288.41 -506.886 1243.66 -491.854 1225.35 -454.988C1207.05 -418.123 1222.13 -373.383 1259.03 -355.059Z" fill="#E8EDF4"/>
<path fill-rule="evenodd" clip-rule="evenodd" d="M1079.67 6.18384C1094.87 13.7288 1113.3 7.53941 1120.83 -7.64061C1128.37 -22.8206 1122.16 -41.2429 1106.97 -48.7879C1091.77 -56.3328 1073.34 -50.1436 1065.8 -34.9635C1058.27 -19.7835 1064.48 -1.3611 1079.67 6.18384ZM1060.18 45.4494C1097.08 63.773 1141.84 48.7416 1160.14 11.8757C1178.45 -24.9901 1163.37 -69.7299 1126.46 -88.0534C1089.56 -106.377 1044.8 -91.3456 1026.5 -54.4798C1008.19 -17.6139 1023.27 27.1259 1060.18 45.4494Z" fill="#E8EDF4"/>
<path fill-rule="evenodd" clip-rule="evenodd" d="M1145.96 -127.319C1161.15 -119.774 1179.58 -125.963 1187.12 -141.144C1194.66 -156.324 1188.45 -174.746 1173.25 -182.291C1158.05 -189.836 1139.63 -183.646 1132.09 -168.466C1124.55 -153.286 1130.76 -134.864 1145.96 -127.319ZM1126.46 -88.0534C1163.37 -69.7299 1208.12 -84.7613 1226.43 -121.627C1244.73 -158.493 1229.65 -203.233 1192.75 -221.556C1155.84 -239.88 1111.09 -224.848 1092.78 -187.983C1074.48 -151.117 1089.56 -106.377 1126.46 -88.0534Z" fill="#E8EDF4"/>
<path fill-rule="evenodd" clip-rule="evenodd" d="M947.102 273.19C962.298 280.735 980.727 274.545 988.264 259.365C995.801 244.185 989.592 225.763 974.396 218.218C959.2 210.673 940.771 216.862 933.234 232.042C925.697 247.222 931.906 265.645 947.102 273.19ZM927.607 312.455C964.512 330.779 1009.27 315.747 1027.57 278.881C1045.88 242.016 1030.8 197.276 993.892 178.952C956.987 160.629 912.231 175.66 893.927 212.526C875.623 249.392 890.702 294.132 927.607 312.455Z" fill="#E8EDF4"/>
<path fill-rule="evenodd" clip-rule="evenodd" d="M1078.6 -327.177C1093.79 -319.632 1112.22 -325.822 1119.76 -341.002C1127.3 -356.182 1121.09 -374.604 1105.89 -382.149C1090.69 -389.694 1072.27 -383.505 1064.73 -368.325C1057.19 -353.145 1063.4 -334.722 1078.6 -327.177ZM1059.1 -287.912C1096.01 -269.588 1140.76 -284.62 1159.07 -321.486C1177.37 -358.351 1162.29 -403.091 1125.39 -421.415C1088.48 -439.738 1043.73 -424.707 1025.42 -387.841C1007.12 -350.975 1022.2 -306.235 1059.1 -287.912Z" fill="#E8EDF4"/>
<path fill-rule="evenodd" clip-rule="evenodd" d="M879.742 73.3312C894.939 80.8762 913.367 74.6868 920.904 59.5068C928.441 44.3268 922.232 25.9044 907.036 18.3594C891.84 10.8144 873.411 17.0038 865.874 32.1839C858.337 47.3639 864.546 65.7862 879.742 73.3312ZM860.247 112.597C897.152 130.92 941.908 115.889 960.212 79.0231C978.516 42.1573 963.437 -2.58256 926.532 -20.9061C889.627 -39.2297 844.871 -24.1983 826.567 12.6675C808.263 49.5333 823.342 94.2732 860.247 112.597Z" fill="#E8EDF4"/>
<path fill-rule="evenodd" clip-rule="evenodd" d="M67.9349 -972.55C93.2619 -959.975 123.977 -970.291 136.538 -995.591C149.1 -1020.89 138.752 -1051.59 113.425 -1064.17C88.0976 -1076.74 57.3828 -1066.43 44.8212 -1041.13C32.2596 -1015.83 42.6079 -985.125 67.9349 -972.55ZM57.5373 -951.608C94.4423 -933.285 139.198 -948.316 157.503 -985.182C175.807 -1022.05 160.727 -1066.79 123.822 -1085.11C86.9172 -1103.43 42.1614 -1088.4 23.8573 -1051.54C5.55323 -1014.67 20.6323 -969.932 57.5373 -951.608Z" fill="#E8EDF4"/>
<path fill-rule="evenodd" clip-rule="evenodd" d="M-130.92 -572.041C-105.593 -559.466 -74.8783 -569.782 -62.3166 -595.082C-49.755 -620.382 -60.1034 -651.086 -85.4304 -663.661C-110.757 -676.236 -141.472 -665.92 -154.034 -640.62C-166.595 -615.32 -156.247 -584.616 -130.92 -572.041ZM-141.318 -551.1C-104.413 -532.776 -59.6565 -547.807 -41.3524 -584.673C-23.0483 -621.539 -38.1277 -666.279 -75.0327 -684.603C-111.938 -702.926 -156.694 -687.895 -174.998 -651.029C-193.302 -614.163 -178.223 -569.423 -141.318 -551.1Z" fill="#E8EDF4"/>
<path fill-rule="evenodd" clip-rule="evenodd" d="M-64.6351 -705.544C-39.3081 -692.969 -8.59328 -703.285 3.96836 -728.585C16.53 -753.885 6.18163 -784.589 -19.1454 -797.164C-44.4723 -809.739 -75.1871 -799.423 -87.7487 -774.123C-100.31 -748.823 -89.962 -718.119 -64.6351 -705.544ZM-75.0327 -684.603C-38.1277 -666.279 6.62847 -681.31 24.9326 -718.176C43.2367 -755.042 28.1573 -799.782 -8.74771 -818.106C-45.6527 -836.429 -90.4085 -821.398 -108.713 -784.532C-127.017 -747.666 -111.938 -702.926 -75.0327 -684.603Z" fill="#E8EDF4"/>
<path fill-rule="evenodd" clip-rule="evenodd" d="M-263.49 -305.036C-238.163 -292.461 -207.448 -302.776 -194.887 -328.076C-182.325 -353.376 -192.673 -384.08 -218 -396.655C-243.327 -409.23 -274.042 -398.915 -286.604 -373.614C-299.165 -348.314 -288.817 -317.611 -263.49 -305.036ZM-273.888 -284.094C-236.983 -265.77 -192.226 -280.802 -173.922 -317.668C-155.618 -354.533 -170.698 -399.273 -207.603 -417.597C-244.508 -435.921 -289.264 -420.889 -307.568 -384.023C-325.872 -347.157 -310.793 -302.418 -273.888 -284.094Z" fill="#E8EDF4"/>
<path fill-rule="evenodd" clip-rule="evenodd" d="M-131.995 -905.403C-106.668 -892.828 -75.9532 -903.143 -63.3915 -928.443C-50.8299 -953.743 -61.1783 -984.447 -86.5053 -997.022C-111.832 -1009.6 -142.547 -999.282 -155.109 -973.982C-167.67 -948.681 -157.322 -917.978 -131.995 -905.403ZM-142.393 -884.461C-105.488 -866.137 -60.7317 -881.169 -42.4277 -918.035C-24.1236 -954.901 -39.2026 -999.64 -76.1076 -1017.96C-113.013 -1036.29 -157.768 -1021.26 -176.073 -984.39C-194.377 -947.524 -179.298 -902.785 -142.393 -884.461Z" fill="#E8EDF4"/>
<path fill-rule="evenodd" clip-rule="evenodd" d="M-330.85 -504.894C-305.523 -492.319 -274.808 -502.635 -262.246 -527.935C-249.685 -553.235 -260.033 -583.939 -285.36 -596.514C-310.687 -609.089 -341.402 -598.773 -353.964 -573.473C-366.525 -548.173 -356.177 -517.469 -330.85 -504.894ZM-341.248 -483.952C-304.343 -465.629 -259.587 -480.66 -241.283 -517.526C-222.979 -554.392 -238.058 -599.132 -274.963 -617.455C-311.868 -635.779 -356.623 -620.747 -374.927 -583.882C-393.232 -547.016 -378.153 -502.276 -341.248 -483.952Z" fill="#E8EDF4"/>
<path fill-rule="evenodd" clip-rule="evenodd" d="M334.57 -840.164C359.34 -827.865 389.859 -838.035 402.518 -863.53C415.176 -889.025 404.83 -919.485 380.059 -931.784C355.288 -944.083 324.769 -933.913 312.111 -908.418C299.453 -882.923 309.799 -852.463 334.57 -840.164ZM324.172 -819.223C360.715 -801.079 405.178 -816.256 423.482 -853.122C441.786 -889.987 427 -934.582 390.457 -952.726C353.914 -970.869 309.452 -955.692 291.147 -918.826C272.843 -881.961 287.629 -837.367 324.172 -819.223Z" fill="#E8EDF4"/>
<path fill-rule="evenodd" clip-rule="evenodd" d="M135.715 -439.656C160.486 -427.357 191.004 -437.527 203.663 -463.022C216.321 -488.517 205.975 -518.976 181.204 -531.275C156.433 -543.574 125.915 -533.404 113.256 -507.909C100.598 -482.414 110.944 -451.955 135.715 -439.656ZM125.317 -418.714C161.86 -400.57 206.323 -415.747 224.627 -452.613C242.931 -489.479 228.145 -534.073 191.602 -552.217C155.059 -570.361 110.597 -555.184 92.2926 -518.318C73.9885 -481.452 88.7738 -436.858 125.317 -418.714Z" fill="#E8EDF4"/>
<path fill-rule="evenodd" clip-rule="evenodd" d="M202 -573.159C226.771 -560.86 257.289 -571.03 269.948 -596.525C282.606 -622.02 272.26 -652.479 247.489 -664.778C222.718 -677.077 192.2 -666.907 179.541 -641.412C166.883 -615.917 177.229 -585.457 202 -573.159ZM191.602 -552.217C228.145 -534.073 272.608 -549.25 290.912 -586.116C309.216 -622.982 294.43 -667.576 257.887 -685.72C221.344 -703.864 176.882 -688.686 158.578 -651.821C140.273 -614.955 155.059 -570.361 191.602 -552.217Z" fill="#E8EDF4"/>
<path fill-rule="evenodd" clip-rule="evenodd" d="M3.14469 -172.65C27.9156 -160.351 58.4345 -170.521 71.093 -196.016C83.7514 -221.511 73.4053 -251.971 48.6344 -264.27C23.8635 -276.568 -6.65544 -266.399 -19.3139 -240.903C-31.9724 -215.408 -21.6262 -184.949 3.14469 -172.65ZM-7.25295 -151.708C29.2903 -133.564 73.7528 -148.741 92.0569 -185.607C110.361 -222.473 95.5752 -267.067 59.032 -285.211C22.4888 -303.355 -21.9733 -288.178 -40.2774 -251.312C-58.5815 -214.446 -43.7962 -169.852 -7.25295 -151.708Z" fill="#E8EDF4"/>
<path fill-rule="evenodd" clip-rule="evenodd" d="M134.64 -773.017C159.411 -760.718 189.93 -770.888 202.588 -796.383C215.247 -821.878 204.901 -852.337 180.13 -864.636C155.359 -876.935 124.84 -866.765 112.181 -841.27C99.523 -815.775 109.869 -785.316 134.64 -773.017ZM124.242 -752.075C160.786 -733.931 205.248 -749.108 223.552 -785.974C241.856 -822.84 227.071 -867.434 190.527 -885.578C153.984 -903.722 109.521 -888.545 91.2173 -851.679C72.9132 -814.813 87.6992 -770.219 124.242 -752.075Z" fill="#E8EDF4"/>
<path fill-rule="evenodd" clip-rule="evenodd" d="M-64.2149 -372.508C-39.4439 -360.209 -8.92503 -370.379 3.73341 -395.874C16.3919 -421.369 6.04575 -451.829 -18.7252 -464.128C-43.4961 -476.427 -74.015 -466.257 -86.6735 -440.762C-99.3319 -415.267 -88.9858 -384.807 -64.2149 -372.508ZM-74.6125 -351.567C-38.0693 -333.423 6.39322 -348.6 24.6973 -385.465C43.0014 -422.331 28.2157 -466.925 -8.32755 -485.069C-44.8707 -503.213 -89.3336 -488.036 -107.638 -451.171C-125.942 -414.305 -111.156 -369.71 -74.6125 -351.567Z" fill="#E8EDF4"/>
<path fill-rule="evenodd" clip-rule="evenodd" d="M601.205 -707.778C626.532 -695.203 657.246 -705.519 669.808 -730.819C682.37 -756.119 672.021 -786.823 646.694 -799.398C621.367 -811.973 590.653 -801.657 578.091 -776.357C565.529 -751.057 575.878 -720.353 601.205 -707.778ZM590.807 -686.837C627.712 -668.513 672.467 -683.545 690.772 -720.411C709.076 -757.276 693.997 -802.016 657.092 -820.34C620.187 -838.663 575.431 -823.632 557.127 -786.766C538.823 -749.9 553.902 -705.16 590.807 -686.837Z" fill="#E8EDF4"/>
<path fill-rule="evenodd" clip-rule="evenodd" d="M402.35 -307.27C427.677 -294.695 458.391 -305.01 470.953 -330.31C483.515 -355.611 473.166 -386.314 447.839 -398.889C422.512 -411.464 391.798 -401.149 379.236 -375.849C366.674 -350.549 377.023 -319.845 402.35 -307.27ZM391.952 -286.328C428.857 -268.005 473.613 -283.036 491.917 -319.902C510.221 -356.768 495.142 -401.507 458.237 -419.831C421.332 -438.154 376.576 -423.123 358.272 -386.257C339.968 -349.392 355.047 -304.652 391.952 -286.328Z" fill="#E8EDF4"/>
<path fill-rule="evenodd" clip-rule="evenodd" d="M468.635 -440.773C493.962 -428.198 524.676 -438.513 537.238 -463.813C549.8 -489.113 539.451 -519.817 514.124 -532.392C488.797 -544.967 458.083 -534.652 445.521 -509.351C432.959 -484.051 443.308 -453.348 468.635 -440.773ZM458.237 -419.831C495.142 -401.507 539.898 -416.539 558.202 -453.405C576.506 -490.271 561.427 -535.01 524.522 -553.334C487.617 -571.657 442.861 -556.626 424.557 -519.76C406.253 -482.895 421.332 -438.154 458.237 -419.831Z" fill="#E8EDF4"/>
<path fill-rule="evenodd" clip-rule="evenodd" d="M269.78 -40.264C295.107 -27.689 325.821 -38.0046 338.383 -63.3047C350.945 -88.6048 340.596 -119.309 315.269 -131.884C289.943 -144.459 259.228 -134.143 246.666 -108.843C234.104 -83.5428 244.453 -52.839 269.78 -40.264ZM259.382 -19.3224C296.287 -0.998816 341.043 -16.0304 359.347 -52.8962C377.651 -89.762 362.572 -134.502 325.667 -152.825C288.762 -171.149 244.006 -156.117 225.702 -119.252C207.398 -82.3859 222.477 -37.646 259.382 -19.3224Z" fill="#E8EDF4"/>
<path fill-rule="evenodd" clip-rule="evenodd" d="M401.274 -640.631C426.601 -628.056 457.316 -638.372 469.878 -663.672C482.439 -688.972 472.091 -719.676 446.764 -732.251C421.437 -744.826 390.722 -734.51 378.161 -709.21C365.599 -683.91 375.948 -653.206 401.274 -640.631ZM390.877 -619.69C427.782 -601.366 472.538 -616.397 490.842 -653.263C509.146 -690.129 494.067 -734.869 457.162 -753.192C420.257 -771.516 375.501 -756.484 357.197 -719.619C338.893 -682.753 353.972 -638.013 390.877 -619.69Z" fill="#E8EDF4"/>
<path fill-rule="evenodd" clip-rule="evenodd" d="M202.42 -240.123C227.747 -227.548 258.461 -237.863 271.023 -263.163C283.585 -288.463 273.236 -319.167 247.909 -331.742C222.582 -344.317 191.867 -334.001 179.306 -308.701C166.744 -283.401 177.093 -252.698 202.42 -240.123ZM192.022 -219.181C228.927 -200.857 273.683 -215.889 291.987 -252.754C310.291 -289.62 295.212 -334.36 258.307 -352.684C221.402 -371.007 176.646 -355.976 158.342 -319.11C140.038 -282.244 155.117 -237.504 192.022 -219.181Z" fill="#E8EDF4"/>
<path fill-rule="evenodd" clip-rule="evenodd" d="M1135.78 -442.356C1161.11 -429.781 1191.83 -440.097 1204.39 -465.397C1216.95 -490.697 1206.6 -521.401 1181.27 -533.976C1155.95 -546.551 1125.23 -536.235 1112.67 -510.935C1100.11 -485.635 1110.46 -454.931 1135.78 -442.356ZM1125.39 -421.415C1162.29 -403.091 1207.05 -418.123 1225.35 -454.988C1243.66 -491.854 1228.58 -536.594 1191.67 -554.918C1154.77 -573.241 1110.01 -558.21 1091.71 -521.344C1073.4 -484.478 1088.48 -439.738 1125.39 -421.415Z" fill="#E8EDF4"/>
<path fill-rule="evenodd" clip-rule="evenodd" d="M936.929 -41.8477C962.256 -29.2727 992.971 -39.5884 1005.53 -64.8884C1018.09 -90.1885 1007.75 -120.892 982.419 -133.467C957.092 -146.042 926.377 -135.727 913.816 -110.427C901.254 -85.1265 911.602 -54.4227 936.929 -41.8477ZM926.532 -20.9061C963.437 -2.58256 1008.19 -17.6139 1026.5 -54.4798C1044.8 -91.3456 1029.72 -136.085 992.817 -154.409C955.912 -172.732 911.156 -157.701 892.852 -120.835C874.548 -83.9695 889.627 -39.2297 926.532 -20.9061Z" fill="#E8EDF4"/>
<path fill-rule="evenodd" clip-rule="evenodd" d="M1003.21 -175.351C1028.54 -162.776 1059.26 -173.091 1071.82 -198.391C1084.38 -223.691 1074.03 -254.395 1048.7 -266.97C1023.38 -279.545 992.662 -269.23 980.101 -243.929C967.539 -218.629 977.887 -187.926 1003.21 -175.351ZM992.817 -154.409C1029.72 -136.085 1074.48 -151.117 1092.78 -187.983C1111.09 -224.848 1096.01 -269.588 1059.1 -287.912C1022.2 -306.235 977.441 -291.204 959.137 -254.338C940.833 -217.472 955.912 -172.732 992.817 -154.409Z" fill="#E8EDF4"/>
<path fill-rule="evenodd" clip-rule="evenodd" d="M804.359 225.158C829.686 237.733 860.401 227.417 872.963 202.117C885.524 176.817 875.176 146.113 849.849 133.538C824.522 120.963 793.807 131.279 781.246 156.579C768.684 181.879 779.032 212.583 804.359 225.158ZM793.962 246.1C830.867 264.423 875.623 249.392 893.927 212.526C912.231 175.66 897.152 130.92 860.247 112.597C823.342 94.2732 778.586 109.305 760.282 146.17C741.978 183.036 757.057 227.776 793.962 246.1Z" fill="#E8EDF4"/>
<path fill-rule="evenodd" clip-rule="evenodd" d="M935.854 -375.209C961.181 -362.634 991.896 -372.95 1004.46 -398.25C1017.02 -423.55 1006.67 -454.254 981.344 -466.829C956.017 -479.404 925.302 -469.088 912.741 -443.788C900.179 -418.488 910.527 -387.784 935.854 -375.209ZM925.457 -354.267C962.362 -335.944 1007.12 -350.975 1025.42 -387.841C1043.73 -424.707 1028.65 -469.447 991.742 -487.77C954.837 -506.094 910.081 -491.062 891.777 -454.197C873.473 -417.331 888.552 -372.591 925.457 -354.267Z" fill="#E8EDF4"/>
<path fill-rule="evenodd" clip-rule="evenodd" d="M736.999 25.2996C762.326 37.8746 793.041 27.5589 805.603 2.25883C818.164 -23.0412 807.816 -53.745 782.489 -66.32C757.162 -78.895 726.447 -68.5793 713.886 -43.2793C701.324 -17.9792 711.672 12.7246 736.999 25.2996ZM726.602 46.2413C763.507 64.5649 808.263 49.5333 826.567 12.6675C844.871 -24.1983 829.792 -68.938 792.887 -87.2616C755.982 -105.585 711.226 -90.5538 692.922 -53.688C674.618 -16.8222 689.697 27.9177 726.602 46.2413Z" fill="#E8EDF4"/>
<path fill-rule="evenodd" clip-rule="evenodd" d="M868.494 -575.067C893.821 -562.492 924.536 -572.808 937.098 -598.108C949.659 -623.408 939.311 -654.112 913.984 -666.687C888.657 -679.262 857.942 -668.946 845.381 -643.646C832.819 -618.346 843.167 -587.642 868.494 -575.067ZM858.097 -554.126C895.002 -535.802 939.758 -550.834 958.062 -587.699C976.366 -624.565 961.287 -669.305 924.382 -687.629C887.477 -705.952 842.721 -690.921 824.416 -654.055C806.112 -617.189 821.192 -572.449 858.097 -554.126Z" fill="#E8EDF4"/>
<path fill-rule="evenodd" clip-rule="evenodd" d="M669.64 -174.559C694.967 -161.984 725.681 -172.299 738.243 -197.599C750.805 -222.9 740.456 -253.603 715.129 -266.178C689.802 -278.753 659.087 -268.438 646.526 -243.138C633.964 -217.838 644.313 -187.134 669.64 -174.559ZM659.242 -153.617C696.147 -135.294 740.903 -150.325 759.207 -187.191C777.511 -224.057 762.432 -268.796 725.527 -287.12C688.622 -305.443 643.866 -290.412 625.562 -253.546C607.257 -216.681 622.337 -171.941 659.242 -153.617Z" fill="#E8EDF4"/>
<path fill-rule="evenodd" clip-rule="evenodd" d="M735.925 -308.062C761.252 -295.487 791.966 -305.802 804.528 -331.102C817.09 -356.402 806.741 -387.106 781.414 -399.681C756.087 -412.256 725.372 -401.941 712.811 -376.64C700.249 -351.34 710.598 -320.637 735.925 -308.062ZM725.527 -287.12C762.432 -268.796 807.188 -283.828 825.492 -320.694C843.796 -357.559 828.717 -402.299 791.812 -420.623C754.907 -438.946 710.151 -423.915 691.847 -387.049C673.542 -350.184 688.622 -305.443 725.527 -287.12Z" fill="#E8EDF4"/>
<path fill-rule="evenodd" clip-rule="evenodd" d="M537.07 92.447C562.397 105.022 593.111 94.7064 605.673 69.4063C618.235 44.1062 607.886 13.4024 582.559 0.827385C557.232 -11.7476 526.517 -1.43187 513.956 23.8682C501.394 49.1683 511.743 79.872 537.07 92.447ZM526.672 113.389C563.577 131.712 608.333 116.681 626.637 79.8149C644.941 42.9492 629.862 -1.79069 592.957 -20.1143C556.052 -38.4378 511.296 -23.4065 492.992 13.4593C474.687 50.3251 489.767 95.0651 526.672 113.389Z" fill="#E8EDF4"/>
<path fill-rule="evenodd" clip-rule="evenodd" d="M668.564 -507.92C693.891 -495.345 724.606 -505.661 737.168 -530.961C749.729 -556.261 739.381 -586.965 714.054 -599.54C688.727 -612.115 658.012 -601.799 645.451 -576.499C632.889 -551.199 643.237 -520.495 668.564 -507.92ZM658.167 -486.979C695.072 -468.655 739.828 -483.686 758.132 -520.552C776.436 -557.418 761.357 -602.158 724.452 -620.481C687.547 -638.805 642.791 -623.773 624.487 -586.908C606.183 -550.042 621.262 -505.302 658.167 -486.979Z" fill="#E8EDF4"/>
<path fill-rule="evenodd" clip-rule="evenodd" d="M469.709 -107.412C495.036 -94.8365 525.751 -105.152 538.313 -130.452C550.874 -155.752 540.526 -186.456 515.199 -199.031C489.872 -211.606 459.157 -201.29 446.596 -175.99C434.034 -150.69 444.382 -119.987 469.709 -107.412ZM459.312 -86.4699C496.217 -68.1463 540.973 -83.1777 559.277 -120.043C577.581 -156.909 562.502 -201.649 525.597 -219.973C488.692 -238.296 443.936 -223.265 425.632 -186.399C407.328 -149.533 422.407 -104.793 459.312 -86.4699Z" fill="#E8EDF4"/>
<path fill-rule="evenodd" clip-rule="evenodd" d="M1403.07 -309.645C1428.4 -297.07 1459.12 -307.386 1471.68 -332.686C1484.24 -357.986 1473.89 -388.69 1448.56 -401.265C1423.24 -413.84 1392.52 -403.524 1379.96 -378.224C1367.4 -352.924 1377.75 -322.22 1403.07 -309.645ZM1392.68 -288.704C1429.58 -270.38 1474.34 -285.412 1492.64 -322.277C1510.95 -359.143 1495.87 -403.883 1458.96 -422.207C1422.06 -440.53 1377.3 -425.499 1359 -388.633C1340.69 -351.767 1355.77 -307.027 1392.68 -288.704Z" fill="#E8EDF4"/>
<path fill-rule="evenodd" clip-rule="evenodd" d="M1204.22 90.8634C1229.55 103.438 1260.26 93.1226 1272.82 67.8226C1285.38 42.5225 1275.04 11.8187 1249.71 -0.756279C1224.38 -13.3313 1193.67 -3.01553 1181.11 22.2845C1168.54 47.5846 1178.89 78.2883 1204.22 90.8634ZM1193.82 111.805C1230.73 130.129 1275.48 115.097 1293.79 78.2313C1312.09 41.3655 1297.01 -3.3743 1260.11 -21.6979C1223.2 -40.0214 1178.45 -24.9901 1160.14 11.8757C1141.84 48.7416 1156.92 93.4814 1193.82 111.805Z" fill="#E8EDF4"/>
<path fill-rule="evenodd" clip-rule="evenodd" d="M1270.5 -42.6395C1295.83 -30.0645 1326.55 -40.3803 1339.11 -65.6803C1351.67 -90.9804 1341.32 -121.684 1315.99 -134.259C1290.67 -146.834 1259.95 -136.518 1247.39 -111.218C1234.83 -85.9183 1245.18 -55.2146 1270.5 -42.6395ZM1260.11 -21.6979C1297.01 -3.3743 1341.77 -18.4058 1360.07 -55.2716C1378.38 -92.1374 1363.3 -136.877 1326.39 -155.201C1289.49 -173.524 1244.73 -158.493 1226.43 -121.627C1208.12 -84.7613 1223.2 -40.0214 1260.11 -21.6979Z" fill="#E8EDF4"/>
<path fill-rule="evenodd" clip-rule="evenodd" d="M1071.65 357.869C1096.98 370.444 1127.69 360.128 1140.25 334.828C1152.81 309.528 1142.47 278.824 1117.14 266.249C1091.81 253.674 1061.1 263.99 1048.54 289.29C1035.97 314.59 1046.32 345.294 1071.65 357.869ZM1061.25 378.811C1098.16 397.134 1142.91 382.103 1161.22 345.237C1179.52 308.371 1164.44 263.631 1127.54 245.308C1090.63 226.984 1045.88 242.016 1027.57 278.881C1009.27 315.747 1024.35 360.487 1061.25 378.811Z" fill="#E8EDF4"/>
<path fill-rule="evenodd" clip-rule="evenodd" d="M1203.14 -242.498C1228.47 -229.923 1259.19 -240.239 1271.75 -265.539C1284.31 -290.839 1273.96 -321.543 1248.63 -334.118C1223.31 -346.693 1192.59 -336.377 1180.03 -311.077C1167.47 -285.777 1177.82 -255.073 1203.14 -242.498ZM1192.75 -221.556C1229.65 -203.233 1274.41 -218.264 1292.71 -255.13C1311.02 -291.996 1295.94 -336.736 1259.03 -355.059C1222.13 -373.383 1177.37 -358.351 1159.07 -321.486C1140.76 -284.62 1155.84 -239.88 1192.75 -221.556Z" fill="#E8EDF4"/>
<path fill-rule="evenodd" clip-rule="evenodd" d="M1004.29 158.011C1029.62 170.586 1060.33 160.27 1072.89 134.97C1085.45 109.67 1075.11 78.966 1049.78 66.391C1024.45 53.8161 993.737 64.1318 981.176 89.4318C968.614 114.732 978.962 145.436 1004.29 158.011ZM993.892 178.952C1030.8 197.276 1075.55 182.244 1093.86 145.379C1112.16 108.513 1097.08 63.773 1060.18 45.4494C1023.27 27.1259 978.516 42.1573 960.212 79.0231C941.908 115.889 956.987 160.629 993.892 178.952Z" fill="#E8EDF4"/>
</svg>
