<svg width="375" height="220" viewBox="0 0 375 220" fill="none" xmlns="http://www.w3.org/2000/svg">
<path fill-rule="evenodd" clip-rule="evenodd" d="M208.953 207.806C202.721 210.9 195.163 208.362 192.072 202.136C188.981 195.911 191.527 188.356 197.759 185.261C203.991 182.167 211.549 184.705 214.64 190.931C217.731 197.156 215.185 204.711 208.953 207.806ZM216.948 223.909C201.813 231.423 183.458 225.259 175.952 210.14C168.445 195.021 174.629 176.673 189.764 169.158C204.899 161.644 223.254 167.808 230.76 182.927C238.267 198.046 232.083 216.394 216.948 223.909Z" fill="#DEE6F1"/>
<path fill-rule="evenodd" clip-rule="evenodd" d="M290.505 372.057C284.273 375.152 276.715 372.613 273.624 366.388C270.533 360.162 273.079 352.607 279.311 349.513C285.543 346.419 293.101 348.957 296.192 355.182C299.283 361.408 296.737 368.963 290.505 372.057ZM298.5 388.16C283.365 395.675 265.01 389.511 257.504 374.392C249.997 359.273 256.181 340.925 271.316 333.41C286.451 325.895 304.806 332.06 312.312 347.179C319.819 362.298 313.635 380.646 298.5 388.16Z" fill="#DEE6F1"/>
<path fill-rule="evenodd" clip-rule="evenodd" d="M263.321 317.307C257.089 320.401 249.531 317.863 246.44 311.637C243.349 305.412 245.895 297.857 252.127 294.762C258.359 291.668 265.917 294.206 269.008 300.432C272.099 306.657 269.553 314.213 263.321 317.307ZM271.316 333.41C256.181 340.925 237.826 334.76 230.32 319.641C222.813 304.522 228.997 286.174 244.132 278.659C259.267 271.145 277.622 277.309 285.128 292.428C292.635 307.547 286.451 325.895 271.316 333.41Z" fill="#DEE6F1"/>
<path fill-rule="evenodd" clip-rule="evenodd" d="M344.873 481.558C338.641 484.653 331.083 482.114 327.992 475.889C324.901 469.663 327.447 462.108 333.679 459.014C339.911 455.92 347.469 458.458 350.56 464.684C353.651 470.909 351.105 478.464 344.873 481.558ZM352.868 497.661C337.733 505.176 319.378 499.012 311.872 483.893C304.365 468.774 310.549 450.426 325.684 442.911C340.819 435.396 359.174 441.561 366.68 456.68C374.187 471.799 368.003 490.147 352.868 497.661Z" fill="#DEE6F1"/>
<path fill-rule="evenodd" clip-rule="evenodd" d="M290.946 235.343C284.713 238.438 277.156 235.899 274.065 229.674C270.974 223.448 273.52 215.893 279.752 212.799C285.984 209.705 293.542 212.243 296.633 218.469C299.724 224.694 297.178 232.249 290.946 235.343ZM298.941 251.446C283.806 258.961 265.451 252.797 257.944 237.678C250.438 222.559 256.622 204.211 271.757 196.696C286.892 189.181 305.247 195.346 312.753 210.465C320.26 225.584 314.076 243.932 298.941 251.446Z" fill="#DEE6F1"/>
<path fill-rule="evenodd" clip-rule="evenodd" d="M372.497 399.595C366.265 402.689 358.708 400.151 355.617 393.925C352.526 387.7 355.072 380.145 361.304 377.051C367.536 373.956 375.094 376.495 378.185 382.72C381.276 388.946 378.729 396.501 372.497 399.595ZM380.493 415.698C365.358 423.213 347.003 417.048 339.496 401.929C331.99 386.81 338.174 368.462 353.309 360.948C368.444 353.433 386.798 359.597 394.305 374.716C401.812 389.835 395.628 408.183 380.493 415.698Z" fill="#DEE6F1"/>
<path fill-rule="evenodd" clip-rule="evenodd" d="M99.3351 262.232C93.1031 265.326 85.5453 262.787 82.4543 256.562C79.3633 250.337 81.9097 242.781 88.1417 239.687C94.3738 236.593 101.932 239.131 105.023 245.357C108.114 251.582 105.567 259.137 99.3351 262.232ZM107.33 278.335C92.1954 285.849 73.8406 279.685 66.334 264.566C58.8274 249.447 65.0114 231.099 80.1464 223.584C95.2815 216.069 113.636 222.234 121.143 237.353C128.649 252.472 122.465 270.82 107.33 278.335Z" fill="#DEE6F1"/>
<path fill-rule="evenodd" clip-rule="evenodd" d="M180.887 426.483C174.655 429.577 167.097 427.039 164.006 420.814C160.915 414.588 163.462 407.033 169.694 403.939C175.926 400.845 183.484 403.383 186.575 409.608C189.665 415.834 187.119 423.389 180.887 426.483ZM188.882 442.586C173.747 450.101 155.393 443.936 147.886 428.817C140.379 413.698 146.563 395.35 161.698 387.836C176.833 380.321 195.188 386.486 202.695 401.604C210.201 416.723 204.017 435.072 188.882 442.586Z" fill="#DEE6F1"/>
<path fill-rule="evenodd" clip-rule="evenodd" d="M153.703 371.733C147.471 374.827 139.913 372.289 136.822 366.063C133.731 359.838 136.278 352.283 142.51 349.188C148.742 346.094 156.3 348.632 159.391 354.858C162.482 361.083 159.935 368.638 153.703 371.733ZM161.698 387.836C146.563 395.35 128.209 389.186 120.702 374.067C113.195 358.948 119.379 340.6 134.514 333.085C149.649 325.571 168.004 331.735 175.511 346.854C183.017 361.973 176.833 380.321 161.698 387.836Z" fill="#DEE6F1"/>
<path fill-rule="evenodd" clip-rule="evenodd" d="M235.255 535.984C229.023 539.078 221.465 536.54 218.374 530.315C215.283 524.089 217.83 516.534 224.062 513.44C230.294 510.346 237.851 512.884 240.942 519.109C244.033 525.335 241.487 532.89 235.255 535.984ZM243.25 552.087C228.115 559.602 209.761 553.437 202.254 538.319C194.747 523.2 200.931 504.851 216.066 497.337C231.201 489.822 249.556 495.987 257.063 511.106C264.569 526.225 258.385 544.573 243.25 552.087Z" fill="#DEE6F1"/>
<path fill-rule="evenodd" clip-rule="evenodd" d="M181.328 289.769C175.096 292.863 167.538 290.325 164.447 284.1C161.356 277.874 163.902 270.319 170.135 267.225C176.367 264.131 183.924 266.669 187.015 272.894C190.106 279.12 187.56 286.675 181.328 289.769ZM189.323 305.872C174.188 313.387 155.833 307.222 148.327 292.103C140.82 276.984 147.004 258.636 162.139 251.122C177.274 243.607 195.629 249.772 203.136 264.891C210.642 280.009 204.458 298.358 189.323 305.872Z" fill="#DEE6F1"/>
<path fill-rule="evenodd" clip-rule="evenodd" d="M262.88 454.021C256.648 457.115 249.09 454.577 245.999 448.351C242.908 442.126 245.454 434.571 251.686 431.476C257.919 428.382 265.476 430.92 268.567 437.146C271.658 443.371 269.112 450.926 262.88 454.021ZM270.875 470.124C255.74 477.639 237.385 471.474 229.879 456.355C222.372 441.236 228.556 422.888 243.691 415.373C258.826 407.859 277.181 414.023 284.688 429.142C292.194 444.261 286.01 462.609 270.875 470.124Z" fill="#DEE6F1"/>
<path fill-rule="evenodd" clip-rule="evenodd" d="M-9.74518 316.391C-15.9773 319.485 -23.5351 316.946 -26.6261 310.721C-29.717 304.496 -27.1707 296.94 -20.9386 293.846C-14.7065 290.752 -7.14867 293.29 -4.0577 299.516C-0.966728 305.741 -3.51306 313.296 -9.74518 316.391ZM-1.74989 332.494C-16.885 340.008 -35.2396 333.844 -42.7462 318.725C-50.2529 303.606 -44.0689 285.258 -28.9339 277.743C-13.7988 270.228 4.55584 276.393 12.0625 291.512C19.5691 306.631 13.3852 324.979 -1.74989 332.494Z" fill="#DEE6F1"/>
<path fill-rule="evenodd" clip-rule="evenodd" d="M71.8067 480.642C65.5746 483.736 58.0168 481.198 54.9259 474.973C51.8349 468.747 54.3812 461.192 60.6133 458.098C66.8455 455.004 74.4032 457.542 77.4942 463.767C80.5852 469.993 78.0389 477.548 71.8067 480.642ZM79.802 496.745C64.667 504.26 46.3123 498.095 38.8057 482.976C31.299 467.857 37.483 449.509 52.6181 441.995C67.7531 434.48 86.1078 440.645 93.6144 455.764C101.121 470.882 94.9371 489.231 79.802 496.745Z" fill="#DEE6F1"/>
<path fill-rule="evenodd" clip-rule="evenodd" d="M44.6228 425.892C38.3906 428.986 30.8329 426.448 27.7419 420.222C24.6509 413.997 27.1973 406.442 33.4294 403.347C39.6615 400.253 47.2193 402.791 50.3102 409.017C53.4012 415.242 50.8549 422.797 44.6228 425.892ZM52.6181 441.995C37.483 449.509 19.1283 443.345 11.6217 428.226C4.11505 413.107 10.299 394.759 25.4341 387.244C40.5692 379.73 58.9238 385.894 66.4304 401.013C73.9371 416.132 67.7531 434.48 52.6181 441.995Z" fill="#DEE6F1"/>
<path fill-rule="evenodd" clip-rule="evenodd" d="M126.175 590.143C119.943 593.238 112.385 590.699 109.294 584.474C106.203 578.248 108.749 570.693 114.981 567.599C121.213 564.505 128.771 567.043 131.862 573.268C134.953 579.494 132.407 587.049 126.175 590.143ZM134.17 606.246C119.035 613.761 100.68 607.596 93.1736 592.478C85.667 577.359 91.8509 559.01 106.986 551.496C122.121 543.981 140.476 550.146 147.982 565.265C155.489 580.384 149.305 598.732 134.17 606.246Z" fill="#DEE6F1"/>
<path fill-rule="evenodd" clip-rule="evenodd" d="M72.2475 343.928C66.0155 347.022 58.4577 344.484 55.3667 338.259C52.2757 332.033 54.8221 324.478 61.0541 321.384C67.2862 318.29 74.8441 320.828 77.9351 327.053C81.026 333.279 78.4796 340.834 72.2475 343.928ZM80.2428 360.031C65.1078 367.546 46.7531 361.381 39.2465 346.262C31.7398 331.144 37.9239 312.795 53.0588 305.281C68.1939 297.766 86.5486 303.931 94.0552 319.05C101.562 334.169 95.3779 352.517 80.2428 360.031Z" fill="#DEE6F1"/>
<path fill-rule="evenodd" clip-rule="evenodd" d="M153.799 508.18C147.567 511.274 140.01 508.736 136.919 502.51C133.828 496.285 136.374 488.73 142.606 485.635C148.838 482.541 156.396 485.08 159.487 491.305C162.578 497.53 160.032 505.086 153.799 508.18ZM161.795 524.283C146.66 531.798 128.305 525.633 120.798 510.514C113.292 495.395 119.476 477.047 134.611 469.532C149.746 462.018 168.101 468.182 175.607 483.301C183.114 498.42 176.93 516.768 161.795 524.283Z" fill="#DEE6F1"/>
<path fill-rule="evenodd" clip-rule="evenodd" d="M-228.98 425.242C-235.212 428.336 -242.77 425.798 -245.861 419.573C-248.952 413.347 -246.406 405.792 -240.174 402.698C-233.942 399.604 -226.384 402.142 -223.293 408.367C-220.202 414.593 -222.748 422.148 -228.98 425.242ZM-220.985 441.345C-236.12 448.86 -254.475 442.695 -261.981 427.576C-269.488 412.457 -263.304 394.109 -248.169 386.595C-233.034 379.08 -214.679 385.245 -207.173 400.364C-199.666 415.482 -205.85 433.831 -220.985 441.345Z" fill="#DEE6F1"/>
<path fill-rule="evenodd" clip-rule="evenodd" d="M-147.428 589.494C-153.661 592.588 -161.218 590.05 -164.309 583.824C-167.4 577.599 -164.854 570.044 -158.622 566.949C-152.39 563.855 -144.832 566.393 -141.741 572.619C-138.65 578.844 -141.196 586.399 -147.428 589.494ZM-139.433 605.597C-154.568 613.111 -172.923 606.947 -180.43 591.828C-187.936 576.709 -181.752 558.361 -166.617 550.846C-151.482 543.332 -133.127 549.496 -125.621 564.615C-118.114 579.734 -124.298 598.082 -139.433 605.597Z" fill="#DEE6F1"/>
<path fill-rule="evenodd" clip-rule="evenodd" d="M-174.612 534.743C-180.844 537.837 -188.402 535.299 -191.493 529.074C-194.584 522.848 -192.038 515.293 -185.806 512.199C-179.574 509.105 -172.016 511.643 -168.925 517.868C-165.834 524.094 -168.38 531.649 -174.612 534.743ZM-166.617 550.846C-181.752 558.361 -200.107 552.196 -207.614 537.078C-215.12 521.959 -208.936 503.61 -193.801 496.096C-178.666 488.581 -160.311 494.746 -152.805 509.865C-145.298 524.984 -151.482 543.332 -166.617 550.846Z" fill="#DEE6F1"/>
<path fill-rule="evenodd" clip-rule="evenodd" d="M-93.0604 698.995C-99.2926 702.089 -106.85 699.551 -109.941 693.325C-113.032 687.1 -110.486 679.545 -104.254 676.45C-98.0218 673.356 -90.4641 675.895 -87.3731 682.12C-84.2821 688.345 -86.8284 695.901 -93.0604 698.995ZM-85.0652 715.098C-100.2 722.613 -118.555 716.448 -126.062 701.329C-133.568 686.21 -127.384 667.862 -112.249 660.347C-97.1142 652.833 -78.7594 658.997 -71.2528 674.116C-63.7461 689.235 -69.9302 707.583 -85.0652 715.098Z" fill="#DEE6F1"/>
<path fill-rule="evenodd" clip-rule="evenodd" d="M-146.988 452.78C-153.22 455.874 -160.778 453.336 -163.868 447.11C-166.959 440.885 -164.413 433.33 -158.181 430.236C-151.949 427.141 -144.391 429.68 -141.3 435.905C-138.209 442.13 -140.756 449.686 -146.988 452.78ZM-138.992 468.883C-154.127 476.398 -172.482 470.233 -179.989 455.114C-187.495 439.995 -181.311 421.647 -166.176 414.132C-151.041 406.618 -132.687 412.782 -125.18 427.901C-117.673 443.02 -123.857 461.368 -138.992 468.883Z" fill="#DEE6F1"/>
<path fill-rule="evenodd" clip-rule="evenodd" d="M-65.4358 617.031C-71.6678 620.126 -79.2256 617.587 -82.3166 611.362C-85.4076 605.136 -82.8612 597.581 -76.6292 594.487C-70.3971 591.393 -62.8392 593.931 -59.7482 600.157C-56.6573 606.382 -59.2037 613.937 -65.4358 617.031ZM-57.4405 633.135C-72.5755 640.649 -90.9302 634.485 -98.4369 619.366C-105.944 604.247 -99.7595 585.899 -84.6245 578.384C-69.4894 570.869 -51.1347 577.034 -43.628 592.153C-36.1214 607.272 -42.3054 625.62 -57.4405 633.135Z" fill="#DEE6F1"/>
<path fill-rule="evenodd" clip-rule="evenodd" d="M-119.363 370.816C-125.595 373.911 -133.153 371.372 -136.244 365.147C-139.335 358.921 -136.788 351.366 -130.556 348.272C-124.324 345.178 -116.766 347.716 -113.675 353.942C-110.584 360.167 -113.131 367.722 -119.363 370.816ZM-111.367 386.919C-126.503 394.434 -144.857 388.27 -152.364 373.151C-159.871 358.032 -153.687 339.684 -138.551 332.169C-123.416 324.654 -105.062 330.819 -97.5551 345.938C-90.0484 361.057 -96.2325 379.405 -111.367 386.919Z" fill="#DEE6F1"/>
<path fill-rule="evenodd" clip-rule="evenodd" d="M-37.8108 535.068C-44.043 538.162 -51.6007 535.624 -54.6917 529.398C-57.7827 523.173 -55.2364 515.618 -49.0042 512.524C-42.7722 509.429 -35.2143 511.968 -32.1234 518.193C-29.0324 524.419 -31.5788 531.974 -37.8108 535.068ZM-29.8155 551.171C-44.9506 558.686 -63.3054 552.521 -70.812 537.402C-78.3187 522.283 -72.1346 503.935 -56.9995 496.421C-41.8645 488.906 -23.5098 495.07 -16.0032 510.189C-8.49653 525.308 -14.6806 543.656 -29.8155 551.171Z" fill="#DEE6F1"/>
<path fill-rule="evenodd" clip-rule="evenodd" d="M-64.9948 480.317C-71.2269 483.412 -78.7847 480.873 -81.8757 474.648C-84.9667 468.422 -82.4203 460.867 -76.1882 457.773C-69.9562 454.679 -62.3983 457.217 -59.3073 463.443C-56.2164 469.668 -58.7628 477.223 -64.9948 480.317ZM-56.9995 496.421C-72.1346 503.935 -90.4893 497.771 -97.996 482.652C-105.503 467.533 -99.3186 449.185 -84.1835 441.67C-69.0485 434.155 -50.6938 440.32 -43.1871 455.439C-35.6805 470.558 -41.8645 488.906 -56.9995 496.421Z" fill="#DEE6F1"/>
<path fill-rule="evenodd" clip-rule="evenodd" d="M16.5571 644.569C10.325 647.663 2.76722 645.125 -0.323754 638.9C-3.41473 632.674 -0.868399 625.119 5.36372 622.025C11.5957 618.93 19.1536 621.469 22.2446 627.694C25.3356 633.92 22.7891 641.475 16.5571 644.569ZM24.5524 660.672C9.41732 668.187 -8.9374 662.022 -16.4441 646.903C-23.9507 631.784 -17.7666 613.436 -2.63157 605.922C12.5034 598.407 30.8581 604.571 38.3648 619.69C45.8714 634.809 39.6874 653.158 24.5524 660.672Z" fill="#DEE6F1"/>
<path fill-rule="evenodd" clip-rule="evenodd" d="M-37.37 398.354C-43.6022 401.448 -51.1599 398.91 -54.2509 392.684C-57.3419 386.459 -54.7956 378.904 -48.5634 375.81C-42.3313 372.715 -34.7735 375.254 -31.6826 381.479C-28.5916 387.705 -31.1379 395.26 -37.37 398.354ZM-29.3748 414.457C-44.5098 421.972 -62.8645 415.807 -70.3711 400.688C-77.8778 385.569 -71.6938 367.221 -56.5587 359.707C-41.4237 352.192 -23.0689 358.356 -15.5623 373.475C-8.05563 388.594 -14.2397 406.942 -29.3748 414.457Z" fill="#DEE6F1"/>
<path fill-rule="evenodd" clip-rule="evenodd" d="M44.1819 562.606C37.9498 565.7 30.392 563.162 27.301 556.936C24.21 550.711 26.7564 543.156 32.9885 540.061C39.2206 536.967 46.7784 539.505 49.8693 545.731C52.9603 551.956 50.414 559.511 44.1819 562.606ZM52.1772 578.709C37.0421 586.223 18.6875 580.059 11.1808 564.94C3.67415 549.821 9.85811 531.473 24.9932 523.958C40.1283 516.444 58.483 522.608 65.9896 537.727C73.4963 552.846 67.3122 571.194 52.1772 578.709Z" fill="#DEE6F1"/>
<path fill-rule="evenodd" clip-rule="evenodd" d="M-338.598 479.668C-344.83 482.762 -352.388 480.224 -355.479 473.998C-358.57 467.773 -356.024 460.218 -349.791 457.124C-343.559 454.029 -336.002 456.568 -332.911 462.793C-329.82 469.019 -332.366 476.574 -338.598 479.668ZM-330.603 495.771C-345.738 503.286 -364.093 497.121 -371.599 482.002C-379.106 466.883 -372.922 448.535 -357.787 441.021C-342.652 433.506 -324.297 439.67 -316.79 454.789C-309.284 469.908 -315.468 488.256 -330.603 495.771Z" fill="#DEE6F1"/>
<path fill-rule="evenodd" clip-rule="evenodd" d="M-257.046 643.92C-263.278 647.014 -270.836 644.476 -273.927 638.25C-277.018 632.025 -274.472 624.47 -268.239 621.375C-262.007 618.281 -254.45 620.819 -251.359 627.045C-248.268 633.27 -250.814 640.825 -257.046 643.92ZM-249.051 660.023C-264.186 667.537 -282.541 661.373 -290.047 646.254C-297.554 631.135 -291.37 612.787 -276.235 605.272C-261.1 597.757 -242.745 603.922 -235.238 619.041C-227.732 634.16 -233.916 652.508 -249.051 660.023Z" fill="#DEE6F1"/>
<path fill-rule="evenodd" clip-rule="evenodd" d="M-284.23 589.169C-290.462 592.263 -298.02 589.725 -301.111 583.5C-304.202 577.274 -301.656 569.719 -295.423 566.625C-289.191 563.53 -281.634 566.069 -278.543 572.294C-275.452 578.52 -277.998 586.075 -284.23 589.169ZM-276.235 605.272C-291.37 612.787 -309.725 606.622 -317.231 591.503C-324.738 576.384 -318.554 558.036 -303.419 550.522C-288.284 543.007 -269.929 549.171 -262.422 564.29C-254.916 579.409 -261.1 597.757 -276.235 605.272Z" fill="#DEE6F1"/>
<path fill-rule="evenodd" clip-rule="evenodd" d="M-202.678 753.421C-208.91 756.515 -216.468 753.977 -219.559 747.751C-222.65 741.526 -220.104 733.971 -213.872 730.876C-207.639 727.782 -200.082 730.32 -196.991 736.546C-193.9 742.771 -196.446 750.326 -202.678 753.421ZM-194.683 769.524C-209.818 777.038 -228.173 770.874 -235.679 755.755C-243.186 740.636 -237.002 722.288 -221.867 714.773C-206.732 707.259 -188.377 713.423 -180.87 728.542C-173.364 743.661 -179.548 762.009 -194.683 769.524Z" fill="#DEE6F1"/>
<path fill-rule="evenodd" clip-rule="evenodd" d="M-256.605 507.206C-262.837 510.3 -270.395 507.762 -273.486 501.536C-276.577 495.311 -274.031 487.756 -267.799 484.661C-261.566 481.567 -254.009 484.105 -250.918 490.331C-247.827 496.556 -250.373 504.111 -256.605 507.206ZM-248.61 523.309C-263.745 530.823 -282.1 524.659 -289.606 509.54C-297.113 494.421 -290.929 476.073 -275.794 468.558C-260.659 461.043 -242.304 467.208 -234.798 482.327C-227.291 497.446 -233.475 515.794 -248.61 523.309Z" fill="#DEE6F1"/>
<path fill-rule="evenodd" clip-rule="evenodd" d="M-175.053 671.457C-181.285 674.551 -188.843 672.013 -191.934 665.788C-195.025 659.562 -192.479 652.007 -186.247 648.913C-180.015 645.819 -172.457 648.357 -169.366 654.582C-166.275 660.808 -168.821 668.363 -175.053 671.457ZM-167.058 687.56C-182.193 695.075 -200.548 688.91 -208.054 673.791C-215.561 658.673 -209.377 640.324 -194.242 632.81C-179.107 625.295 -160.752 631.46 -153.246 646.579C-145.739 661.698 -151.923 680.046 -167.058 687.56Z" fill="#DEE6F1"/>
<path fill-rule="evenodd" clip-rule="evenodd" d="M157.875 242.533C147.488 247.69 134.892 243.46 129.74 233.084C124.589 222.708 128.833 210.117 139.219 204.959C149.606 199.802 162.203 204.033 167.354 214.409C172.506 224.784 168.262 237.376 157.875 242.533ZM162.139 251.122C147.004 258.636 128.649 252.472 121.143 237.353C113.636 222.234 119.82 203.886 134.955 196.371C150.09 188.857 168.445 195.021 175.952 210.14C183.458 225.259 177.274 243.607 162.139 251.122Z" fill="#DEE6F1"/>
<path fill-rule="evenodd" clip-rule="evenodd" d="M239.427 406.785C229.04 411.942 216.444 407.712 211.292 397.336C206.141 386.96 210.385 374.368 220.771 369.211C231.158 364.054 243.754 368.285 248.906 378.66C254.058 389.036 249.814 401.628 239.427 406.785ZM243.691 415.373C228.556 422.888 210.201 416.723 202.695 401.604C195.188 386.486 201.372 368.137 216.507 360.623C231.642 353.108 249.997 359.273 257.504 374.392C265.01 389.511 258.826 407.859 243.691 415.373Z" fill="#DEE6F1"/>
<path fill-rule="evenodd" clip-rule="evenodd" d="M212.243 352.034C201.856 357.192 189.26 352.961 184.108 342.585C178.957 332.21 183.201 319.618 193.587 314.461C203.974 309.303 216.57 313.534 221.722 323.91C226.874 334.286 222.63 346.877 212.243 352.034ZM216.507 360.623C201.372 368.137 183.017 361.973 175.511 346.854C168.004 331.735 174.188 313.387 189.323 305.872C204.458 298.358 222.813 304.522 230.32 319.641C237.826 334.76 231.642 353.108 216.507 360.623Z" fill="#DEE6F1"/>
<path fill-rule="evenodd" clip-rule="evenodd" d="M293.795 516.286C283.408 521.443 270.812 517.213 265.66 506.837C260.509 496.461 264.752 483.869 275.139 478.712C285.526 473.555 298.122 477.786 303.274 488.161C308.426 498.537 304.182 511.129 293.795 516.286ZM298.059 524.874C282.924 532.389 264.569 526.225 257.063 511.106C249.556 495.987 255.74 477.639 270.875 470.124C286.01 462.609 304.365 468.774 311.872 483.893C319.378 499.012 313.194 517.36 298.059 524.874Z" fill="#DEE6F1"/>
<path fill-rule="evenodd" clip-rule="evenodd" d="M239.868 270.071C229.481 275.228 216.885 270.998 211.733 260.622C206.582 250.246 210.825 237.654 221.212 232.497C231.599 227.34 244.195 231.571 249.347 241.946C254.499 252.322 250.255 264.914 239.868 270.071ZM244.132 278.659C228.997 286.174 210.642 280.009 203.136 264.891C195.629 249.772 201.813 231.423 216.948 223.909C232.083 216.394 250.438 222.559 257.944 237.678C265.451 252.797 259.267 271.145 244.132 278.659Z" fill="#DEE6F1"/>
<path fill-rule="evenodd" clip-rule="evenodd" d="M321.42 434.323C311.033 439.48 298.437 435.249 293.285 424.873C288.133 414.498 292.377 401.906 302.764 396.749C313.151 391.592 325.747 395.822 330.899 406.198C336.05 416.574 331.807 429.166 321.42 434.323ZM325.684 442.911C310.549 450.426 292.194 444.261 284.688 429.142C277.181 414.023 283.365 395.675 298.5 388.16C313.635 380.646 331.99 386.81 339.496 401.929C347.003 417.048 340.819 435.396 325.684 442.911Z" fill="#DEE6F1"/>
<path fill-rule="evenodd" clip-rule="evenodd" d="M48.5261 296.826C38.3674 301.87 25.8514 297.699 20.6601 287.243C15.4688 276.787 19.7117 264.296 29.8704 259.252C40.0292 254.208 52.5452 258.379 57.7365 268.835C62.9278 279.29 58.6848 291.782 48.5261 296.826ZM52.7903 305.414C37.8036 312.855 19.5691 306.631 12.0625 291.512C4.55584 276.393 10.6196 258.105 25.6063 250.664C40.5929 243.223 58.8274 249.447 66.334 264.566C73.8406 279.685 67.7769 297.973 52.7903 305.414Z" fill="#DEE6F1"/>
<path fill-rule="evenodd" clip-rule="evenodd" d="M130.078 461.077C119.919 466.121 107.403 461.951 102.212 451.495C97.0207 441.039 101.264 428.547 111.422 423.504C121.581 418.46 134.097 422.63 139.288 433.086C144.48 443.542 140.237 456.034 130.078 461.077ZM134.342 469.666C119.356 477.107 101.121 470.882 93.6144 455.764C86.1078 440.645 92.1716 422.356 107.158 414.915C122.145 407.474 140.379 413.698 147.886 428.817C155.393 443.936 149.329 462.225 134.342 469.666Z" fill="#DEE6F1"/>
<path fill-rule="evenodd" clip-rule="evenodd" d="M102.894 406.327C92.7353 411.371 80.2193 407.2 75.028 396.744C69.8367 386.289 74.0797 373.797 84.2384 368.753C94.3971 363.709 106.913 367.88 112.104 378.336C117.296 388.791 113.053 401.283 102.894 406.327ZM107.158 414.915C92.1716 422.356 73.9371 416.132 66.4304 401.013C58.9238 385.894 64.9876 367.606 79.9742 360.165C94.9609 352.724 113.195 358.948 120.702 374.067C128.209 389.186 122.145 407.474 107.158 414.915Z" fill="#DEE6F1"/>
<path fill-rule="evenodd" clip-rule="evenodd" d="M184.446 570.579C174.287 575.622 161.771 571.452 156.58 560.996C151.389 550.54 155.632 538.048 165.79 533.005C175.949 527.961 188.465 532.131 193.656 542.587C198.848 553.043 194.605 565.535 184.446 570.579ZM188.71 579.167C173.723 586.608 155.489 580.384 147.982 565.265C140.476 550.146 146.539 531.857 161.526 524.416C176.513 516.975 194.747 523.2 202.254 538.319C209.761 553.437 203.697 571.726 188.71 579.167Z" fill="#DEE6F1"/>
<path fill-rule="evenodd" clip-rule="evenodd" d="M130.519 324.363C120.36 329.407 107.844 325.237 102.653 314.781C97.4615 304.325 101.704 291.833 111.863 286.79C122.022 281.746 134.538 285.916 139.729 296.372C144.921 306.828 140.678 319.32 130.519 324.363ZM134.783 332.952C119.796 340.393 101.562 334.169 94.0552 319.05C86.5486 303.931 92.6124 285.642 107.599 278.201C122.586 270.76 140.82 276.984 148.327 292.103C155.833 307.222 149.77 325.511 134.783 332.952Z" fill="#DEE6F1"/>
<path fill-rule="evenodd" clip-rule="evenodd" d="M212.071 488.615C201.912 493.659 189.396 489.488 184.205 479.032C179.013 468.577 183.256 456.085 193.415 451.041C203.574 445.997 216.09 450.168 221.281 460.624C226.473 471.079 222.23 483.571 212.071 488.615ZM216.335 497.203C201.348 504.644 183.114 498.42 175.607 483.301C168.101 468.182 174.164 449.894 189.151 442.453C204.138 435.012 222.372 441.236 229.879 456.355C237.385 471.474 231.322 489.762 216.335 497.203Z" fill="#DEE6F1"/>
<path fill-rule="evenodd" clip-rule="evenodd" d="M-60.8229 351.118C-71.2096 356.275 -83.806 352.045 -88.9576 341.669C-94.1092 331.293 -89.8653 318.701 -79.4786 313.544C-69.0918 308.387 -56.4954 312.618 -51.3438 322.994C-46.1922 333.369 -50.4361 345.961 -60.8229 351.118ZM-56.5587 359.707C-71.6938 367.221 -90.0484 361.057 -97.5551 345.938C-105.062 330.819 -98.8778 312.471 -83.7427 304.956C-68.6076 297.441 -50.2529 303.606 -42.7462 318.725C-35.2396 333.844 -41.4237 352.192 -56.5587 359.707Z" fill="#DEE6F1"/>
<path fill-rule="evenodd" clip-rule="evenodd" d="M20.729 515.37C10.3423 520.527 -2.25407 516.296 -7.40569 505.921C-12.5573 495.545 -8.31338 482.953 2.07337 477.796C12.4601 472.639 25.0565 476.869 30.2081 487.245C35.3597 497.621 31.1158 510.213 20.729 515.37ZM24.9932 523.958C9.85811 531.473 -8.49653 525.308 -16.0032 510.189C-23.5098 495.07 -17.3259 476.722 -2.19079 469.208C12.9443 461.693 31.299 467.857 38.8057 482.976C46.3123 498.095 40.1283 516.444 24.9932 523.958Z" fill="#DEE6F1"/>
<path fill-rule="evenodd" clip-rule="evenodd" d="M-6.45494 460.619C-16.8417 465.776 -29.438 461.546 -34.5897 451.17C-39.7413 440.794 -35.4974 428.203 -25.1106 423.045C-14.7239 417.888 -2.12751 422.119 3.02412 432.495C8.17573 442.87 3.93181 455.462 -6.45494 460.619ZM-2.19079 469.208C-17.3259 476.722 -35.6805 470.558 -43.1871 455.439C-50.6938 440.32 -44.5098 421.972 -29.3748 414.457C-14.2397 406.942 4.11505 413.107 11.6217 428.226C19.1283 443.345 12.9443 461.693 -2.19079 469.208Z" fill="#DEE6F1"/>
<path fill-rule="evenodd" clip-rule="evenodd" d="M75.097 624.871C64.7102 630.028 52.1139 625.797 46.9623 615.422C41.8107 605.046 46.0546 592.454 56.4413 587.297C66.8281 582.14 79.4244 586.371 84.576 596.746C89.7277 607.122 85.4837 619.714 75.097 624.871ZM79.3611 633.459C64.2261 640.974 45.8714 634.809 38.3648 619.69C30.8581 604.571 37.0421 586.223 52.1772 578.709C67.3122 571.194 85.667 577.359 93.1736 592.478C100.68 607.596 94.4962 625.945 79.3611 633.459Z" fill="#DEE6F1"/>
<path fill-rule="evenodd" clip-rule="evenodd" d="M21.1699 378.656C10.7832 383.813 -1.81317 379.582 -6.96479 369.207C-12.1164 358.831 -7.87249 346.239 2.51426 341.082C12.901 335.925 25.4974 340.155 30.649 350.531C35.8006 360.907 31.5567 373.499 21.1699 378.656ZM25.4341 387.244C10.299 394.759 -8.05563 388.594 -15.5623 373.475C-23.0689 358.356 -16.885 340.008 -1.74989 332.494C13.3852 324.979 31.7398 331.144 39.2465 346.262C46.7531 361.381 40.5692 379.73 25.4341 387.244Z" fill="#DEE6F1"/>
<path fill-rule="evenodd" clip-rule="evenodd" d="M102.722 542.907C92.3351 548.065 79.7387 543.834 74.5871 533.458C69.4355 523.083 73.6794 510.491 84.0662 505.334C94.4529 500.176 107.049 504.407 112.201 514.783C117.353 525.159 113.109 537.75 102.722 542.907ZM106.986 551.496C91.8509 559.01 73.4963 552.846 65.9896 537.727C58.483 522.608 64.667 504.26 79.802 496.745C94.9371 489.231 113.292 495.395 120.798 510.514C128.305 525.633 122.121 543.981 106.986 551.496Z" fill="#DEE6F1"/>
<path fill-rule="evenodd" clip-rule="evenodd" d="M-280.058 459.97C-290.445 465.127 -303.041 460.896 -308.193 450.521C-313.345 440.145 -309.1 427.553 -298.714 422.396C-288.327 417.239 -275.731 421.469 -270.579 431.845C-265.427 442.221 -269.671 454.813 -280.058 459.97ZM-275.794 468.558C-290.929 476.073 -309.284 469.908 -316.79 454.789C-324.297 439.67 -318.113 421.322 -302.978 413.808C-287.843 406.293 -269.488 412.457 -261.981 427.576C-254.475 442.695 -260.659 461.043 -275.794 468.558Z" fill="#DEE6F1"/>
<path fill-rule="evenodd" clip-rule="evenodd" d="M-198.506 624.221C-208.893 629.379 -221.489 625.148 -226.641 614.772C-231.793 604.397 -227.549 591.805 -217.162 586.648C-206.775 581.49 -194.179 585.721 -189.027 596.097C-183.875 606.472 -188.119 619.064 -198.506 624.221ZM-194.242 632.81C-209.377 640.324 -227.732 634.16 -235.238 619.041C-242.745 603.922 -236.561 585.574 -221.426 578.059C-206.291 570.545 -187.936 576.709 -180.43 591.828C-172.923 606.947 -179.107 625.295 -194.242 632.81Z" fill="#DEE6F1"/>
<path fill-rule="evenodd" clip-rule="evenodd" d="M-225.69 569.471C-236.077 574.628 -248.673 570.398 -253.825 560.022C-258.977 549.646 -254.733 537.054 -244.346 531.897C-233.959 526.74 -221.363 530.97 -216.211 541.346C-211.059 551.722 -215.303 564.314 -225.69 569.471ZM-221.426 578.059C-236.561 585.574 -254.916 579.409 -262.422 564.29C-269.929 549.171 -263.745 530.823 -248.61 523.309C-233.475 515.794 -215.12 521.959 -207.614 537.078C-200.107 552.196 -206.291 570.545 -221.426 578.059Z" fill="#DEE6F1"/>
<path fill-rule="evenodd" clip-rule="evenodd" d="M-144.138 733.723C-154.525 738.88 -167.121 734.649 -172.273 724.273C-177.425 713.898 -173.181 701.306 -162.794 696.149C-152.407 690.992 -139.811 695.222 -134.659 705.598C-129.507 715.974 -133.751 728.565 -144.138 733.723ZM-139.874 742.311C-155.009 749.825 -173.364 743.661 -180.87 728.542C-188.377 713.423 -182.193 695.075 -167.058 687.56C-151.923 680.046 -133.568 686.21 -126.062 701.329C-118.555 716.448 -124.739 734.796 -139.874 742.311Z" fill="#DEE6F1"/>
<path fill-rule="evenodd" clip-rule="evenodd" d="M-198.065 487.507C-208.452 492.665 -221.049 488.434 -226.2 478.058C-231.352 467.683 -227.108 455.091 -216.721 449.934C-206.334 444.776 -193.738 449.007 -188.586 459.383C-183.435 469.759 -187.678 482.35 -198.065 487.507ZM-193.801 496.096C-208.936 503.61 -227.291 497.446 -234.798 482.327C-242.304 467.208 -236.12 448.86 -220.985 441.345C-205.85 433.831 -187.495 439.995 -179.989 455.114C-172.482 470.233 -178.666 488.581 -193.801 496.096Z" fill="#DEE6F1"/>
<path fill-rule="evenodd" clip-rule="evenodd" d="M-116.513 651.759C-126.9 656.916 -139.497 652.686 -144.648 642.31C-149.8 631.934 -145.556 619.342 -135.169 614.185C-124.782 609.028 -112.186 613.259 -107.034 623.634C-101.883 634.01 -106.127 646.602 -116.513 651.759ZM-112.249 660.347C-127.384 667.862 -145.739 661.698 -153.246 646.579C-160.752 631.46 -154.568 613.111 -139.433 605.597C-124.298 598.082 -105.944 604.247 -98.4369 619.366C-90.9302 634.485 -97.1142 652.833 -112.249 660.347Z" fill="#DEE6F1"/>
<path fill-rule="evenodd" clip-rule="evenodd" d="M-170.441 405.544C-180.827 410.701 -193.424 406.471 -198.575 396.095C-203.727 385.719 -199.483 373.127 -189.096 367.97C-178.709 362.813 -166.113 367.044 -160.961 377.419C-155.81 387.795 -160.054 400.387 -170.441 405.544ZM-166.176 414.132C-181.311 421.647 -199.666 415.482 -207.173 400.364C-214.679 385.245 -208.495 366.896 -193.36 359.382C-178.225 351.867 -159.871 358.032 -152.364 373.151C-144.857 388.27 -151.041 406.618 -166.176 414.132Z" fill="#DEE6F1"/>
<path fill-rule="evenodd" clip-rule="evenodd" d="M-88.8886 569.796C-99.2754 574.953 -111.872 570.722 -117.023 560.346C-122.175 549.971 -117.931 537.379 -107.544 532.222C-97.1575 527.065 -84.5611 531.295 -79.4095 541.671C-74.2579 552.047 -78.5018 564.639 -88.8886 569.796ZM-84.6245 578.384C-99.7595 585.899 -118.114 579.734 -125.621 564.615C-133.127 549.496 -126.943 531.148 -111.808 523.633C-96.6734 516.119 -78.3187 522.283 -70.812 537.402C-63.3054 552.521 -69.4894 570.869 -84.6245 578.384Z" fill="#DEE6F1"/>
<path fill-rule="evenodd" clip-rule="evenodd" d="M-116.073 515.045C-126.459 520.202 -139.056 515.972 -144.207 505.596C-149.359 495.22 -145.115 482.628 -134.728 477.471C-124.341 472.314 -111.745 476.545 -106.593 486.92C-101.442 497.296 -105.686 509.888 -116.073 515.045ZM-111.808 523.633C-126.943 531.148 -145.298 524.984 -152.805 509.865C-160.311 494.746 -154.127 476.398 -138.992 468.883C-123.857 461.368 -105.503 467.533 -97.996 482.652C-90.4893 497.771 -96.6734 516.119 -111.808 523.633Z" fill="#DEE6F1"/>
<path fill-rule="evenodd" clip-rule="evenodd" d="M-34.5207 679.297C-44.9075 684.454 -57.5038 680.223 -62.6554 669.848C-67.807 659.472 -63.5631 646.88 -53.1764 641.723C-42.7895 636.566 -30.1931 640.796 -25.0415 651.172C-19.8899 661.548 -24.1338 674.14 -34.5207 679.297ZM-30.2565 687.885C-45.3915 695.4 -63.7461 689.235 -71.2528 674.116C-78.7594 658.997 -72.5755 640.649 -57.4405 633.135C-42.3054 625.62 -23.9507 631.784 -16.4441 646.903C-8.9374 662.022 -15.1215 680.37 -30.2565 687.885Z" fill="#DEE6F1"/>
<path fill-rule="evenodd" clip-rule="evenodd" d="M-88.4476 433.082C-98.8344 438.239 -111.431 434.008 -116.582 423.632C-121.734 413.257 -117.49 400.665 -107.103 395.508C-96.7166 390.351 -84.1202 394.581 -78.9686 404.957C-73.817 415.333 -78.0609 427.925 -88.4476 433.082ZM-84.1835 441.67C-99.3186 449.185 -117.673 443.02 -125.18 427.901C-132.687 412.782 -126.503 394.434 -111.367 386.919C-96.2325 379.405 -77.8778 385.569 -70.3711 400.688C-62.8645 415.807 -69.0485 434.155 -84.1835 441.67Z" fill="#DEE6F1"/>
<path fill-rule="evenodd" clip-rule="evenodd" d="M-6.89572 597.333C-17.2825 602.49 -29.8788 598.26 -35.0305 587.884C-40.1821 577.508 -35.9381 564.916 -25.5514 559.759C-15.1646 554.602 -2.56829 558.833 2.58332 569.209C7.73494 579.584 3.49103 592.176 -6.89572 597.333ZM-2.63157 605.922C-17.7666 613.436 -36.1214 607.272 -43.628 592.153C-51.1347 577.034 -44.9506 558.686 -29.8155 551.171C-14.6806 543.656 3.67415 549.821 11.1808 564.94C18.6875 580.059 12.5034 598.407 -2.63157 605.922Z" fill="#DEE6F1"/>
<path fill-rule="evenodd" clip-rule="evenodd" d="M-389.676 514.396C-400.062 519.553 -412.659 515.322 -417.81 504.946C-422.962 494.571 -418.718 481.979 -408.331 476.822C-397.944 471.665 -385.348 475.895 -380.196 486.271C-375.045 496.647 -379.289 509.238 -389.676 514.396ZM-385.411 522.984C-400.546 530.499 -418.901 524.334 -426.408 509.215C-433.915 494.096 -427.73 475.748 -412.595 468.233C-397.46 460.719 -379.106 466.883 -371.599 482.002C-364.093 497.121 -370.276 515.469 -385.411 522.984Z" fill="#DEE6F1"/>
<path fill-rule="evenodd" clip-rule="evenodd" d="M-308.124 678.647C-318.51 683.804 -331.107 679.574 -336.259 669.198C-341.41 658.822 -337.166 646.23 -326.779 641.073C-316.392 635.916 -303.796 640.147 -298.645 650.522C-293.493 660.898 -297.737 673.49 -308.124 678.647ZM-303.86 687.236C-318.995 694.75 -337.349 688.586 -344.856 673.467C-352.363 658.348 -346.178 640 -331.044 632.485C-315.908 624.97 -297.554 631.135 -290.047 646.254C-282.541 661.373 -288.724 679.721 -303.86 687.236Z" fill="#DEE6F1"/>
<path fill-rule="evenodd" clip-rule="evenodd" d="M-335.308 623.897C-345.694 629.054 -358.291 624.823 -363.442 614.448C-368.594 604.072 -364.35 591.48 -353.963 586.323C-343.576 581.166 -330.98 585.396 -325.828 595.772C-320.677 606.148 -324.921 618.74 -335.308 623.897ZM-331.044 632.485C-346.178 640 -364.533 633.835 -372.04 618.716C-379.547 603.597 -373.362 585.249 -358.227 577.734C-343.092 570.22 -324.738 576.384 -317.231 591.503C-309.725 606.622 -315.908 624.97 -331.044 632.485Z" fill="#DEE6F1"/>
<path fill-rule="evenodd" clip-rule="evenodd" d="M-253.756 788.148C-264.142 793.305 -276.739 789.075 -281.891 778.699C-287.042 768.323 -282.798 755.731 -272.411 750.574C-262.025 745.417 -249.428 749.648 -244.277 760.024C-239.125 770.399 -243.369 782.991 -253.756 788.148ZM-249.492 796.737C-264.627 804.251 -282.981 798.087 -290.488 782.968C-297.995 767.849 -291.811 749.501 -276.676 741.986C-261.54 734.471 -243.186 740.636 -235.679 755.755C-228.173 770.874 -234.357 789.222 -249.492 796.737Z" fill="#DEE6F1"/>
<path fill-rule="evenodd" clip-rule="evenodd" d="M-307.683 541.933C-318.07 547.09 -330.666 542.86 -335.818 532.484C-340.969 522.108 -336.725 509.516 -326.339 504.359C-315.952 499.202 -303.355 503.433 -298.204 513.809C-293.052 524.184 -297.296 536.776 -307.683 541.933ZM-303.419 550.522C-318.554 558.036 -336.909 551.872 -344.415 536.753C-351.922 521.634 -345.738 503.286 -330.603 495.771C-315.468 488.256 -297.113 494.421 -289.606 509.54C-282.1 524.659 -288.284 543.007 -303.419 550.522Z" fill="#DEE6F1"/>
<path fill-rule="evenodd" clip-rule="evenodd" d="M-226.131 706.185C-236.518 711.342 -249.114 707.111 -254.266 696.736C-259.417 686.36 -255.173 673.768 -244.787 668.611C-234.4 663.454 -221.804 667.684 -216.652 678.06C-211.5 688.436 -215.744 701.028 -226.131 706.185ZM-221.867 714.773C-237.002 722.288 -255.357 716.123 -262.863 701.004C-270.37 685.885 -264.186 667.537 -249.051 660.023C-233.916 652.508 -215.561 658.673 -208.054 673.791C-200.548 688.91 -206.732 707.259 -221.867 714.773Z" fill="#DEE6F1"/>
<path fill-rule="evenodd" clip-rule="evenodd" d="M866.224 -118.533C859.991 -115.439 852.434 -117.977 849.343 -124.203C846.252 -130.428 848.798 -137.983 855.03 -141.078C861.262 -144.172 868.82 -141.633 871.911 -135.408C875.002 -129.183 872.456 -121.627 866.224 -118.533ZM874.219 -102.43C859.084 -94.9155 840.729 -101.08 833.222 -116.199C825.716 -131.318 831.9 -149.666 847.035 -157.181C862.17 -164.695 880.525 -158.531 888.031 -143.412C895.538 -128.293 889.354 -109.945 874.219 -102.43Z" fill="#DEE6F1"/>
<path fill-rule="evenodd" clip-rule="evenodd" d="M947.775 45.7184C941.543 48.8127 933.986 46.2743 930.895 40.0489C927.804 33.8234 930.35 26.2683 936.582 23.1741C942.814 20.0798 950.372 22.6181 953.463 28.8436C956.554 35.069 954.008 42.6241 947.775 45.7184ZM955.771 61.8215C940.636 69.3362 922.281 63.1716 914.774 48.0527C907.268 32.9337 913.452 14.5856 928.587 7.07098C943.722 -0.443658 962.077 5.72084 969.583 20.8398C977.09 35.9587 970.906 54.3069 955.771 61.8215Z" fill="#DEE6F1"/>
<path fill-rule="evenodd" clip-rule="evenodd" d="M920.591 -9.03214C914.359 -5.93788 906.802 -8.47621 903.711 -14.7017C900.62 -20.9271 903.166 -28.4822 909.398 -31.5765C915.63 -34.6707 923.188 -32.1324 926.279 -25.907C929.37 -19.6815 926.824 -12.1264 920.591 -9.03214ZM928.587 7.07098C913.452 14.5856 895.097 8.42108 887.59 -6.69785C880.084 -21.8168 886.268 -40.1649 901.403 -47.6796C916.538 -55.1942 934.893 -49.0297 942.399 -33.9108C949.906 -18.7918 943.722 -0.443658 928.587 7.07098Z" fill="#DEE6F1"/>
<path fill-rule="evenodd" clip-rule="evenodd" d="M1002.14 155.219C995.911 158.314 988.354 155.775 985.263 149.55C982.172 143.325 984.718 135.769 990.95 132.675C997.182 129.581 1004.74 132.119 1007.83 138.345C1010.92 144.57 1008.38 152.125 1002.14 155.219ZM1010.14 171.323C995.004 178.837 976.649 172.673 969.142 157.554C961.636 142.435 967.82 124.087 982.955 116.572C998.09 109.057 1016.44 115.222 1023.95 130.341C1031.46 145.46 1025.27 163.808 1010.14 171.323Z" fill="#DEE6F1"/>
<path fill-rule="evenodd" clip-rule="evenodd" d="M948.216 -90.9956C941.984 -87.9013 934.426 -90.4397 931.335 -96.6651C928.244 -102.891 930.791 -110.446 937.023 -113.54C943.255 -116.634 950.813 -114.096 953.904 -107.87C956.995 -101.645 954.448 -94.0899 948.216 -90.9956ZM956.212 -74.8925C941.077 -67.3779 922.722 -73.5424 915.215 -88.6613C907.709 -103.78 913.893 -122.128 929.028 -129.643C944.163 -137.158 962.517 -130.993 970.024 -115.874C977.531 -100.755 971.347 -82.4071 956.212 -74.8925Z" fill="#DEE6F1"/>
<path fill-rule="evenodd" clip-rule="evenodd" d="M1029.77 73.256C1023.54 76.3503 1015.98 73.812 1012.89 67.5865C1009.8 61.3611 1012.34 53.806 1018.57 50.7117C1024.81 47.6174 1032.36 50.1558 1035.46 56.3812C1038.55 62.6067 1036 70.1618 1029.77 73.256ZM1037.76 89.3591C1022.63 96.8738 1004.27 90.7093 996.767 75.5903C989.26 60.4714 995.445 42.1232 1010.58 34.6086C1025.71 27.094 1044.07 33.2585 1051.58 48.3774C1059.08 63.4964 1052.9 81.8445 1037.76 89.3591Z" fill="#DEE6F1"/>
<path fill-rule="evenodd" clip-rule="evenodd" d="M756.606 -64.1074C750.374 -61.0131 742.816 -63.5514 739.725 -69.7769C736.634 -76.0023 739.18 -83.5574 745.412 -86.6517C751.644 -89.746 759.202 -87.2076 762.293 -80.9822C765.384 -74.7567 762.838 -67.2016 756.606 -64.1074ZM764.601 -48.0043C749.466 -40.4896 731.111 -46.6541 723.605 -61.7731C716.098 -76.892 722.282 -95.2402 737.417 -102.755C752.552 -110.269 770.907 -104.105 778.414 -88.986C785.92 -73.867 779.736 -55.5189 764.601 -48.0043Z" fill="#DEE6F1"/>
<path fill-rule="evenodd" clip-rule="evenodd" d="M838.158 100.144C831.926 103.239 824.368 100.7 821.277 94.4747C818.186 88.2493 820.732 80.6942 826.964 77.5999C833.196 74.5057 840.754 77.044 843.845 83.2694C846.936 89.4949 844.39 97.05 838.158 100.144ZM846.153 116.247C831.018 123.762 812.663 117.597 805.157 102.479C797.65 87.3596 803.834 69.0115 818.969 61.4968C834.104 53.9822 852.459 60.1467 859.965 75.2656C867.472 90.3846 861.288 108.733 846.153 116.247Z" fill="#DEE6F1"/>
<path fill-rule="evenodd" clip-rule="evenodd" d="M810.974 45.3937C804.742 48.488 797.184 45.9497 794.093 39.7242C791.002 33.4988 793.548 25.9436 799.78 22.8494C806.012 19.7551 813.57 22.2935 816.661 28.5189C819.752 34.7443 817.206 42.2995 810.974 45.3937ZM818.969 61.4968C803.834 69.0115 785.479 62.8469 777.973 47.728C770.466 32.6091 776.65 14.2609 791.785 6.74628C806.92 -0.768358 825.275 5.39615 832.781 20.5151C840.288 35.634 834.104 53.9822 818.969 61.4968Z" fill="#DEE6F1"/>
<path fill-rule="evenodd" clip-rule="evenodd" d="M892.526 209.645C886.294 212.74 878.736 210.201 875.645 203.976C872.554 197.75 875.1 190.195 881.332 187.101C887.564 184.007 895.122 186.545 898.213 192.771C901.304 198.996 898.758 206.551 892.526 209.645ZM900.521 225.748C885.386 233.263 867.031 227.099 859.525 211.98C852.018 196.861 858.202 178.513 873.337 170.998C888.472 163.483 906.827 169.648 914.333 184.767C921.84 199.886 915.656 218.234 900.521 225.748Z" fill="#DEE6F1"/>
<path fill-rule="evenodd" clip-rule="evenodd" d="M838.599 -36.5698C832.367 -33.4755 824.809 -36.0139 821.718 -42.2393C818.627 -48.4648 821.173 -56.0199 827.405 -59.1141C833.637 -62.2084 841.195 -59.6701 844.286 -53.4446C847.377 -47.2192 844.831 -39.6641 838.599 -36.5698ZM846.594 -20.4667C831.459 -12.9521 813.104 -19.1166 805.598 -34.2355C798.091 -49.3545 804.275 -67.7026 819.41 -75.2172C834.545 -82.7319 852.9 -76.5674 860.406 -61.4484C867.913 -46.3295 861.729 -27.9813 846.594 -20.4667Z" fill="#DEE6F1"/>
<path fill-rule="evenodd" clip-rule="evenodd" d="M920.151 127.682C913.919 130.776 906.361 128.238 903.27 122.012C900.179 115.787 902.725 108.232 908.957 105.137C915.189 102.043 922.747 104.582 925.838 110.807C928.929 117.032 926.383 124.588 920.151 127.682ZM928.146 143.785C913.011 151.3 894.656 145.135 887.15 130.016C879.643 114.897 885.827 96.549 900.962 89.0344C916.097 81.5198 934.452 87.6842 941.958 102.803C949.465 117.922 943.281 136.27 928.146 143.785Z" fill="#DEE6F1"/>
<path fill-rule="evenodd" clip-rule="evenodd" d="M647.526 -9.94841C641.294 -6.85415 633.736 -9.39247 630.645 -15.6179C627.554 -21.8434 630.1 -29.3985 636.332 -32.4927C642.564 -35.587 650.122 -33.0487 653.213 -26.8232C656.304 -20.5978 653.758 -13.0427 647.526 -9.94841ZM655.521 6.15469C640.386 13.6693 622.031 7.5048 614.525 -7.61414C607.018 -22.7331 613.202 -41.0812 628.337 -48.5958C643.472 -56.1105 661.827 -49.946 669.333 -34.827C676.84 -19.7081 670.656 -1.35995 655.521 6.15469Z" fill="#DEE6F1"/>
<path fill-rule="evenodd" clip-rule="evenodd" d="M729.078 154.303C722.846 157.397 715.288 154.859 712.197 148.634C709.106 142.408 711.652 134.853 717.884 131.759C724.116 128.665 731.674 131.203 734.765 137.428C737.856 143.654 735.31 151.209 729.078 154.303ZM737.073 170.406C721.938 177.921 703.583 171.756 696.077 156.637C688.57 141.519 694.754 123.17 709.889 115.656C725.024 108.141 743.379 114.306 750.885 129.425C758.392 144.544 752.208 162.892 737.073 170.406Z" fill="#DEE6F1"/>
<path fill-rule="evenodd" clip-rule="evenodd" d="M701.894 99.5527C695.662 102.647 688.104 100.109 685.013 93.8832C681.922 87.6577 684.468 80.1026 690.7 77.0083C696.932 73.9141 704.49 76.4524 707.581 82.6778C710.672 88.9033 708.126 96.4584 701.894 99.5527ZM709.889 115.656C694.754 123.17 676.399 117.006 668.893 101.887C661.386 86.768 667.57 68.4199 682.705 60.9052C697.84 53.3906 716.195 59.5551 723.701 74.674C731.208 89.793 725.024 108.141 709.889 115.656Z" fill="#DEE6F1"/>
<path fill-rule="evenodd" clip-rule="evenodd" d="M783.446 263.804C777.213 266.899 769.656 264.36 766.565 258.135C763.474 251.909 766.02 244.354 772.252 241.26C778.484 238.166 786.042 240.704 789.133 246.929C792.224 253.155 789.678 260.71 783.446 263.804ZM791.441 279.907C776.306 287.422 757.951 281.258 750.444 266.139C742.938 251.02 749.122 232.671 764.257 225.157C779.392 217.642 797.747 223.807 805.253 238.926C812.76 254.045 806.576 272.393 791.441 279.907Z" fill="#DEE6F1"/>
<path fill-rule="evenodd" clip-rule="evenodd" d="M729.518 17.5893C723.286 20.6835 715.728 18.1452 712.637 11.9198C709.546 5.69432 712.093 -1.8608 718.325 -4.95507C724.557 -8.04932 732.115 -5.51099 735.206 0.714455C738.297 6.9399 735.75 14.495 729.518 17.5893ZM737.514 33.6924C722.379 41.207 704.024 35.0425 696.517 19.9236C689.011 4.80462 695.195 -13.5435 710.33 -21.0582C725.465 -28.5728 743.819 -22.4083 751.326 -7.28934C758.833 7.8296 752.649 26.1777 737.514 33.6924Z" fill="#DEE6F1"/>
<path fill-rule="evenodd" clip-rule="evenodd" d="M811.07 181.841C804.838 184.935 797.28 182.397 794.189 176.171C791.098 169.946 793.645 162.391 799.877 159.297C806.109 156.202 813.667 158.741 816.758 164.966C819.849 171.192 817.302 178.747 811.07 181.841ZM819.066 197.944C803.931 205.459 785.576 199.294 778.069 184.175C770.562 169.056 776.747 150.708 791.882 143.193C807.017 135.679 825.371 141.843 832.878 156.962C840.385 172.081 834.201 190.429 819.066 197.944Z" fill="#DEE6F1"/>
<path fill-rule="evenodd" clip-rule="evenodd" d="M428.29 98.9032C422.058 101.997 414.5 99.4592 411.41 93.2337C408.319 87.0083 410.865 79.4532 417.097 76.3589C423.329 73.2646 430.887 75.803 433.978 82.0284C437.069 88.2539 434.522 95.809 428.29 98.9032ZM436.286 115.006C421.151 122.521 402.796 116.356 395.289 101.238C387.783 86.1186 393.967 67.7704 409.102 60.2558C424.237 52.7412 442.591 58.9057 450.098 74.0246C457.605 89.1435 451.421 107.492 436.286 115.006Z" fill="#DEE6F1"/>
<path fill-rule="evenodd" clip-rule="evenodd" d="M509.842 263.155C503.61 266.249 496.052 263.711 492.961 257.485C489.87 251.26 492.417 243.705 498.649 240.611C504.881 237.516 512.439 240.055 515.53 246.28C518.621 252.505 516.074 260.061 509.842 263.155ZM517.838 279.258C502.703 286.773 484.348 280.608 476.841 265.489C469.335 250.37 475.519 232.022 490.654 224.507C505.789 216.993 524.143 223.157 531.65 238.276C539.157 253.395 532.973 271.743 517.838 279.258Z" fill="#DEE6F1"/>
<path fill-rule="evenodd" clip-rule="evenodd" d="M482.658 208.404C476.426 211.499 468.868 208.96 465.777 202.735C462.686 196.509 465.233 188.954 471.465 185.86C477.697 182.766 485.255 185.304 488.346 191.529C491.437 197.755 488.89 205.31 482.658 208.404ZM490.654 224.507C475.519 232.022 457.164 225.858 449.657 210.739C442.151 195.62 448.335 177.272 463.47 169.757C478.605 162.242 496.959 168.407 504.466 183.526C511.973 198.645 505.789 216.993 490.654 224.507Z" fill="#DEE6F1"/>
<path fill-rule="evenodd" clip-rule="evenodd" d="M564.21 372.656C557.978 375.75 550.42 373.212 547.329 366.986C544.238 360.761 546.785 353.206 553.017 350.112C559.249 347.017 566.807 349.556 569.898 355.781C572.989 362.007 570.442 369.562 564.21 372.656ZM572.206 388.759C557.071 396.274 538.716 390.109 531.209 374.99C523.703 359.871 529.887 341.523 545.022 334.008C560.157 326.494 578.511 332.658 586.018 347.777C593.525 362.896 587.341 381.244 572.206 388.759Z" fill="#DEE6F1"/>
<path fill-rule="evenodd" clip-rule="evenodd" d="M510.283 126.441C504.051 129.535 496.493 126.997 493.402 120.771C490.311 114.546 492.858 106.991 499.09 103.897C505.322 100.802 512.88 103.341 515.971 109.566C519.062 115.791 516.515 123.347 510.283 126.441ZM518.278 142.544C503.143 150.059 484.789 143.894 477.282 128.775C469.775 113.656 475.959 95.3081 491.094 87.7934C506.229 80.2788 524.584 86.4433 532.091 101.562C539.597 116.681 533.413 135.029 518.278 142.544Z" fill="#DEE6F1"/>
<path fill-rule="evenodd" clip-rule="evenodd" d="M591.835 290.692C585.603 293.787 578.045 291.248 574.954 285.023C571.863 278.798 574.41 271.242 580.642 268.148C586.874 265.054 594.432 267.592 597.523 273.818C600.613 280.043 598.067 287.598 591.835 290.692ZM599.83 306.796C584.695 314.31 566.341 308.146 558.834 293.027C551.327 277.908 557.511 259.56 572.646 252.045C587.781 244.53 606.136 250.695 613.643 265.814C621.149 280.933 614.965 299.281 599.83 306.796Z" fill="#DEE6F1"/>
<path fill-rule="evenodd" clip-rule="evenodd" d="M537.908 44.4774C531.676 47.5717 524.118 45.0333 521.027 38.8079C517.936 32.5824 520.483 25.0273 526.715 21.933C532.947 18.8388 540.505 21.3771 543.596 27.6026C546.687 33.828 544.14 41.3831 537.908 44.4774ZM545.903 60.5805C530.768 68.0951 512.414 61.9306 504.907 46.8117C497.4 31.6927 503.584 13.3446 518.719 5.82994C533.854 -1.68469 552.209 4.47981 559.716 19.5988C567.222 34.7177 561.038 53.0659 545.903 60.5805Z" fill="#DEE6F1"/>
<path fill-rule="evenodd" clip-rule="evenodd" d="M619.46 208.729C613.228 211.823 605.67 209.285 602.579 203.059C599.488 196.834 602.035 189.279 608.267 186.185C614.499 183.09 622.057 185.629 625.148 191.854C628.238 198.08 625.692 205.635 619.46 208.729ZM627.455 224.832C612.32 232.347 593.966 226.182 586.459 211.063C578.952 195.944 585.136 177.596 600.271 170.082C615.406 162.567 633.761 168.731 641.268 183.85C648.774 198.969 642.59 217.317 627.455 224.832Z" fill="#DEE6F1"/>
<path fill-rule="evenodd" clip-rule="evenodd" d="M592.276 153.978C586.044 157.073 578.486 154.534 575.395 148.309C572.304 142.084 574.851 134.528 581.083 131.434C587.315 128.34 594.873 130.878 597.964 137.104C601.055 143.329 598.508 150.884 592.276 153.978ZM600.271 170.082C585.136 177.596 566.782 171.432 559.275 156.313C551.768 141.194 557.952 122.846 573.087 115.331C588.222 107.816 606.577 113.981 614.084 129.1C621.59 144.219 615.406 162.567 600.271 170.082Z" fill="#DEE6F1"/>
<path fill-rule="evenodd" clip-rule="evenodd" d="M673.828 318.23C667.596 321.324 660.038 318.786 656.947 312.561C653.856 306.335 656.402 298.78 662.635 295.686C668.867 292.591 676.424 295.13 679.515 301.355C682.606 307.581 680.06 315.136 673.828 318.23ZM681.823 334.333C666.688 341.848 648.334 335.683 640.827 320.564C633.32 305.445 639.504 287.097 654.639 279.583C669.774 272.068 688.129 278.233 695.636 293.351C703.142 308.47 696.958 326.819 681.823 334.333Z" fill="#DEE6F1"/>
<path fill-rule="evenodd" clip-rule="evenodd" d="M619.901 72.0151C613.669 75.1093 606.111 72.571 603.02 66.3456C599.929 60.1201 602.475 52.565 608.707 49.4707C614.939 46.3765 622.497 48.9148 625.588 55.1402C628.679 61.3657 626.133 68.9208 619.901 72.0151ZM627.896 88.1182C612.761 95.6328 594.406 89.4683 586.9 74.3493C579.393 59.2304 585.577 40.8823 600.712 33.3676C615.847 25.853 634.202 32.0175 641.708 47.1364C649.215 62.2554 643.031 80.6035 627.896 88.1182Z" fill="#DEE6F1"/>
<path fill-rule="evenodd" clip-rule="evenodd" d="M701.453 236.267C695.221 239.361 687.663 236.823 684.572 230.597C681.481 224.372 684.027 216.817 690.259 213.722C696.491 210.628 704.049 213.166 707.14 219.392C710.231 225.617 707.685 233.172 701.453 236.267ZM709.448 252.37C694.313 259.884 675.958 253.72 668.452 238.601C660.945 223.482 667.129 205.134 682.264 197.619C697.399 190.105 715.754 196.269 723.26 211.388C730.767 226.507 724.583 244.855 709.448 252.37Z" fill="#DEE6F1"/>
<path fill-rule="evenodd" clip-rule="evenodd" d="M318.673 153.329C312.441 156.423 304.883 153.885 301.792 147.66C298.701 141.434 301.247 133.879 307.479 130.785C313.711 127.69 321.269 130.229 324.36 136.454C327.451 142.68 324.905 150.235 318.673 153.329ZM326.668 169.432C311.533 176.947 293.178 170.782 285.672 155.663C278.165 140.544 284.349 122.196 299.484 114.682C314.619 107.167 332.974 113.331 340.48 128.45C347.987 143.569 341.803 161.917 326.668 169.432Z" fill="#DEE6F1"/>
<path fill-rule="evenodd" clip-rule="evenodd" d="M400.225 317.581C393.993 320.675 386.435 318.137 383.344 311.911C380.253 305.686 382.799 298.131 389.031 295.036C395.263 291.942 402.821 294.48 405.912 300.706C409.003 306.931 406.457 314.486 400.225 317.581ZM408.22 333.684C393.085 341.198 374.73 335.034 367.224 319.915C359.717 304.796 365.901 286.448 381.036 278.933C396.171 271.419 414.526 277.583 422.032 292.702C429.539 307.821 423.355 326.169 408.22 333.684Z" fill="#DEE6F1"/>
<path fill-rule="evenodd" clip-rule="evenodd" d="M373.041 262.83C366.809 265.924 359.251 263.386 356.16 257.161C353.069 250.935 355.615 243.38 361.847 240.286C368.079 237.192 375.637 239.73 378.728 245.955C381.819 252.181 379.273 259.736 373.041 262.83ZM381.036 278.933C365.901 286.448 347.546 280.283 340.04 265.164C332.533 250.045 338.717 231.697 353.852 224.183C368.987 216.668 387.342 222.833 394.848 237.951C402.355 253.07 396.171 271.419 381.036 278.933Z" fill="#DEE6F1"/>
<path fill-rule="evenodd" clip-rule="evenodd" d="M454.593 427.082C448.361 430.176 440.803 427.638 437.712 421.412C434.621 415.187 437.167 407.632 443.399 404.537C449.631 401.443 457.189 403.981 460.28 410.207C463.371 416.432 460.825 423.987 454.593 427.082ZM462.588 443.185C447.453 450.699 429.098 444.535 421.592 429.416C414.085 414.297 420.269 395.949 435.404 388.434C450.539 380.92 468.894 387.084 476.4 402.203C483.907 417.322 477.723 435.67 462.588 443.185Z" fill="#DEE6F1"/>
<path fill-rule="evenodd" clip-rule="evenodd" d="M400.666 180.867C394.433 183.961 386.876 181.423 383.785 175.197C380.694 168.972 383.24 161.417 389.472 158.322C395.704 155.228 403.262 157.766 406.353 163.992C409.444 170.217 406.898 177.772 400.666 180.867ZM408.661 196.97C393.526 204.484 375.171 198.32 367.664 183.201C360.158 168.082 366.342 149.734 381.477 142.219C396.612 134.705 414.967 140.869 422.473 155.988C429.98 171.107 423.796 189.455 408.661 196.97Z" fill="#DEE6F1"/>
<path fill-rule="evenodd" clip-rule="evenodd" d="M482.218 345.118C475.985 348.213 468.428 345.674 465.337 339.449C462.246 333.223 464.792 325.668 471.024 322.574C477.256 319.48 484.814 322.018 487.905 328.243C490.996 334.469 488.45 342.024 482.218 345.118ZM490.213 361.221C475.078 368.736 456.723 362.572 449.216 347.453C441.71 332.334 447.894 313.986 463.029 306.471C478.164 298.956 496.519 305.121 504.025 320.24C511.532 335.359 505.348 353.707 490.213 361.221Z" fill="#DEE6F1"/>
<path fill-rule="evenodd" clip-rule="evenodd" d="M815.146 -83.8055C804.759 -78.6484 792.163 -82.879 787.011 -93.2547C781.859 -103.63 786.103 -116.222 796.49 -121.379C806.877 -126.537 819.473 -122.306 824.625 -111.93C829.777 -101.555 825.533 -88.9626 815.146 -83.8055ZM819.41 -75.2172C804.275 -67.7026 785.92 -73.867 778.414 -88.986C770.907 -104.105 777.091 -122.453 792.226 -129.968C807.361 -137.482 825.716 -131.318 833.222 -116.199C840.729 -101.08 834.545 -82.7319 819.41 -75.2172Z" fill="#DEE6F1"/>
<path fill-rule="evenodd" clip-rule="evenodd" d="M896.698 80.4461C886.311 85.6032 873.715 81.3726 868.563 70.9969C863.411 60.6212 867.655 48.0293 878.042 42.8722C888.429 37.7151 901.025 41.9456 906.177 52.3214C911.329 62.6971 907.085 75.289 896.698 80.4461ZM900.962 89.0344C885.827 96.549 867.472 90.3846 859.965 75.2656C852.459 60.1467 858.643 41.7985 873.778 34.2839C888.913 26.7692 907.268 32.9337 914.774 48.0527C922.281 63.1716 916.097 81.5198 900.962 89.0344Z" fill="#DEE6F1"/>
<path fill-rule="evenodd" clip-rule="evenodd" d="M869.514 25.6955C859.127 30.8526 846.531 26.6221 841.379 16.2464C836.227 5.8706 840.471 -6.72126 850.858 -11.8784C861.245 -17.0355 873.841 -12.8049 878.993 -2.42917C884.145 7.94656 879.901 20.5384 869.514 25.6955ZM873.778 34.2839C858.643 41.7985 840.288 35.634 832.781 20.5151C825.275 5.39615 831.459 -12.9521 846.594 -20.4667C861.729 -27.9813 880.084 -21.8168 887.59 -6.69785C895.097 8.42108 888.913 26.7692 873.778 34.2839Z" fill="#DEE6F1"/>
<path fill-rule="evenodd" clip-rule="evenodd" d="M951.066 189.947C940.679 195.104 928.083 190.874 922.931 180.498C917.779 170.122 922.023 157.53 932.41 152.373C942.797 147.216 955.393 151.447 960.545 161.822C965.696 172.198 961.453 184.79 951.066 189.947ZM955.33 198.535C940.195 206.05 921.84 199.886 914.333 184.767C906.827 169.648 913.011 151.3 928.146 143.785C943.281 136.27 961.636 142.435 969.142 157.554C976.649 172.673 970.465 191.021 955.33 198.535Z" fill="#DEE6F1"/>
<path fill-rule="evenodd" clip-rule="evenodd" d="M897.139 -56.2679C886.752 -51.1108 874.155 -55.3414 869.004 -65.7171C863.852 -76.0928 868.096 -88.6847 878.483 -93.8418C888.87 -98.9989 901.466 -94.7684 906.618 -84.3926C911.769 -74.0169 907.525 -61.425 897.139 -56.2679ZM901.403 -47.6796C886.268 -40.1649 867.913 -46.3295 860.406 -61.4484C852.9 -76.5674 859.084 -94.9155 874.219 -102.43C889.354 -109.945 907.709 -103.78 915.215 -88.6613C922.722 -73.5424 916.538 -55.1942 901.403 -47.6796Z" fill="#DEE6F1"/>
<path fill-rule="evenodd" clip-rule="evenodd" d="M978.691 107.984C968.304 113.141 955.707 108.91 950.556 98.5345C945.404 88.1588 949.648 75.5669 960.035 70.4098C970.422 65.2527 983.018 69.4833 988.17 79.859C993.321 90.2347 989.077 102.827 978.691 107.984ZM982.955 116.572C967.82 124.087 949.465 117.922 941.958 102.803C934.452 87.6842 940.636 69.3362 955.771 61.8215C970.906 54.3069 989.26 60.4714 996.767 75.5903C1004.27 90.7093 998.09 109.057 982.955 116.572Z" fill="#DEE6F1"/>
<path fill-rule="evenodd" clip-rule="evenodd" d="M705.797 -29.5131C695.638 -24.4693 683.122 -28.64 677.931 -39.0957C672.74 -49.5514 676.983 -62.0432 687.141 -67.087C697.3 -72.1309 709.816 -67.9602 715.007 -57.5045C720.199 -47.0487 715.956 -34.557 705.797 -29.5131ZM710.061 -20.9248C695.074 -13.4839 676.84 -19.7081 669.333 -34.827C661.827 -49.946 667.89 -68.2344 682.877 -75.6754C697.864 -83.1163 716.098 -76.892 723.605 -61.7731C731.111 -46.6541 725.048 -28.3658 710.061 -20.9248Z" fill="#DEE6F1"/>
<path fill-rule="evenodd" clip-rule="evenodd" d="M787.349 134.738C777.19 139.782 764.674 135.612 759.483 125.156C754.291 114.7 758.534 102.208 768.693 97.1646C778.852 92.1207 791.368 96.2914 796.559 106.747C801.751 117.203 797.508 129.695 787.349 134.738ZM791.613 143.327C776.626 150.768 758.392 144.544 750.885 129.425C743.379 114.306 749.442 96.0172 764.429 88.5763C779.416 81.1353 797.65 87.3596 805.157 102.479C812.663 117.597 806.6 135.886 791.613 143.327Z" fill="#DEE6F1"/>
<path fill-rule="evenodd" clip-rule="evenodd" d="M760.165 79.9879C750.006 85.0318 737.49 80.8611 732.299 70.4054C727.107 59.9496 731.351 47.4579 741.509 42.414C751.668 37.3702 764.184 41.5409 769.375 51.9966C774.567 62.4523 770.324 74.944 760.165 79.9879ZM764.429 88.5763C749.442 96.0172 731.208 89.793 723.701 74.674C716.195 59.5551 722.258 41.2667 737.245 33.8257C752.232 26.3848 770.466 32.6091 777.973 47.728C785.479 62.8469 779.416 81.1353 764.429 88.5763Z" fill="#DEE6F1"/>
<path fill-rule="evenodd" clip-rule="evenodd" d="M841.717 244.24C831.558 249.283 819.042 245.113 813.851 234.657C808.659 224.201 812.902 211.71 823.061 206.666C833.22 201.622 845.736 205.793 850.927 216.248C856.119 226.704 851.876 239.196 841.717 244.24ZM845.981 252.828C830.994 260.269 812.76 254.045 805.253 238.926C797.747 223.807 803.81 205.518 818.797 198.077C833.784 190.636 852.018 196.861 859.525 211.98C867.031 227.099 860.968 245.387 845.981 252.828Z" fill="#DEE6F1"/>
<path fill-rule="evenodd" clip-rule="evenodd" d="M787.79 -1.97545C777.631 3.06842 765.115 -1.10232 759.923 -11.558C754.732 -22.0138 758.975 -34.5055 769.134 -39.5493C779.293 -44.5932 791.809 -40.4225 797 -29.9668C802.191 -19.511 797.948 -7.01933 787.79 -1.97545ZM792.054 6.61287C777.067 14.0538 758.833 7.8296 751.326 -7.28934C743.819 -22.4083 749.883 -40.6967 764.87 -48.1377C779.856 -55.5786 798.091 -49.3545 805.598 -34.2355C813.104 -19.1166 807.04 -0.828093 792.054 6.61287Z" fill="#DEE6F1"/>
<path fill-rule="evenodd" clip-rule="evenodd" d="M869.342 162.276C859.183 167.32 846.667 163.149 841.475 152.694C836.284 142.238 840.527 129.746 850.686 124.702C860.845 119.658 873.361 123.829 878.552 134.285C883.743 144.741 879.5 157.232 869.342 162.276ZM873.606 170.865C858.619 178.305 840.385 172.081 832.878 156.962C825.371 141.843 831.435 123.555 846.422 116.114C861.408 108.673 879.643 114.897 887.15 130.016C894.656 145.135 888.592 163.424 873.606 170.865Z" fill="#DEE6F1"/>
<path fill-rule="evenodd" clip-rule="evenodd" d="M596.448 24.7793C586.061 29.9364 573.465 25.7059 568.313 15.3301C563.162 4.95439 567.405 -7.63746 577.792 -12.7946C588.179 -17.9517 600.775 -13.7211 605.927 -3.34537C611.079 7.03037 606.835 19.6222 596.448 24.7793ZM600.712 33.3676C585.577 40.8823 567.222 34.7177 559.716 19.5988C552.209 4.47981 558.393 -13.8683 573.528 -21.3829C588.663 -28.8975 607.018 -22.7331 614.525 -7.61414C622.031 7.5048 615.847 25.853 600.712 33.3676Z" fill="#DEE6F1"/>
<path fill-rule="evenodd" clip-rule="evenodd" d="M678 189.031C667.613 194.188 655.017 189.957 649.865 179.582C644.713 169.206 648.957 156.614 659.344 151.457C669.731 146.3 682.327 150.531 687.479 160.906C692.631 171.282 688.387 183.874 678 189.031ZM682.264 197.619C667.129 205.134 648.774 198.969 641.268 183.85C633.761 168.731 639.945 150.383 655.08 142.869C670.215 135.354 688.57 141.519 696.077 156.637C703.583 171.756 697.399 190.105 682.264 197.619Z" fill="#DEE6F1"/>
<path fill-rule="evenodd" clip-rule="evenodd" d="M650.816 134.28C640.429 139.438 627.833 135.207 622.681 124.831C617.529 114.455 621.773 101.864 632.16 96.7065C642.547 91.5494 655.143 95.78 660.295 106.156C665.447 116.531 661.203 129.123 650.816 134.28ZM655.08 142.869C639.945 150.383 621.59 144.219 614.084 129.1C606.577 113.981 612.761 95.6328 627.896 88.1182C643.031 80.6035 661.386 86.768 668.893 101.887C676.399 117.006 670.215 135.354 655.08 142.869Z" fill="#DEE6F1"/>
<path fill-rule="evenodd" clip-rule="evenodd" d="M732.368 298.532C721.981 303.689 709.385 299.459 704.233 289.083C699.081 278.707 703.325 266.115 713.712 260.958C724.099 255.801 736.695 260.032 741.847 270.407C746.998 280.783 742.755 293.375 732.368 298.532ZM736.632 307.12C721.497 314.635 703.142 308.47 695.636 293.351C688.129 278.233 694.313 259.884 709.448 252.37C724.583 244.855 742.938 251.02 750.444 266.139C757.951 281.258 751.767 299.606 736.632 307.12Z" fill="#DEE6F1"/>
<path fill-rule="evenodd" clip-rule="evenodd" d="M678.441 52.3169C668.054 57.474 655.458 53.2434 650.306 42.8677C645.154 32.4919 649.398 19.9001 659.785 14.743C670.172 9.58588 682.768 13.8164 687.92 24.1922C693.072 34.5679 688.828 47.1598 678.441 52.3169ZM682.705 60.9052C667.57 68.4199 649.215 62.2554 641.708 47.1364C634.202 32.0175 640.386 13.6693 655.521 6.15469C670.656 -1.35995 689.011 4.80462 696.517 19.9236C704.024 35.0425 697.84 53.3906 682.705 60.9052Z" fill="#DEE6F1"/>
<path fill-rule="evenodd" clip-rule="evenodd" d="M759.993 216.569C749.606 221.726 737.01 217.495 731.858 207.119C726.706 196.744 730.95 184.152 741.337 178.995C751.724 173.838 764.32 178.068 769.472 188.444C774.623 198.82 770.38 211.411 759.993 216.569ZM764.257 225.157C749.122 232.671 730.767 226.507 723.26 211.388C715.754 196.269 721.938 177.921 737.073 170.406C752.208 162.892 770.562 169.056 778.069 184.175C785.576 199.294 779.392 217.642 764.257 225.157Z" fill="#DEE6F1"/>
<path fill-rule="evenodd" clip-rule="evenodd" d="M377.213 133.631C366.826 138.788 354.23 134.557 349.078 124.182C343.926 113.806 348.17 101.214 358.557 96.057C368.944 90.8999 381.54 95.1305 386.692 105.506C391.843 115.882 387.599 128.474 377.213 133.631ZM381.477 142.219C366.342 149.734 347.987 143.569 340.48 128.45C332.974 113.331 339.158 94.9833 354.293 87.4687C369.428 79.9541 387.783 86.1186 395.289 101.238C402.796 116.356 396.612 134.705 381.477 142.219Z" fill="#DEE6F1"/>
<path fill-rule="evenodd" clip-rule="evenodd" d="M458.765 297.883C448.378 303.04 435.781 298.809 430.63 288.433C425.478 278.058 429.722 265.466 440.109 260.309C450.496 255.152 463.092 259.382 468.244 269.758C473.395 280.134 469.151 292.725 458.765 297.883ZM463.029 306.471C447.894 313.986 429.539 307.821 422.032 292.702C414.526 277.583 420.71 259.235 435.845 251.72C450.98 244.206 469.335 250.37 476.841 265.489C484.348 280.608 478.164 298.956 463.029 306.471Z" fill="#DEE6F1"/>
<path fill-rule="evenodd" clip-rule="evenodd" d="M431.581 243.132C421.194 248.289 408.597 244.059 403.446 233.683C398.294 223.307 402.538 210.715 412.925 205.558C423.312 200.401 435.908 204.632 441.06 215.007C446.211 225.383 441.967 237.975 431.581 243.132ZM435.845 251.72C420.71 259.235 402.355 253.07 394.848 237.951C387.342 222.833 393.526 204.484 408.661 196.97C423.796 189.455 442.151 195.62 449.657 210.739C457.164 225.858 450.98 244.206 435.845 251.72Z" fill="#DEE6F1"/>
<path fill-rule="evenodd" clip-rule="evenodd" d="M513.133 407.384C502.746 412.541 490.149 408.31 484.998 397.934C479.846 387.559 484.09 374.967 494.477 369.81C504.864 364.653 517.46 368.883 522.612 379.259C527.763 389.635 523.519 402.227 513.133 407.384ZM517.397 415.972C502.262 423.487 483.907 417.322 476.4 402.203C468.894 387.084 475.078 368.736 490.213 361.221C505.348 353.707 523.703 359.871 531.209 374.99C538.716 390.109 532.532 408.457 517.397 415.972Z" fill="#DEE6F1"/>
<path fill-rule="evenodd" clip-rule="evenodd" d="M459.205 161.169C448.819 166.326 436.222 162.095 431.071 151.719C425.919 141.344 430.163 128.752 440.55 123.595C450.937 118.438 463.533 122.668 468.685 133.044C473.836 143.42 469.592 156.011 459.205 161.169ZM463.47 169.757C448.335 177.272 429.98 171.107 422.473 155.988C414.967 140.869 421.151 122.521 436.286 115.006C451.421 107.492 469.775 113.656 477.282 128.775C484.789 143.894 478.605 162.242 463.47 169.757Z" fill="#DEE6F1"/>
<path fill-rule="evenodd" clip-rule="evenodd" d="M540.757 325.42C530.371 330.577 517.774 326.347 512.623 315.971C507.471 305.595 511.715 293.003 522.102 287.846C532.489 282.689 545.085 286.92 550.237 297.295C555.388 307.671 551.144 320.263 540.757 325.42ZM545.022 334.008C529.887 341.523 511.532 335.359 504.025 320.24C496.519 305.121 502.703 286.773 517.838 279.258C532.973 271.743 551.327 277.908 558.834 293.027C566.341 308.146 560.157 326.494 545.022 334.008Z" fill="#DEE6F1"/>
<path fill-rule="evenodd" clip-rule="evenodd" d="M486.83 79.2051C476.444 84.3622 463.847 80.1317 458.696 69.7559C453.544 59.3802 457.788 46.7883 468.175 41.6312C478.561 36.4741 491.158 40.7047 496.309 51.0804C501.461 61.4562 497.217 74.048 486.83 79.2051ZM491.094 87.7934C475.959 95.3081 457.605 89.1435 450.098 74.0246C442.591 58.9057 448.775 40.5575 463.91 33.0429C479.046 25.5283 497.4 31.6927 504.907 46.8117C512.414 61.9306 506.229 80.2788 491.094 87.7934Z" fill="#DEE6F1"/>
<path fill-rule="evenodd" clip-rule="evenodd" d="M568.382 243.457C557.995 248.614 545.399 244.383 540.247 234.008C535.096 223.632 539.34 211.04 549.727 205.883C560.113 200.726 572.71 204.956 577.861 215.332C583.013 225.708 578.769 238.3 568.382 243.457ZM572.646 252.045C557.511 259.56 539.157 253.395 531.65 238.276C524.143 223.157 530.327 204.809 545.462 197.295C560.597 189.78 578.952 195.944 586.459 211.063C593.966 226.182 587.781 244.53 572.646 252.045Z" fill="#DEE6F1"/>
<path fill-rule="evenodd" clip-rule="evenodd" d="M541.198 188.706C530.811 193.863 518.215 189.633 513.063 179.257C507.912 168.881 512.156 156.289 522.543 151.132C532.929 145.975 545.526 150.206 550.677 160.581C555.829 170.957 551.585 183.549 541.198 188.706ZM545.462 197.295C530.327 204.809 511.973 198.645 504.466 183.526C496.959 168.407 503.143 150.059 518.278 142.544C533.413 135.029 551.768 141.194 559.275 156.313C566.782 171.432 560.597 189.78 545.462 197.295Z" fill="#DEE6F1"/>
<path fill-rule="evenodd" clip-rule="evenodd" d="M622.75 352.958C612.363 358.115 599.767 353.884 594.615 343.509C589.464 333.133 593.708 320.541 604.095 315.384C614.481 310.227 627.078 314.457 632.229 324.833C637.381 335.209 633.137 347.801 622.75 352.958ZM627.014 361.546C611.879 369.061 593.525 362.896 586.018 347.777C578.511 332.658 584.695 314.31 599.83 306.796C614.965 299.281 633.32 305.445 640.827 320.564C648.334 335.683 642.149 354.032 627.014 361.546Z" fill="#DEE6F1"/>
<path fill-rule="evenodd" clip-rule="evenodd" d="M568.823 106.743C558.436 111.9 545.84 107.669 540.688 97.2935C535.537 86.9177 539.781 74.3259 550.168 69.1688C560.554 64.0117 573.151 68.2422 578.302 78.618C583.454 88.9937 579.21 101.586 568.823 106.743ZM573.087 115.331C557.952 122.846 539.597 116.681 532.091 101.562C524.584 86.4433 530.768 68.0951 545.903 60.5805C561.038 53.0659 579.393 59.2304 586.9 74.3493C594.406 89.4683 588.222 107.816 573.087 115.331Z" fill="#DEE6F1"/>
<path fill-rule="evenodd" clip-rule="evenodd" d="M650.375 270.994C639.988 276.151 627.392 271.921 622.24 261.545C617.089 251.169 621.333 238.578 631.719 233.42C642.106 228.263 654.703 232.494 659.854 242.87C665.006 253.245 660.762 265.837 650.375 270.994ZM654.639 279.583C639.504 287.097 621.149 280.933 613.643 265.814C606.136 250.695 612.32 232.347 627.455 224.832C642.59 217.317 660.945 223.482 668.452 238.601C675.958 253.72 669.774 272.068 654.639 279.583Z" fill="#DEE6F1"/>
<path fill-rule="evenodd" clip-rule="evenodd" d="M267.595 188.057C257.208 193.214 244.612 188.983 239.46 178.608C234.309 168.232 238.553 155.64 248.939 150.483C259.326 145.326 271.923 149.556 277.074 159.932C282.226 170.308 277.982 182.9 267.595 188.057ZM271.859 196.645C256.724 204.16 238.37 197.995 230.863 182.876C223.356 167.757 229.54 149.409 244.675 141.895C259.81 134.38 278.165 140.544 285.672 155.663C293.178 170.782 286.994 189.13 271.859 196.645Z" fill="#DEE6F1"/>
<path fill-rule="evenodd" clip-rule="evenodd" d="M349.147 352.308C338.76 357.465 326.164 353.235 321.012 342.859C315.861 332.483 320.105 319.892 330.491 314.734C340.878 309.577 353.474 313.808 358.626 324.184C363.778 334.559 359.534 347.151 349.147 352.308ZM353.411 360.897C338.276 368.411 319.921 362.247 312.415 347.128C304.908 332.009 311.092 313.661 326.227 306.146C341.362 298.632 359.717 304.796 367.224 319.915C374.73 335.034 368.546 353.382 353.411 360.897Z" fill="#DEE6F1"/>
<path fill-rule="evenodd" clip-rule="evenodd" d="M321.963 297.558C311.576 302.715 298.98 298.484 293.828 288.109C288.677 277.733 292.921 265.141 303.307 259.984C313.694 254.827 326.29 259.057 331.442 269.433C336.594 279.809 332.35 292.401 321.963 297.558ZM326.227 306.146C311.092 313.661 292.737 307.496 285.231 292.377C277.724 277.258 283.908 258.91 299.043 251.396C314.178 243.881 332.533 250.045 340.04 265.164C347.546 280.283 341.362 298.632 326.227 306.146Z" fill="#DEE6F1"/>
<path fill-rule="evenodd" clip-rule="evenodd" d="M403.515 461.809C393.128 466.967 380.532 462.736 375.38 452.36C370.229 441.985 374.473 429.393 384.859 424.236C395.246 419.078 407.842 423.309 412.994 433.685C418.146 444.06 413.902 456.652 403.515 461.809ZM407.779 470.398C392.644 477.912 374.289 471.748 366.783 456.629C359.276 441.51 365.46 423.162 380.595 415.647C395.73 408.133 414.085 414.297 421.592 429.416C429.098 444.535 422.914 462.883 407.779 470.398Z" fill="#DEE6F1"/>
<path fill-rule="evenodd" clip-rule="evenodd" d="M349.588 215.594C339.201 220.751 326.605 216.521 321.453 206.145C316.302 195.769 320.545 183.178 330.932 178.02C341.319 172.863 353.915 177.094 359.067 187.47C364.219 197.845 359.975 210.437 349.588 215.594ZM353.852 224.183C338.717 231.697 320.362 225.533 312.856 210.414C305.349 195.295 311.533 176.947 326.668 169.432C341.803 161.917 360.158 168.082 367.664 183.201C375.171 198.32 368.987 216.668 353.852 224.183Z" fill="#DEE6F1"/>
<path fill-rule="evenodd" clip-rule="evenodd" d="M431.14 379.846C420.753 385.003 408.157 380.772 403.005 370.397C397.853 360.021 402.097 347.429 412.484 342.272C422.871 337.115 435.467 341.346 440.619 351.721C445.771 362.097 441.527 374.689 431.14 379.846ZM435.404 388.434C420.269 395.949 401.914 389.784 394.408 374.665C386.901 359.547 393.085 341.198 408.22 333.684C423.355 326.169 441.71 332.334 449.216 347.453C456.723 362.572 450.539 380.92 435.404 388.434Z" fill="#DEE6F1"/>
</svg>
