<svg width="42" height="60" viewBox="0 0 42 60" fill="none" xmlns="http://www.w3.org/2000/svg">
<path fill-rule="evenodd" clip-rule="evenodd" d="M0 5.64161C0 3.75574 0 2.8128 0.367015 2.09249C0.689851 1.45889 1.20498 0.943757 1.83859 0.620922C2.55889 0.253906 3.50183 0.253906 5.3877 0.253906H36.1804C38.0663 0.253906 39.0092 0.253906 39.7295 0.620922C40.3631 0.943757 40.8783 1.45889 41.2011 2.09249C41.5681 2.8128 41.5681 3.75574 41.5681 5.64161V24.3902C38.606 24.3904 36.2049 26.7917 36.2049 29.7538C36.2049 32.7159 38.606 35.1172 41.5681 35.1174V54.0896C41.5681 55.9754 41.5681 56.9184 41.2011 57.6387C40.8783 58.2723 40.3631 58.7874 39.7295 59.1103C39.0092 59.4773 38.0663 59.4773 36.1804 59.4773H5.3877C3.50183 59.4773 2.55889 59.4773 1.83859 59.1103C1.20498 58.7874 0.689851 58.2723 0.367015 57.6387C0 56.9184 0 55.9754 0 54.0896V35.1174C2.96223 35.1174 5.36359 32.716 5.36359 29.7538C5.36359 26.7915 2.96223 24.3902 0 24.3902V5.64161Z" fill="#FFDC32"/>
</svg>
