<svg width="156" height="52" viewBox="0 0 156 52" fill="none" xmlns="http://www.w3.org/2000/svg">
<path fill-rule="evenodd" clip-rule="evenodd" d="M145.681 0H9.48221C1.35373 0 0 2.81412 0 9.50682V42.5528C0 49.2409 2.78394 52 9.47304 52H145.682C152.376 52 155.258 49.2364 155.258 42.5436V9.50682C155.258 2.81412 152.375 0 145.681 0Z" fill="black"/>
<path d="M13.3158 10.3301C12.967 10.4524 12.6963 10.7782 12.6963 11.1988V41.5255C12.6963 41.943 12.9624 42.2657 13.3066 42.3912L29.4198 26.3568L13.3158 10.3301Z" fill="#00D6FF"/>
<path d="M33.9594 21.8382L14.0757 10.3997C13.8263 10.256 13.5541 10.2453 13.3154 10.3294L29.4194 26.3561L33.9594 21.8382Z" fill="#00F076"/>
<path d="M14.0761 42.3231L33.9674 30.88L29.4198 26.3545L13.3066 42.3889C13.5468 42.4776 13.8237 42.4684 14.0761 42.3231Z" fill="#FF3A44"/>
<path d="M33.9675 30.8817L40.4364 27.1607C41.0513 26.8074 41.0513 25.9188 40.4364 25.5655L33.9599 21.8398L29.4199 26.3577L33.9675 30.8817Z" fill="#FFD000"/>
<path d="M76.2795 29.825C73.4115 29.825 71.1415 31.9753 71.1415 34.9623C71.1415 37.8299 73.4115 40.0996 76.2795 40.0996C79.1476 40.0996 81.4176 37.9492 81.4176 34.9623C81.416 31.856 79.1461 29.825 76.2795 29.825ZM76.2795 37.9477C74.727 37.9477 73.4115 36.6339 73.4115 34.8415C73.4115 33.049 74.7254 31.7352 76.2795 31.7352C77.8321 31.7352 79.1476 32.9297 79.1476 34.8415C79.1461 36.6339 77.8321 37.9477 76.2795 37.9477ZM65.1667 29.825C62.2987 29.825 60.0287 31.9753 60.0287 34.9623C60.0287 37.8299 62.2987 40.0996 65.1667 40.0996C68.0348 40.0996 70.3048 37.9492 70.3048 34.9623C70.3048 31.856 68.0348 29.825 65.1667 29.825ZM65.1667 37.9477C63.6142 37.9477 62.2987 36.6339 62.2987 34.8415C62.2987 33.049 63.6126 31.7352 65.1667 31.7352C66.7208 31.7352 68.0348 32.9297 68.0348 34.8415C68.0348 36.6339 66.7208 37.9477 65.1667 37.9477ZM51.9048 31.3773V33.5277H57.0428C56.9235 34.7222 56.4447 35.678 55.8482 36.2745C55.1308 36.9918 53.9361 37.8269 51.9048 37.8269C48.6788 37.8269 46.2895 35.3186 46.2895 32.0931C46.2895 28.8676 48.7981 26.3593 51.9048 26.3593C53.5782 26.3593 54.8922 27.0766 55.8482 27.9117L57.4008 26.3593C56.0868 25.1649 54.4134 24.209 52.0241 24.209C47.7228 24.209 44.0195 27.7924 44.0195 32.0931C44.0195 36.3938 47.7228 39.9772 52.0241 39.9772C54.4134 39.9772 56.0868 39.2599 57.5201 37.7076C58.9534 36.2745 59.4321 34.2435 59.4321 32.6896C59.4321 32.2124 59.4321 31.7337 59.3128 31.3758L51.9048 31.3773ZM106.149 33.0505C105.671 31.856 104.475 29.825 101.847 29.825C99.2195 29.825 97.0688 31.856 97.0688 34.9623C97.0688 37.8299 99.2195 40.0996 102.088 40.0996C104.358 40.0996 105.791 38.6665 106.27 37.8299L104.596 36.6355C103.998 37.472 103.282 38.0685 102.088 38.0685C100.893 38.0685 100.175 37.5913 99.5789 36.5162L106.389 33.6485L106.149 33.0505ZM99.2179 34.7222C99.2179 32.8104 100.771 31.7352 101.846 31.7352C102.683 31.7352 103.519 32.2124 103.758 32.8104L99.2179 34.7222ZM93.6027 39.6209H95.8726V24.6877H93.6027V39.6209ZM90.0187 30.9002C89.4206 30.3022 88.4661 29.7057 87.2715 29.7057C84.7629 29.7057 82.3736 31.9753 82.3736 34.843C82.3736 37.7106 84.6436 39.861 87.2715 39.861C88.4661 39.861 89.4221 39.263 89.8994 38.6665H90.0187V39.3838C90.0187 41.2956 88.9434 42.3708 87.2715 42.3708C85.9575 42.3708 85.0015 41.4149 84.7629 40.5783L82.8508 41.4149C83.4489 42.7286 84.8822 44.4018 87.3908 44.4018C90.0187 44.4018 92.1694 42.8495 92.1694 39.1452V30.0666H90.0187V30.9002ZM87.3908 37.9477C85.8382 37.9477 84.5227 36.6339 84.5227 34.8415C84.5227 33.049 85.8367 31.7352 87.3908 31.7352C88.9449 31.7352 90.138 33.049 90.138 34.8415C90.138 36.6339 88.9434 37.9477 87.3908 37.9477ZM116.543 24.6877H111.166V39.6209H113.436V34.0064H116.543C119.051 34.0064 121.44 32.2139 121.44 29.3478C121.44 26.4817 119.051 24.6877 116.543 24.6877ZM116.662 31.856H113.436V26.7187H116.662C118.335 26.7187 119.29 28.1518 119.29 29.227C119.17 30.5407 118.216 31.856 116.662 31.856ZM130.403 29.7057C128.729 29.7057 127.057 30.423 126.459 31.9753L128.491 32.8119C128.968 31.9753 129.685 31.7367 130.522 31.7367C131.717 31.7367 132.792 32.454 132.911 33.6485V33.7678C132.553 33.5292 131.597 33.1698 130.641 33.1698C128.491 33.1698 126.34 34.3643 126.34 36.5146C126.34 38.5457 128.133 39.8595 130.043 39.8595C131.596 39.8595 132.313 39.1422 132.911 38.4264H133.031V39.6209H135.181V33.8871C134.943 31.258 132.911 29.7057 130.403 29.7057ZM130.162 37.9477C129.445 37.9477 128.37 37.5898 128.37 36.6339C128.37 35.4395 129.684 35.0816 130.759 35.0816C131.715 35.0816 132.192 35.3202 132.79 35.5588C132.553 36.9918 131.357 37.9477 130.162 37.9477ZM142.709 30.0636L140.2 36.5146H140.081L137.453 30.0636H135.063L139.007 39.1422L136.737 44.1602H139.007L145.101 30.0636H142.709ZM122.637 39.6209H124.907V24.6877H122.637V39.6209Z" fill="white"/>
<path d="M48.187 15.8189H51.9102C51.9316 15.903 51.9484 16.007 51.9637 16.1263C51.9775 16.2471 51.9851 16.3664 51.9851 16.4872C51.9851 16.9751 51.9102 17.4339 51.7618 17.8652C51.6134 18.2965 51.3794 18.6819 51.0612 19.0214C50.7216 19.3824 50.3147 19.6607 49.8421 19.8596C49.3679 20.0568 48.8279 20.1563 48.2191 20.1563C47.6669 20.1563 47.1484 20.0568 46.6604 19.8596C46.1725 19.6623 45.7488 19.3854 45.3878 19.0321C45.0268 18.6788 44.7407 18.2598 44.5281 17.775C44.3155 17.2901 44.21 16.7625 44.21 16.189C44.21 15.6154 44.3155 15.0878 44.5281 14.603C44.7407 14.1181 45.0268 13.7006 45.3878 13.3458C45.7488 12.9925 46.1725 12.7172 46.6604 12.5184C47.1484 12.3211 47.6685 12.2217 48.2191 12.2217C48.8341 12.2217 49.3832 12.3272 49.8681 12.5398C50.353 12.7524 50.7675 13.046 51.1148 13.4192L50.1281 14.3843C49.8803 14.1227 49.605 13.9224 49.3006 13.7847C48.9962 13.6471 48.6321 13.5783 48.2084 13.5783C47.8612 13.5783 47.5339 13.641 47.2218 13.7633C46.9113 13.8872 46.639 14.0616 46.405 14.2879C46.171 14.5143 45.9859 14.788 45.8482 15.1092C45.7105 15.4304 45.6417 15.7898 45.6417 16.1859C45.6417 16.582 45.7105 16.9399 45.8482 17.2626C45.9859 17.5838 46.174 17.8576 46.4096 18.0839C46.6467 18.3103 46.9205 18.4846 47.231 18.6085C47.5415 18.7324 47.875 18.7936 48.2283 18.7936C48.6306 18.7936 48.9717 18.7354 49.2516 18.6192C49.5316 18.503 49.7702 18.3531 49.9675 18.168C50.1083 18.0411 50.2306 17.8805 50.3331 17.6863C50.4356 17.492 50.5151 17.2749 50.5717 17.0347H48.1855V15.8189H48.187Z" fill="white"/>
<path d="M54.6036 13.7511V15.5115H57.6476V16.8696H54.6036V18.6299H57.9872V19.9865H53.1719V12.3945H57.9872V13.7511H54.6036Z" fill="white"/>
<path d="M60.9136 19.9846V13.7492H58.792V12.3926H64.4654V13.7492H62.3438V19.9846H60.9136Z" fill="white"/>
<path d="M67.8184 12.3926H69.2501V19.9846H67.8184V12.3926Z" fill="white"/>
<path d="M72.3892 19.9846V13.7492H70.2676V12.3926H75.941V13.7492H73.8194V19.9846H72.3892Z" fill="white"/>
<path d="M82.6759 20.1542C82.1099 20.1542 81.5852 20.0517 81.1003 19.8468C80.6155 19.6418 80.1963 19.3604 79.843 19.0041C79.4896 18.6477 79.2128 18.2271 79.0109 17.7423C78.809 17.2575 78.708 16.7405 78.708 16.1884C78.708 15.6363 78.809 15.1194 79.0109 14.6345C79.2128 14.1497 79.4896 13.7291 79.843 13.3728C80.1963 13.0164 80.6155 12.735 81.1003 12.5301C81.5852 12.3251 82.1099 12.2227 82.6759 12.2227C83.2419 12.2227 83.7665 12.3251 84.2514 12.5301C84.7363 12.735 85.1539 13.0164 85.5088 13.3728C85.8621 13.7291 86.1405 14.1512 86.3409 14.6345C86.5428 15.1194 86.6438 15.6363 86.6438 16.1884C86.6438 16.7405 86.5428 17.2575 86.3409 17.7423C86.139 18.2271 85.8621 18.6477 85.5088 19.0041C85.1554 19.3604 84.7363 19.6418 84.2514 19.8468C83.7665 20.0517 83.2419 20.1542 82.6759 20.1542ZM82.6759 18.7976C83.0292 18.7976 83.3596 18.7334 83.6671 18.6064C83.9745 18.4795 84.2438 18.3021 84.4732 18.0757C84.7027 17.8494 84.8832 17.5756 85.0147 17.2544C85.1447 16.9332 85.2105 16.5769 85.2105 16.1884C85.2105 15.8 85.1447 15.4451 85.0147 15.1224C84.8832 14.8012 84.7042 14.5275 84.4732 14.3011C84.2438 14.0748 83.9745 13.8989 83.6671 13.7704C83.3596 13.642 83.0292 13.5792 82.6759 13.5792C82.3225 13.5792 81.9921 13.6435 81.6847 13.7704C81.3772 13.8974 81.108 14.0748 80.8786 14.3011C80.6491 14.5275 80.4686 14.8012 80.3371 15.1224C80.2055 15.4436 80.1413 15.8 80.1413 16.1884C80.1413 16.5769 80.207 16.9332 80.3371 17.2544C80.4671 17.5756 80.6476 17.8494 80.8786 18.0757C81.108 18.3021 81.3772 18.478 81.6847 18.6064C81.9921 18.7349 82.3225 18.7976 82.6759 18.7976Z" fill="white"/>
<path d="M87.7988 12.3926H89.4646L92.5193 17.4825H92.6034L92.5193 16.0188V12.3926H93.9403V19.9846H92.4336L89.2091 14.6087H89.125L89.2091 16.0723V19.9846H87.7988V12.3926Z" fill="white"/>
</svg>
