<svg width="61" height="87" viewBox="0 0 61 87" fill="none" xmlns="http://www.w3.org/2000/svg">
<path fill-rule="evenodd" clip-rule="evenodd" d="M0 8.31997C0 5.40771 0 3.95158 0.566765 2.83925C1.06531 1.8608 1.8608 1.06531 2.83925 0.566765C3.95158 0 5.40772 0 8.31999 0H52.1299C55.0422 0 56.4983 0 57.6107 0.566765C58.5891 1.06531 59.3846 1.8608 59.8831 2.83925C60.4499 3.95158 60.4499 5.40772 60.4499 8.31999V35.1001C56.1426 35.1006 52.6509 38.5926 52.6509 42.9C52.6509 47.2075 56.1426 50.6995 60.4499 50.7V77.8049C60.4499 80.7172 60.4499 82.1733 59.8831 83.2856C59.3846 84.2641 58.5891 85.0596 57.6107 85.5581C56.4983 86.1249 55.0422 86.1249 52.1299 86.1249H8.31998C5.40772 86.1249 3.95158 86.1249 2.83925 85.5581C1.8608 85.0596 1.06531 84.2641 0.566765 83.2856C0 82.1733 0 80.7172 0 77.8049V50.7H0.000216961C4.30803 50.7 7.80021 47.2079 7.80021 42.9C7.80021 38.5922 4.30803 35.1001 0.000216961 35.1001H0V8.31997Z" fill="#FFDC32"/>
</svg>
