<svg width="416" height="300" viewBox="0 0 416 300" fill="none" xmlns="http://www.w3.org/2000/svg">
<g opacity="0.2">
<path fill-rule="evenodd" clip-rule="evenodd" d="M502.312 125.496C506.638 123.57 508.584 118.503 506.659 114.178C504.734 109.854 499.665 107.909 495.339 109.835C491.013 111.762 489.066 116.829 490.992 121.154C492.917 125.478 497.985 127.423 502.312 125.496ZM507.292 136.683C517.799 132.005 522.526 119.698 517.85 109.196C513.174 98.6929 500.865 93.971 490.359 98.649C479.852 103.327 475.125 115.633 479.801 126.136C484.477 136.639 496.785 141.361 507.292 136.683Z" fill="white"/>
<path fill-rule="evenodd" clip-rule="evenodd" d="M553.113 239.598C557.44 237.672 559.386 232.605 557.46 228.28C555.535 223.955 550.467 222.011 546.14 223.937C541.814 225.863 539.868 230.931 541.793 235.255C543.719 239.58 548.787 241.524 553.113 239.598ZM558.094 250.785C568.601 246.107 573.327 233.8 568.651 223.297C563.975 212.795 551.667 208.073 541.16 212.751C530.653 217.429 525.926 229.735 530.602 240.238C535.278 250.741 547.587 255.463 558.094 250.785Z" fill="white"/>
<path fill-rule="evenodd" clip-rule="evenodd" d="M536.179 201.564C540.506 199.638 542.452 194.571 540.527 190.246C538.601 185.921 533.533 183.977 529.207 185.903C524.88 187.829 522.934 192.897 524.859 197.222C526.785 201.546 531.853 203.49 536.179 201.564ZM541.16 212.751C551.667 208.073 556.394 195.766 551.718 185.263C547.041 174.761 534.733 170.039 524.226 174.717C513.719 179.395 508.992 191.701 513.669 202.204C518.345 212.707 530.653 217.429 541.16 212.751Z" fill="white"/>
<path fill-rule="evenodd" clip-rule="evenodd" d="M586.981 315.666C591.307 313.74 593.253 308.672 591.328 304.348C589.402 300.023 584.334 298.079 580.008 300.005C575.682 301.931 573.735 306.999 575.661 311.323C577.586 315.648 582.654 317.592 586.981 315.666ZM591.961 326.852C602.468 322.174 607.195 309.868 602.519 299.365C597.843 288.862 585.534 284.141 575.027 288.819C564.521 293.496 559.794 305.803 564.47 316.306C569.146 326.808 581.454 331.53 591.961 326.852Z" fill="white"/>
<path fill-rule="evenodd" clip-rule="evenodd" d="M481.197 180.471C485.523 178.545 487.469 173.477 485.544 169.153C483.618 164.828 478.55 162.884 474.224 164.81C469.898 166.736 467.951 171.803 469.877 176.128C471.802 180.453 476.87 182.397 481.197 180.471ZM486.177 191.657C496.684 186.979 501.411 174.673 496.735 164.17C492.059 153.667 479.75 148.945 469.243 153.623C458.737 158.301 454.01 170.608 458.686 181.111C463.362 191.613 475.67 196.335 486.177 191.657Z" fill="white"/>
<path fill-rule="evenodd" clip-rule="evenodd" d="M531.998 294.573C536.324 292.646 538.271 287.579 536.345 283.254C534.42 278.93 529.352 276.985 525.025 278.912C520.699 280.838 518.753 285.905 520.678 290.23C522.604 294.554 527.672 296.499 531.998 294.573ZM536.979 305.759C547.486 301.081 552.212 288.775 547.536 278.272C542.86 267.769 530.552 263.047 520.045 267.725C509.538 272.403 504.811 284.709 509.487 295.212C514.163 305.715 526.472 310.437 536.979 305.759Z" fill="white"/>
<path fill-rule="evenodd" clip-rule="evenodd" d="M578.41 91.6155C582.736 89.6893 584.682 84.6219 582.757 80.2972C580.831 75.9726 575.763 74.0282 571.437 75.9545C567.111 77.8807 565.164 82.9481 567.09 87.2727C569.015 91.5974 574.083 93.5417 578.41 91.6155ZM583.39 102.802C593.897 98.124 598.624 85.8175 593.948 75.3147C589.272 64.812 576.963 60.09 566.456 64.768C555.949 69.446 551.223 81.7524 555.899 92.2552C560.575 102.758 572.883 107.48 583.39 102.802Z" fill="white"/>
<path fill-rule="evenodd" clip-rule="evenodd" d="M629.211 205.717C633.537 203.791 635.484 198.724 633.558 194.399C631.633 190.074 626.565 188.13 622.238 190.056C617.912 191.982 615.966 197.05 617.891 201.374C619.816 205.699 624.885 207.643 629.211 205.717ZM634.192 216.904C644.698 212.226 649.425 199.919 644.749 189.416C640.073 178.914 627.765 174.192 617.258 178.87C606.751 183.548 602.024 195.854 606.7 206.357C611.376 216.86 623.685 221.582 634.192 216.904Z" fill="white"/>
<path fill-rule="evenodd" clip-rule="evenodd" d="M612.277 167.683C616.604 165.757 618.55 160.69 616.624 156.365C614.699 152.04 609.631 150.096 605.305 152.022C600.978 153.949 599.032 159.016 600.957 163.341C602.883 167.665 607.951 169.61 612.277 167.683ZM617.258 178.87C627.765 174.192 632.492 161.885 627.815 151.383C623.139 140.88 610.831 136.158 600.324 140.836C589.817 145.514 585.09 157.82 589.766 168.323C594.443 178.826 606.751 183.548 617.258 178.87Z" fill="white"/>
<path fill-rule="evenodd" clip-rule="evenodd" d="M663.079 281.785C667.405 279.859 669.351 274.791 667.426 270.467C665.5 266.142 660.432 264.198 656.106 266.124C651.779 268.05 649.833 273.118 651.759 277.442C653.684 281.767 658.752 283.711 663.079 281.785ZM668.059 292.971C678.566 288.293 683.293 275.987 678.617 265.484C673.941 254.981 661.632 250.26 651.125 254.938C640.618 259.616 635.892 271.922 640.568 282.425C645.244 292.928 657.552 297.649 668.059 292.971Z" fill="white"/>
<path fill-rule="evenodd" clip-rule="evenodd" d="M557.295 146.59C561.621 144.664 563.567 139.596 561.642 135.272C559.716 130.947 554.648 129.003 550.322 130.929C545.995 132.855 544.049 137.922 545.975 142.247C547.9 146.572 552.968 148.516 557.295 146.59ZM562.275 157.776C572.782 153.098 577.509 140.792 572.833 130.289C568.156 119.786 555.848 115.064 545.341 119.742C534.834 124.42 530.108 136.727 534.784 147.23C539.46 157.732 551.768 162.454 562.275 157.776Z" fill="white"/>
<path fill-rule="evenodd" clip-rule="evenodd" d="M608.096 260.692C612.422 258.765 614.369 253.698 612.443 249.373C610.518 245.049 605.45 243.104 601.123 245.031C596.797 246.957 594.85 252.024 596.776 256.349C598.701 260.673 603.77 262.618 608.096 260.692ZM613.076 271.878C623.583 267.2 628.31 254.894 623.634 244.391C618.958 233.888 606.65 229.166 596.143 233.844C585.636 238.522 580.909 250.829 585.585 261.331C590.261 271.834 602.57 276.556 613.076 271.878Z" fill="white"/>
<path fill-rule="evenodd" clip-rule="evenodd" d="M654.134 57.9006C658.461 55.9744 660.407 50.907 658.482 46.5824C656.556 42.2577 651.488 40.3134 647.162 42.2396C642.835 44.1658 640.889 49.2332 642.815 53.5579C644.74 57.8825 649.808 59.8268 654.134 57.9006ZM659.115 69.0871C669.622 64.4091 674.349 52.1026 669.673 41.5999C664.996 31.0971 652.688 26.3752 642.181 31.0532C631.674 35.7311 626.948 48.0376 631.624 58.5403C636.3 69.0431 648.608 73.765 659.115 69.0871Z" fill="white"/>
<path fill-rule="evenodd" clip-rule="evenodd" d="M704.936 172.002C709.262 170.076 711.209 165.009 709.283 160.684C707.358 156.359 702.29 154.415 697.963 156.341C693.637 158.268 691.69 163.335 693.616 167.66C695.541 171.984 700.61 173.929 704.936 172.002ZM709.916 183.189C720.423 178.511 725.15 166.204 720.474 155.702C715.798 145.199 703.49 140.477 692.983 145.155C682.476 149.833 677.749 162.139 682.425 172.642C687.101 183.145 699.409 187.867 709.916 183.189Z" fill="white"/>
<path fill-rule="evenodd" clip-rule="evenodd" d="M688.002 133.968C692.328 132.042 694.275 126.975 692.349 122.65C690.424 118.326 685.356 116.381 681.029 118.307C676.703 120.234 674.757 125.301 676.682 129.626C678.608 133.95 683.676 135.895 688.002 133.968ZM692.983 145.155C703.49 140.477 708.216 128.17 703.54 117.668C698.864 107.165 686.556 102.443 676.049 107.121C665.542 111.799 660.815 124.105 665.491 134.608C670.167 145.111 682.476 149.833 692.983 145.155Z" fill="white"/>
<path fill-rule="evenodd" clip-rule="evenodd" d="M738.803 248.07C743.13 246.144 745.076 241.077 743.151 236.752C741.225 232.427 736.157 230.483 731.831 232.409C727.504 234.335 725.558 239.403 727.483 243.727C729.409 248.052 734.477 249.996 738.803 248.07ZM743.784 259.257C754.291 254.579 759.018 242.272 754.342 231.769C749.665 221.267 737.357 216.545 726.85 221.223C716.343 225.901 711.617 238.207 716.293 248.71C720.969 259.213 733.277 263.935 743.784 259.257Z" fill="white"/>
<path fill-rule="evenodd" clip-rule="evenodd" d="M633.019 112.875C637.346 110.949 639.292 105.881 637.367 101.557C635.441 97.2321 630.373 95.2877 626.047 97.214C621.72 99.1402 619.774 104.208 621.699 108.532C623.625 112.857 628.693 114.801 633.019 112.875ZM638 124.061C648.507 119.383 653.234 107.077 648.558 96.5742C643.881 86.0714 631.573 81.3495 621.066 86.0275C610.559 90.7055 605.832 103.012 610.509 113.515C615.185 124.017 627.493 128.739 638 124.061Z" fill="white"/>
<path fill-rule="evenodd" clip-rule="evenodd" d="M683.821 226.977C688.147 225.05 690.093 219.983 688.168 215.658C686.242 211.334 681.174 209.389 676.848 211.316C672.522 213.242 670.575 218.309 672.501 222.634C674.426 226.959 679.494 228.903 683.821 226.977ZM688.801 238.163C699.308 233.485 704.035 221.179 699.359 210.676C694.683 200.173 682.374 195.451 671.868 200.129C661.361 204.807 656.634 217.114 661.31 227.616C665.986 238.119 678.294 242.841 688.801 238.163Z" fill="white"/>
<path fill-rule="evenodd" clip-rule="evenodd" d="M806.33 -9.86127C810.657 -11.7875 812.603 -16.8549 810.677 -21.1795C808.752 -25.5042 803.684 -27.4485 799.357 -25.5223C795.031 -23.596 793.085 -18.5287 795.01 -14.204C796.936 -9.87936 802.004 -7.93503 806.33 -9.86127ZM811.311 1.32518C821.818 -3.35279 826.544 -15.6593 821.868 -26.162C817.192 -36.6648 804.884 -41.3867 794.377 -36.7087C783.87 -32.0307 779.143 -19.7243 783.819 -9.22156C788.496 1.28122 800.804 6.00317 811.311 1.32518Z" fill="white"/>
<path fill-rule="evenodd" clip-rule="evenodd" d="M857.132 104.24C861.458 102.314 863.404 97.2469 861.479 92.9222C859.553 88.5975 854.485 86.6532 850.159 88.5794C845.832 90.5057 843.886 95.573 845.812 99.8977C847.737 104.222 852.805 106.167 857.132 104.24ZM862.112 115.427C872.619 110.749 877.346 98.4425 872.67 87.9397C867.994 77.4369 855.685 72.715 845.178 77.393C834.671 82.071 829.945 94.3774 834.621 104.88C839.297 115.383 851.605 120.105 862.112 115.427Z" fill="white"/>
<path fill-rule="evenodd" clip-rule="evenodd" d="M840.198 66.2065C844.524 64.2803 846.47 59.213 844.545 54.8883C842.62 50.5636 837.551 48.6193 833.225 50.5455C828.899 52.4718 826.952 57.5391 828.878 61.8638C830.803 66.1885 835.871 68.1328 840.198 66.2065ZM845.178 77.393C855.685 72.715 860.412 60.4086 855.736 49.9058C851.06 39.403 838.751 34.6811 828.245 39.3591C817.738 44.0371 813.011 56.3435 817.687 66.8463C822.363 77.349 834.671 82.071 845.178 77.393Z" fill="white"/>
<path fill-rule="evenodd" clip-rule="evenodd" d="M890.999 180.308C895.325 178.382 897.272 173.315 895.346 168.99C893.421 164.665 888.353 162.721 884.026 164.647C879.7 166.573 877.754 171.641 879.679 175.966C881.605 180.29 886.673 182.235 890.999 180.308ZM895.98 191.495C906.487 186.817 911.213 174.51 906.537 164.008C901.861 153.505 889.553 148.783 879.046 153.461C868.539 158.139 863.812 170.445 868.488 180.948C873.164 191.451 885.473 196.173 895.98 191.495Z" fill="white"/>
<path fill-rule="evenodd" clip-rule="evenodd" d="M785.215 45.1131C789.541 43.1869 791.488 38.1195 789.562 33.7948C787.637 29.4702 782.569 27.5258 778.242 29.4521C773.916 31.3783 771.97 36.4457 773.895 40.7703C775.821 45.095 780.889 47.0393 785.215 45.1131ZM790.196 56.2995C800.703 51.6216 805.429 39.3151 800.753 28.8123C796.077 18.3096 783.769 13.5876 773.262 18.2656C762.755 22.9436 758.028 35.25 762.704 45.7528C767.38 56.2556 779.689 60.9775 790.196 56.2995Z" fill="white"/>
<path fill-rule="evenodd" clip-rule="evenodd" d="M836.016 159.215C840.343 157.289 842.289 152.221 840.364 147.897C838.438 143.572 833.37 141.628 829.044 143.554C824.717 145.48 822.771 150.547 824.696 154.872C826.622 159.197 831.69 161.141 836.016 159.215ZM840.997 170.401C851.504 165.723 856.231 153.417 851.555 142.914C846.878 132.411 834.57 127.689 824.063 132.367C813.556 137.045 808.829 149.352 813.506 159.855C818.182 170.357 830.49 175.079 840.997 170.401Z" fill="white"/>
<path fill-rule="evenodd" clip-rule="evenodd" d="M730.232 24.0197C734.559 22.0935 736.505 17.0261 734.58 12.7014C732.654 8.37676 727.586 6.43243 723.26 8.35865C718.933 10.2849 716.987 15.3523 718.912 19.6769C720.838 24.0016 725.906 25.9459 730.232 24.0197ZM735.213 35.2061C745.72 30.5281 750.447 18.2217 745.77 7.71894C741.094 -2.78384 728.786 -7.50576 718.279 -2.8278C707.772 1.8502 703.045 14.1566 707.722 24.6594C712.398 35.1622 724.706 39.8841 735.213 35.2061Z" fill="white"/>
<path fill-rule="evenodd" clip-rule="evenodd" d="M781.034 138.121C785.36 136.195 787.306 131.128 785.381 126.803C783.455 122.478 778.387 120.534 774.061 122.46C769.735 124.387 767.788 129.454 769.714 133.779C771.639 138.103 776.707 140.048 781.034 138.121ZM786.014 149.308C796.521 144.63 801.248 132.323 796.572 121.821C791.896 111.318 779.587 106.596 769.08 111.274C758.574 115.952 753.847 128.258 758.523 138.761C763.199 149.264 775.507 153.986 786.014 149.308Z" fill="white"/>
<path fill-rule="evenodd" clip-rule="evenodd" d="M764.1 100.087C768.426 98.1613 770.373 93.0939 768.447 88.7692C766.522 84.4446 761.454 82.5002 757.127 84.4265C752.801 86.3527 750.854 91.4201 752.78 95.7447C754.705 100.069 759.774 102.014 764.1 100.087ZM769.08 111.274C779.587 106.596 784.314 94.2895 779.638 83.7867C774.962 73.284 762.654 68.562 752.147 73.24C741.64 77.918 736.913 90.2244 741.589 100.727C746.265 111.23 758.574 115.952 769.08 111.274Z" fill="white"/>
<path fill-rule="evenodd" clip-rule="evenodd" d="M814.901 214.189C819.228 212.263 821.174 207.196 819.248 202.871C817.323 198.546 812.255 196.602 807.929 198.528C803.602 200.454 801.656 205.522 803.581 209.846C805.507 214.171 810.575 216.115 814.901 214.189ZM819.882 225.376C830.389 220.698 835.116 208.391 830.439 197.888C825.763 187.386 813.455 182.664 802.948 187.342C792.441 192.02 787.714 204.326 792.39 214.829C797.067 225.332 809.375 230.054 819.882 225.376Z" fill="white"/>
<path fill-rule="evenodd" clip-rule="evenodd" d="M709.117 78.994C713.444 77.0678 715.39 72.0005 713.464 67.6758C711.539 63.3511 706.471 61.4068 702.145 63.333C697.818 65.2593 695.872 70.3266 697.797 74.6513C699.723 78.9759 704.791 80.9203 709.117 78.994ZM714.098 90.1805C724.605 85.5025 729.331 73.1961 724.655 62.6933C719.979 52.1905 707.671 47.4686 697.164 52.1466C686.657 56.8246 681.93 69.131 686.606 79.6338C691.283 90.1365 703.591 94.8585 714.098 90.1805Z" fill="white"/>
<path fill-rule="evenodd" clip-rule="evenodd" d="M759.919 193.096C764.245 191.17 766.191 186.102 764.266 181.778C762.34 177.453 757.272 175.509 752.946 177.435C748.619 179.361 746.673 184.428 748.599 188.753C750.524 193.078 755.592 195.022 759.919 193.096ZM764.899 204.282C775.406 199.604 780.133 187.298 775.457 176.795C770.781 166.292 758.472 161.57 747.965 166.248C737.458 170.926 732.732 183.233 737.408 193.735C742.084 204.238 754.392 208.96 764.899 204.282Z" fill="white"/>
<path fill-rule="evenodd" clip-rule="evenodd" d="M882.428 -43.7422C886.754 -45.6684 888.701 -50.7358 886.775 -55.0605C884.85 -59.3852 879.782 -61.3295 875.455 -59.4032C871.129 -57.477 869.183 -52.4097 871.108 -48.085C873.034 -43.7603 878.102 -41.816 882.428 -43.7422ZM887.409 -32.5558C897.915 -37.2338 902.642 -49.5402 897.966 -60.043C893.29 -70.5458 880.982 -75.2677 870.475 -70.5897C859.968 -65.9117 855.241 -53.6053 859.917 -43.1025C864.593 -32.5997 876.902 -27.8778 887.409 -32.5558Z" fill="white"/>
<path fill-rule="evenodd" clip-rule="evenodd" d="M933.229 70.3595C937.556 68.4333 939.502 63.3659 937.577 59.0412C935.651 54.7166 930.583 52.7723 926.257 54.6985C921.93 56.6247 919.984 61.692 921.91 66.0167C923.835 70.3414 928.903 72.2857 933.229 70.3595ZM938.21 81.5459C948.717 76.868 953.444 64.5615 948.768 54.0587C944.091 43.556 931.783 38.8341 921.276 43.512C910.769 48.19 906.042 60.4964 910.719 70.9992C915.395 81.502 927.703 86.2239 938.21 81.5459Z" fill="white"/>
<path fill-rule="evenodd" clip-rule="evenodd" d="M916.296 32.3256C920.622 30.3994 922.568 25.332 920.643 21.0073C918.717 16.6827 913.649 14.7383 909.323 16.6646C904.996 18.5908 903.05 23.6581 904.976 27.9828C906.901 32.3075 911.969 34.2518 916.296 32.3256ZM921.276 43.512C931.783 38.8341 936.51 26.5276 931.834 16.0248C927.158 5.52206 914.849 0.800154 904.342 5.47812C893.835 10.1561 889.109 22.4625 893.785 32.9653C898.461 43.4681 910.769 48.19 921.276 43.512Z" fill="white"/>
<path fill-rule="evenodd" clip-rule="evenodd" d="M967.097 146.427C971.423 144.501 973.37 139.434 971.444 135.109C969.519 130.784 964.451 128.84 960.124 130.766C955.798 132.693 953.852 137.76 955.777 142.085C957.703 146.409 962.771 148.354 967.097 146.427ZM972.078 157.614C982.584 152.936 987.311 140.629 982.635 130.127C977.959 119.624 965.651 114.902 955.144 119.58C944.637 124.258 939.91 136.564 944.586 147.067C949.262 157.57 961.571 162.292 972.078 157.614Z" fill="white"/>
<path fill-rule="evenodd" clip-rule="evenodd" d="M861.313 11.2322C865.639 9.30593 867.586 4.23856 865.66 -0.0861106C863.735 -4.41078 858.667 -6.35509 854.34 -4.42885C850.014 -2.50263 848.068 2.56471 849.993 6.88938C851.918 11.2141 856.987 13.1584 861.313 11.2322ZM866.293 22.4186C876.8 17.7406 881.527 5.43416 876.851 -5.06861C872.175 -15.5714 859.867 -20.2933 849.36 -15.6153C838.853 -10.9373 834.126 1.36911 838.802 11.8719C843.478 22.3747 855.787 27.0966 866.293 22.4186Z" fill="white"/>
<path fill-rule="evenodd" clip-rule="evenodd" d="M912.114 125.334C916.441 123.408 918.387 118.34 916.462 114.016C914.536 109.691 909.468 107.747 905.142 109.673C900.815 111.599 898.869 116.666 900.794 120.991C902.72 125.316 907.788 127.26 912.114 125.334ZM917.095 136.52C927.602 131.842 932.329 119.536 927.652 109.033C922.976 98.5303 910.668 93.8084 900.161 98.4864C889.654 103.164 884.927 115.471 889.603 125.974C894.28 136.476 906.588 141.198 917.095 136.52Z" fill="white"/>
<path fill-rule="evenodd" clip-rule="evenodd" d="M542.685 113.776C549.896 110.566 553.139 102.12 549.93 94.9126C546.721 87.7048 538.274 84.4642 531.064 87.6746C523.853 90.885 520.609 99.3306 523.818 106.538C527.027 113.746 535.474 116.987 542.685 113.776ZM545.341 119.742C555.848 115.064 560.575 102.758 555.899 92.2552C551.223 81.7524 538.914 77.0305 528.407 81.7085C517.901 86.3865 513.174 98.6929 517.85 109.196C522.526 119.698 534.834 124.42 545.341 119.742Z" fill="white"/>
<path fill-rule="evenodd" clip-rule="evenodd" d="M593.486 227.878C600.697 224.668 603.941 216.222 600.732 209.014C597.523 201.806 589.076 198.566 581.865 201.776C574.654 204.987 571.411 213.432 574.62 220.64C577.829 227.848 586.276 231.088 593.486 227.878ZM596.143 233.844C606.65 229.166 611.376 216.86 606.7 206.357C602.024 195.854 589.716 191.132 579.209 195.81C568.702 200.488 563.975 212.795 568.651 223.297C573.327 233.8 585.636 238.522 596.143 233.844Z" fill="white"/>
<path fill-rule="evenodd" clip-rule="evenodd" d="M576.553 189.844C583.763 186.634 587.007 178.188 583.798 170.98C580.589 163.773 572.142 160.532 564.931 163.742C557.721 166.953 554.477 175.398 557.686 182.606C560.895 189.814 569.342 193.054 576.553 189.844ZM579.209 195.81C589.716 191.132 594.443 178.826 589.766 168.323C585.09 157.82 572.782 153.098 562.275 157.776C551.768 162.454 547.041 174.761 551.718 185.263C556.394 195.766 568.702 200.488 579.209 195.81Z" fill="white"/>
<path fill-rule="evenodd" clip-rule="evenodd" d="M627.354 303.946C634.565 300.735 637.808 292.29 634.599 285.082C631.39 277.874 622.943 274.634 615.733 277.844C608.522 281.055 605.278 289.5 608.487 296.708C611.696 303.916 620.143 307.156 627.354 303.946ZM630.01 309.912C640.517 305.234 645.244 292.928 640.568 282.425C635.892 271.922 623.583 267.2 613.076 271.878C602.57 276.556 597.843 288.862 602.519 299.365C607.195 309.868 619.503 314.59 630.01 309.912Z" fill="white"/>
<path fill-rule="evenodd" clip-rule="evenodd" d="M521.57 168.751C528.78 165.54 532.024 157.095 528.815 149.887C525.606 142.679 517.159 139.439 509.949 142.649C502.738 145.859 499.494 154.305 502.703 161.513C505.912 168.721 514.359 171.961 521.57 168.751ZM524.226 174.717C534.733 170.039 539.46 157.732 534.784 147.23C530.108 136.727 517.799 132.005 507.292 136.683C496.785 141.361 492.059 153.667 496.735 164.17C501.411 174.673 513.719 179.395 524.226 174.717Z" fill="white"/>
<path fill-rule="evenodd" clip-rule="evenodd" d="M572.371 282.852C579.582 279.642 582.826 271.196 579.617 263.989C576.407 256.781 567.961 253.54 560.75 256.751C553.539 259.961 550.295 268.407 553.505 275.614C556.714 282.822 565.161 286.063 572.371 282.852ZM575.027 288.819C585.534 284.141 590.261 271.834 585.585 261.331C580.909 250.829 568.601 246.107 558.094 250.785C547.587 255.463 542.86 267.769 547.536 278.272C552.212 288.775 564.521 293.496 575.027 288.819Z" fill="white"/>
<path fill-rule="evenodd" clip-rule="evenodd" d="M618.596 79.9784C625.649 76.8385 628.889 68.461 625.655 61.1977C622.421 53.9343 614.027 50.7368 606.975 53.8767C599.923 57.0166 596.682 65.3941 599.916 72.6574C603.15 79.9207 611.544 83.1183 618.596 79.9784ZM621.253 85.9445C631.657 81.3124 636.3 69.0431 631.624 58.5403C626.948 48.0376 614.723 43.2785 604.319 47.9106C593.915 52.5427 589.272 64.812 593.948 75.3147C598.624 85.8175 610.849 90.5766 621.253 85.9445Z" fill="white"/>
<path fill-rule="evenodd" clip-rule="evenodd" d="M669.398 194.08C676.45 190.94 679.69 182.563 676.457 175.299C673.223 168.036 664.829 164.839 657.776 167.978C650.724 171.118 647.484 179.496 650.718 186.759C653.951 194.022 662.345 197.22 669.398 194.08ZM672.054 200.046C682.458 195.414 687.101 183.145 682.425 172.642C677.749 162.139 665.524 157.38 655.12 162.012C644.716 166.644 640.073 178.914 644.749 189.416C649.425 199.919 661.65 204.678 672.054 200.046Z" fill="white"/>
<path fill-rule="evenodd" clip-rule="evenodd" d="M652.464 156.046C659.516 152.906 662.757 144.529 659.523 137.265C656.289 130.002 647.895 126.805 640.843 129.945C633.79 133.084 630.55 141.462 633.784 148.725C637.018 155.989 645.412 159.186 652.464 156.046ZM655.12 162.012C665.524 157.38 670.167 145.111 665.491 134.608C660.815 124.105 648.59 119.346 638.186 123.978C627.783 128.611 623.139 140.88 627.815 151.383C632.492 161.885 644.716 166.644 655.12 162.012Z" fill="white"/>
<path fill-rule="evenodd" clip-rule="evenodd" d="M703.265 270.148C710.318 267.008 713.558 258.631 710.324 251.367C707.09 244.104 698.696 240.906 691.644 244.046C684.592 247.186 681.351 255.564 684.585 262.827C687.819 270.09 696.213 273.288 703.265 270.148ZM705.922 276.114C716.325 271.482 720.969 259.213 716.293 248.71C711.617 238.207 699.392 233.448 688.988 238.08C678.584 242.712 673.941 254.981 678.617 265.484C683.293 275.987 695.518 280.746 705.922 276.114Z" fill="white"/>
<path fill-rule="evenodd" clip-rule="evenodd" d="M597.481 134.953C604.534 131.813 607.774 123.435 604.54 116.172C601.306 108.909 592.912 105.711 585.86 108.851C578.808 111.991 575.567 120.368 578.801 127.632C582.035 134.895 590.429 138.093 597.481 134.953ZM600.137 140.919C610.541 136.287 615.185 124.017 610.509 113.515C605.832 103.012 593.608 98.2528 583.204 102.885C572.8 107.517 568.156 119.786 572.833 130.289C577.509 140.792 589.734 145.551 600.137 140.919Z" fill="white"/>
<path fill-rule="evenodd" clip-rule="evenodd" d="M648.283 249.054C655.335 245.915 658.575 237.537 655.341 230.274C652.108 223.01 643.714 219.813 636.661 222.953C629.609 226.093 626.369 234.47 629.602 241.733C632.836 248.997 641.23 252.194 648.283 249.054ZM650.939 255.021C661.343 250.388 665.986 238.119 661.31 227.616C656.634 217.114 644.409 212.355 634.005 216.987C623.601 221.619 618.958 233.888 623.634 244.391C628.31 254.894 640.535 259.653 650.939 255.021Z" fill="white"/>
<path fill-rule="evenodd" clip-rule="evenodd" d="M694.508 46.1805C701.718 42.9701 704.962 34.5245 701.753 27.3167C698.544 20.1089 690.097 16.8684 682.886 20.0788C675.676 23.2891 672.432 31.7347 675.641 38.9425C678.85 46.1503 687.297 49.3908 694.508 46.1805ZM697.164 52.1466C707.671 47.4686 712.398 35.1622 707.722 24.6594C703.045 14.1566 690.737 9.4347 680.23 14.1127C669.723 18.7907 664.996 31.0971 669.673 41.5999C674.349 52.1026 686.657 56.8246 697.164 52.1466Z" fill="white"/>
<path fill-rule="evenodd" clip-rule="evenodd" d="M745.309 160.282C752.52 157.072 755.764 148.626 752.554 141.418C749.345 134.211 740.898 130.97 733.688 134.18C726.477 137.391 723.233 145.836 726.442 153.044C729.652 160.252 738.098 163.493 745.309 160.282ZM747.965 166.248C758.472 161.57 763.199 149.264 758.523 138.761C753.847 128.258 741.538 123.536 731.032 128.214C720.525 132.892 715.798 145.199 720.474 155.702C725.15 166.204 737.458 170.926 747.965 166.248Z" fill="white"/>
<path fill-rule="evenodd" clip-rule="evenodd" d="M728.375 122.248C735.586 119.038 738.83 110.592 735.621 103.385C732.412 96.1767 723.965 92.9362 716.754 96.1466C709.543 99.357 706.3 107.803 709.509 115.01C712.718 122.218 721.165 125.459 728.375 122.248ZM731.032 128.214C741.538 123.536 746.265 111.23 741.589 100.727C736.913 90.2244 724.605 85.5025 714.098 90.1805C703.591 94.8585 698.864 107.165 703.54 117.668C708.216 128.17 720.525 132.892 731.032 128.214Z" fill="white"/>
<path fill-rule="evenodd" clip-rule="evenodd" d="M779.177 236.35C786.387 233.14 789.631 224.694 786.422 217.486C783.213 210.278 774.766 207.038 767.555 210.248C760.345 213.459 757.101 221.904 760.31 229.112C763.519 236.32 771.966 239.56 779.177 236.35ZM781.833 242.316C792.34 237.638 797.067 225.332 792.39 214.829C787.714 204.326 775.406 199.604 764.899 204.282C754.392 208.96 749.665 221.267 754.342 231.769C759.018 242.272 771.326 246.994 781.833 242.316Z" fill="white"/>
<path fill-rule="evenodd" clip-rule="evenodd" d="M673.393 101.155C680.603 97.9445 683.847 89.4989 680.638 82.2911C677.429 75.0833 668.982 71.8428 661.771 75.0532C654.561 78.2635 651.317 86.7091 654.526 93.9169C657.735 101.125 666.182 104.365 673.393 101.155ZM676.049 107.121C686.556 102.443 691.283 90.1365 686.606 79.6338C681.93 69.131 669.622 64.4091 659.115 69.0871C648.608 73.765 643.881 86.0714 648.558 96.5742C653.234 107.077 665.542 111.799 676.049 107.121Z" fill="white"/>
<path fill-rule="evenodd" clip-rule="evenodd" d="M724.194 215.257C731.405 212.046 734.648 203.601 731.439 196.393C728.23 189.185 719.783 185.944 712.573 189.155C705.362 192.365 702.118 200.811 705.327 208.019C708.536 215.226 716.983 218.467 724.194 215.257ZM726.85 221.223C737.357 216.545 742.084 204.238 737.408 193.735C732.732 183.233 720.423 178.511 709.916 183.189C699.409 187.867 694.683 200.173 699.359 210.676C704.035 221.179 716.343 225.901 726.85 221.223Z" fill="white"/>
<path fill-rule="evenodd" clip-rule="evenodd" d="M846.703 -21.5814C853.914 -24.7918 857.158 -33.2374 853.949 -40.4452C850.74 -47.653 842.293 -50.8935 835.082 -47.6831C827.872 -44.4727 824.628 -36.0271 827.837 -28.8193C831.046 -21.6116 839.493 -18.371 846.703 -21.5814ZM849.36 -15.6153C859.867 -20.2933 864.593 -32.5997 859.917 -43.1025C855.241 -53.6053 842.933 -58.3272 832.426 -53.6492C821.919 -48.9712 817.192 -36.6648 821.868 -26.162C826.544 -15.6593 838.853 -10.9373 849.36 -15.6153Z" fill="white"/>
<path fill-rule="evenodd" clip-rule="evenodd" d="M897.505 92.5203C904.715 89.3099 907.959 80.8643 904.75 73.6565C901.541 66.4487 893.094 63.2082 885.883 66.4186C878.673 69.629 875.429 78.0746 878.638 85.2824C881.847 92.4902 890.294 95.7307 897.505 92.5203ZM900.161 98.4864C910.668 93.8084 915.395 81.502 910.719 70.9992C906.042 60.4964 893.734 55.7745 883.227 60.4525C872.72 65.1305 867.994 77.4369 872.67 87.9397C877.346 98.4425 889.654 103.164 900.161 98.4864Z" fill="white"/>
<path fill-rule="evenodd" clip-rule="evenodd" d="M880.571 54.4864C887.782 51.276 891.026 42.8304 887.816 35.6226C884.607 28.4148 876.16 25.1743 868.95 28.3847C861.739 31.5951 858.495 40.0407 861.704 47.2485C864.913 54.4563 873.36 57.6968 880.571 54.4864ZM883.227 60.4525C893.734 55.7745 898.461 43.4681 893.785 32.9653C889.109 22.4625 876.8 17.7406 866.293 22.4186C855.787 27.0966 851.06 39.403 855.736 49.9058C860.412 60.4086 872.72 65.1305 883.227 60.4525Z" fill="white"/>
<path fill-rule="evenodd" clip-rule="evenodd" d="M931.372 168.588C938.583 165.378 941.827 156.932 938.618 149.724C935.409 142.517 926.962 139.276 919.751 142.486C912.54 145.697 909.297 154.142 912.506 161.35C915.715 168.558 924.162 171.799 931.372 168.588ZM934.029 174.554C944.535 169.876 949.262 157.57 944.586 147.067C939.91 136.564 927.602 131.842 917.095 136.52C906.588 141.198 901.861 153.505 906.537 164.008C911.213 174.51 923.522 179.232 934.029 174.554Z" fill="white"/>
<path fill-rule="evenodd" clip-rule="evenodd" d="M825.588 33.393C832.799 30.1826 836.043 21.737 832.834 14.5292C829.625 7.32141 821.178 4.0809 813.967 7.29128C806.756 10.5017 803.513 18.9472 806.722 26.155C809.931 33.3628 818.378 36.6034 825.588 33.393ZM828.245 39.3591C838.751 34.6811 843.478 22.3747 838.802 11.8719C834.126 1.36911 821.818 -3.35279 811.311 1.32518C800.804 6.00317 796.077 18.3096 800.753 28.8123C805.429 39.3151 817.738 44.0371 828.245 39.3591Z" fill="white"/>
<path fill-rule="evenodd" clip-rule="evenodd" d="M876.39 147.495C883.6 144.284 886.844 135.839 883.635 128.631C880.426 121.423 871.979 118.183 864.768 121.393C857.558 124.603 854.314 133.049 857.523 140.257C860.732 147.464 869.179 150.705 876.39 147.495ZM879.046 153.461C889.553 148.783 894.28 136.476 889.603 125.974C884.927 115.471 872.619 110.749 862.112 115.427C851.605 120.105 846.878 132.411 851.555 142.914C856.231 153.417 868.539 158.139 879.046 153.461Z" fill="white"/>
<path fill-rule="evenodd" clip-rule="evenodd" d="M770.606 12.2995C777.816 9.08914 781.06 0.643546 777.851 -6.56424C774.642 -13.772 766.195 -17.0126 758.984 -13.8022C751.774 -10.5918 748.53 -2.14622 751.739 5.06157C754.948 12.2694 763.395 15.5099 770.606 12.2995ZM773.262 18.2656C783.769 13.5876 788.496 1.28122 783.819 -9.22156C779.143 -19.7243 766.835 -24.4463 756.328 -19.7683C745.821 -15.0903 741.094 -2.78384 745.77 7.71894C750.447 18.2217 762.755 22.9436 773.262 18.2656Z" fill="white"/>
<path fill-rule="evenodd" clip-rule="evenodd" d="M821.407 126.401C828.618 123.191 831.861 114.745 828.652 107.537C825.443 100.33 816.996 97.0892 809.786 100.3C802.575 103.51 799.331 111.955 802.54 119.163C805.749 126.371 814.196 129.612 821.407 126.401ZM824.063 132.367C834.57 127.689 839.297 115.383 834.621 104.88C829.945 94.3774 817.636 89.6555 807.129 94.3334C796.622 99.0114 791.896 111.318 796.572 121.821C801.248 132.323 813.556 137.045 824.063 132.367Z" fill="white"/>
<path fill-rule="evenodd" clip-rule="evenodd" d="M804.473 88.3673C811.684 85.157 814.928 76.7114 811.719 69.5036C808.509 62.2958 800.063 59.0553 792.852 62.2656C785.641 65.476 782.397 73.9216 785.607 81.1294C788.816 88.3372 797.263 91.5777 804.473 88.3673ZM807.129 94.3334C817.636 89.6555 822.363 77.349 817.687 66.8463C813.011 56.3435 800.703 51.6216 790.196 56.2995C779.689 60.9775 774.962 73.284 779.638 83.7867C784.314 94.2895 796.622 99.0114 807.129 94.3334Z" fill="white"/>
<path fill-rule="evenodd" clip-rule="evenodd" d="M855.275 202.469C862.485 199.259 865.729 190.813 862.52 183.605C859.311 176.398 850.864 173.157 843.653 176.367C836.443 179.578 833.199 188.023 836.408 195.231C839.617 202.439 848.064 205.679 855.275 202.469ZM857.931 208.435C868.438 203.757 873.164 191.451 868.488 180.948C863.812 170.445 851.504 165.723 840.997 170.401C830.49 175.079 825.763 187.386 830.439 197.888C835.116 208.391 847.424 213.113 857.931 208.435Z" fill="white"/>
<path fill-rule="evenodd" clip-rule="evenodd" d="M749.49 67.2739C756.701 64.0635 759.945 55.618 756.736 48.4102C753.527 41.2024 745.08 37.9618 737.869 41.1722C730.659 44.3826 727.415 52.8282 730.624 60.036C733.833 67.2438 742.28 70.4843 749.49 67.2739ZM752.147 73.24C762.654 68.562 767.38 56.2556 762.704 45.7528C758.028 35.25 745.72 30.5281 735.213 35.2061C724.706 39.8841 719.979 52.1905 724.655 62.6933C729.331 73.1961 741.64 77.918 752.147 73.24Z" fill="white"/>
<path fill-rule="evenodd" clip-rule="evenodd" d="M800.292 181.376C807.502 178.165 810.746 169.72 807.537 162.512C804.328 155.304 795.881 152.064 788.671 155.274C781.46 158.484 778.216 166.93 781.425 174.138C784.634 181.345 793.081 184.586 800.292 181.376ZM802.948 187.342C813.455 182.664 818.182 170.357 813.506 159.855C808.829 149.352 796.521 144.63 786.014 149.308C775.507 153.986 770.781 166.292 775.457 176.795C780.133 187.298 792.441 192.02 802.948 187.342Z" fill="white"/>
<path fill-rule="evenodd" clip-rule="evenodd" d="M922.801 -55.4623C930.012 -58.6727 933.256 -67.1183 930.047 -74.3261C926.837 -81.5339 918.391 -84.7744 911.18 -81.564C903.969 -78.3536 900.725 -69.908 903.935 -62.7002C907.144 -55.4925 915.59 -52.2519 922.801 -55.4623ZM925.457 -49.4962C935.964 -54.1742 940.691 -66.4807 936.015 -76.9834C931.339 -87.4862 919.03 -92.2081 908.524 -87.5301C898.017 -82.8521 893.29 -70.5458 897.966 -60.043C902.642 -49.5402 914.951 -44.8182 925.457 -49.4962Z" fill="white"/>
<path fill-rule="evenodd" clip-rule="evenodd" d="M973.602 58.6394C980.813 55.429 984.057 46.9834 980.848 39.7756C977.639 32.5678 969.192 29.3273 961.981 32.5377C954.771 35.7481 951.527 44.1937 954.736 51.4015C957.945 58.6093 966.392 61.8498 973.602 58.6394ZM976.259 64.6055C986.766 59.9275 991.493 47.6211 986.816 37.1183C982.14 26.6155 969.832 21.8936 959.325 26.5716C948.818 31.2496 944.091 43.556 948.768 54.0587C953.444 64.5615 965.752 69.2835 976.259 64.6055Z" fill="white"/>
<path fill-rule="evenodd" clip-rule="evenodd" d="M956.669 20.6055C963.879 17.3951 967.123 8.94951 963.914 1.74173C960.705 -5.46606 952.258 -8.70659 945.047 -5.49619C937.837 -2.28582 934.593 6.15977 937.802 13.3676C941.011 20.5753 949.458 23.8159 956.669 20.6055ZM959.325 26.5716C969.832 21.8936 974.559 9.58716 969.883 -0.915611C965.206 -11.4184 952.898 -16.1403 942.391 -11.4623C931.884 -6.78433 927.158 5.52206 931.834 16.0248C936.51 26.5276 948.818 31.2496 959.325 26.5716Z" fill="white"/>
<path fill-rule="evenodd" clip-rule="evenodd" d="M1007.47 134.707C1014.68 131.497 1017.92 123.051 1014.72 115.843C1011.51 108.636 1003.06 105.395 995.849 108.606C988.638 111.816 985.394 120.262 988.603 127.469C991.813 134.677 1000.26 137.918 1007.47 134.707ZM1010.13 140.673C1020.63 135.995 1025.36 123.689 1020.68 113.186C1016.01 102.683 1003.7 97.9615 993.193 102.639C982.686 107.317 977.959 119.624 982.635 130.127C987.311 140.629 999.619 145.351 1010.13 140.673Z" fill="white"/>
<path fill-rule="evenodd" clip-rule="evenodd" d="M901.686 -0.487977C908.897 -3.69835 912.141 -12.144 908.932 -19.3518C905.722 -26.5595 897.275 -29.8001 890.065 -26.5897C882.854 -23.3793 879.61 -14.9337 882.819 -7.72593C886.029 -0.518142 894.475 2.72242 901.686 -0.487977ZM904.342 5.47812C914.849 0.800154 919.576 -11.5063 914.9 -22.0091C910.224 -32.5118 897.915 -37.2338 887.409 -32.5558C876.902 -27.8778 872.175 -15.5714 876.851 -5.06861C881.527 5.43416 893.835 10.1561 904.342 5.47812Z" fill="white"/>
<path fill-rule="evenodd" clip-rule="evenodd" d="M952.487 113.614C959.698 110.403 962.942 101.958 959.733 94.7499C956.524 87.5422 948.077 84.3017 940.866 87.512C933.656 90.7224 930.412 99.168 933.621 106.376C936.83 113.584 945.277 116.824 952.487 113.614ZM955.144 119.58C965.651 114.902 970.377 102.595 965.701 92.0926C961.025 81.5899 948.717 76.868 938.21 81.5459C927.703 86.2239 922.976 98.5303 927.652 109.033C932.329 119.536 944.637 124.258 955.144 119.58Z" fill="white"/>
<path fill-rule="evenodd" clip-rule="evenodd" d="M46.0266 328.648C50.353 326.721 52.2993 321.654 50.3739 317.329C48.4484 313.005 43.3803 311.06 39.0539 312.987C34.7275 314.913 32.7812 319.98 34.7067 324.305C36.6321 328.63 41.7003 330.574 46.0266 328.648ZM51.0072 339.834C61.5141 335.156 66.2409 322.85 61.5647 312.347C56.8886 301.844 44.5803 297.122 34.0734 301.8C23.5665 306.478 18.8397 318.785 23.5158 329.287C28.1919 339.79 40.5002 344.512 51.0072 339.834Z" fill="white"/>
<path fill-rule="evenodd" clip-rule="evenodd" d="M96.828 442.749C101.154 440.823 103.101 435.756 101.175 431.431C99.2498 427.106 94.1816 425.162 89.8553 427.088C85.5289 429.015 83.5826 434.082 85.508 438.407C87.4335 442.731 92.5016 444.676 96.828 442.749ZM101.809 453.936C112.315 449.258 117.042 436.951 112.366 426.449C107.69 415.946 95.3817 411.224 84.8747 415.902C74.3678 420.58 69.641 432.886 74.3172 443.389C78.9933 453.892 91.3016 458.614 101.809 453.936Z" fill="white"/>
<path fill-rule="evenodd" clip-rule="evenodd" d="M79.8942 404.716C84.2206 402.789 86.1669 397.722 84.2414 393.397C82.316 389.073 77.2479 387.128 72.9215 389.054C68.5951 390.981 66.6488 396.048 68.5742 400.373C70.4997 404.697 75.5678 406.642 79.8942 404.716ZM84.8747 415.902C95.3817 411.224 100.108 398.918 95.4323 388.415C90.7562 377.912 78.4479 373.19 67.9409 377.868C57.434 382.546 52.7072 394.852 57.3834 405.355C62.0595 415.858 74.3678 420.58 84.8747 415.902Z" fill="white"/>
<path fill-rule="evenodd" clip-rule="evenodd" d="M130.696 518.817C135.022 516.891 136.968 511.824 135.043 507.499C133.117 503.174 128.049 501.23 123.723 503.156C119.396 505.082 117.45 510.15 119.376 514.474C121.301 518.799 126.369 520.743 130.696 518.817ZM135.676 530.004C146.183 525.326 150.91 513.019 146.234 502.516C141.558 492.014 129.249 487.292 118.742 491.97C108.235 496.648 103.509 508.954 108.185 519.457C112.861 529.96 125.169 534.682 135.676 530.004Z" fill="white"/>
<path fill-rule="evenodd" clip-rule="evenodd" d="M24.9115 383.622C29.2379 381.696 31.1842 376.628 29.2587 372.304C27.3333 367.979 22.2651 366.035 17.9388 367.961C13.6124 369.887 11.6661 374.955 13.5915 379.279C15.517 383.604 20.5851 385.548 24.9115 383.622ZM29.892 394.808C40.3989 390.131 45.1257 377.824 40.4496 367.321C35.7735 356.819 23.4652 352.097 12.9582 356.775C2.45132 361.453 -2.27546 373.759 2.40067 384.262C7.07681 394.765 19.3851 399.486 29.892 394.808Z" fill="white"/>
<path fill-rule="evenodd" clip-rule="evenodd" d="M75.7129 497.724C80.0392 495.798 81.9856 490.73 80.0601 486.406C78.1346 482.081 73.0665 480.137 68.7401 482.063C64.4138 483.989 62.4674 489.056 64.3929 493.381C66.3184 497.706 71.3865 499.65 75.7129 497.724ZM80.6934 508.91C91.2003 504.232 95.9271 491.926 91.251 481.423C86.5748 470.92 74.2665 466.198 63.7596 470.876C53.2527 475.554 48.5259 487.861 53.202 498.363C57.8782 508.866 70.1865 513.588 80.6934 508.91Z" fill="white"/>
<path fill-rule="evenodd" clip-rule="evenodd" d="M122.125 294.767C126.451 292.84 128.397 287.773 126.472 283.448C124.546 279.124 119.478 277.179 115.152 279.106C110.825 281.032 108.879 286.099 110.805 290.424C112.73 294.749 117.798 296.693 122.125 294.767ZM127.105 305.953C137.612 301.275 142.339 288.969 137.663 278.466C132.987 267.963 120.678 263.241 110.171 267.919C99.6644 272.597 94.9376 284.904 99.6137 295.406C104.29 305.909 116.598 310.631 127.105 305.953Z" fill="white"/>
<path fill-rule="evenodd" clip-rule="evenodd" d="M172.926 408.868C177.252 406.942 179.199 401.875 177.273 397.55C175.348 393.226 170.28 391.281 165.953 393.207C161.627 395.134 159.68 400.201 161.606 404.526C163.531 408.85 168.6 410.795 172.926 408.868ZM177.906 420.055C188.413 415.377 193.14 403.07 188.464 392.568C183.788 382.065 171.48 377.343 160.973 382.021C150.466 386.699 145.739 399.005 150.415 409.508C155.091 420.011 167.4 424.733 177.906 420.055Z" fill="white"/>
<path fill-rule="evenodd" clip-rule="evenodd" d="M155.992 370.835C160.319 368.908 162.265 363.841 160.339 359.516C158.414 355.192 153.346 353.247 149.019 355.174C144.693 357.1 142.747 362.167 144.672 366.492C146.598 370.816 151.666 372.761 155.992 370.835ZM160.973 382.021C171.48 377.343 176.206 365.037 171.53 354.534C166.854 344.031 154.546 339.309 144.039 343.987C133.532 348.665 128.805 360.971 133.481 371.474C138.157 381.977 150.466 386.699 160.973 382.021Z" fill="white"/>
<path fill-rule="evenodd" clip-rule="evenodd" d="M206.794 484.936C211.12 483.01 213.066 477.943 211.141 473.618C209.215 469.293 204.147 467.349 199.821 469.275C195.494 471.201 193.548 476.269 195.474 480.593C197.399 484.918 202.467 486.862 206.794 484.936ZM211.774 496.123C222.281 491.445 227.008 479.138 222.332 468.636C217.655 458.133 205.347 453.411 194.84 458.089C184.333 462.767 179.607 475.073 184.283 485.576C188.959 496.079 201.267 500.801 211.774 496.123Z" fill="white"/>
<path fill-rule="evenodd" clip-rule="evenodd" d="M101.009 349.741C105.336 347.815 107.282 342.748 105.357 338.423C103.431 334.098 98.363 332.154 94.0366 334.08C89.7102 336.006 87.7639 341.074 89.6894 345.398C91.6148 349.723 96.6829 351.667 101.009 349.741ZM105.99 360.928C116.497 356.25 121.224 343.943 116.547 333.44C111.871 322.938 99.563 318.216 89.0561 322.894C78.5491 327.572 73.8224 339.878 78.4985 350.381C83.1746 360.884 95.4829 365.606 105.99 360.928Z" fill="white"/>
<path fill-rule="evenodd" clip-rule="evenodd" d="M151.811 463.843C156.137 461.917 158.083 456.849 156.158 452.525C154.232 448.2 149.164 446.256 144.838 448.182C140.512 450.108 138.565 455.175 140.491 459.5C142.416 463.825 147.484 465.769 151.811 463.843ZM156.791 475.029C167.298 470.351 172.025 458.045 167.349 447.542C162.673 437.039 150.364 432.317 139.857 436.995C129.351 441.673 124.624 453.98 129.3 464.483C133.976 474.985 146.284 479.707 156.791 475.029Z" fill="white"/>
<path fill-rule="evenodd" clip-rule="evenodd" d="M197.849 261.052C202.176 259.126 204.122 254.058 202.197 249.734C200.271 245.409 195.203 243.465 190.877 245.391C186.55 247.317 184.604 252.384 186.529 256.709C188.455 261.034 193.523 262.978 197.849 261.052ZM202.83 272.238C213.337 267.56 218.063 255.254 213.387 244.751C208.711 234.248 196.403 229.526 185.896 234.204C175.389 238.882 170.662 251.189 175.338 261.692C180.015 272.194 192.323 276.916 202.83 272.238Z" fill="white"/>
<path fill-rule="evenodd" clip-rule="evenodd" d="M248.651 375.154C252.977 373.227 254.923 368.16 252.998 363.835C251.072 359.511 246.004 357.566 241.678 359.493C237.352 361.419 235.405 366.486 237.331 370.811C239.256 375.136 244.324 377.08 248.651 375.154ZM253.631 386.34C264.138 381.662 268.865 369.356 264.189 358.853C259.513 348.35 247.204 343.628 236.697 348.306C226.19 352.984 221.464 365.291 226.14 375.793C230.816 386.296 243.124 391.018 253.631 386.34Z" fill="white"/>
<path fill-rule="evenodd" clip-rule="evenodd" d="M231.717 337.12C236.043 335.193 237.99 330.126 236.064 325.801C234.139 321.477 229.071 319.532 224.744 321.459C220.418 323.385 218.471 328.452 220.397 332.777C222.322 337.102 227.39 339.046 231.717 337.12ZM236.697 348.306C247.204 343.628 251.931 331.322 247.255 320.819C242.579 310.316 230.271 305.594 219.764 310.272C209.257 314.95 204.53 327.257 209.206 337.759C213.882 348.262 226.19 352.984 236.697 348.306Z" fill="white"/>
<path fill-rule="evenodd" clip-rule="evenodd" d="M282.518 451.221C286.845 449.295 288.791 444.228 286.865 439.903C284.94 435.579 279.872 433.634 275.545 435.56C271.219 437.487 269.273 442.554 271.198 446.879C273.124 451.203 278.192 453.148 282.518 451.221ZM287.499 462.408C298.006 457.73 302.732 445.423 298.056 434.921C293.38 424.418 281.072 419.696 270.565 424.374C260.058 429.052 255.331 441.358 260.007 451.861C264.684 462.364 276.992 467.086 287.499 462.408Z" fill="white"/>
<path fill-rule="evenodd" clip-rule="evenodd" d="M176.734 316.026C181.061 314.1 183.007 309.033 181.081 304.708C179.156 300.383 174.088 298.439 169.761 300.365C165.435 302.291 163.489 307.359 165.414 311.683C167.34 316.008 172.408 317.952 176.734 316.026ZM181.715 327.213C192.222 322.535 196.948 310.228 192.272 299.725C187.596 289.223 175.288 284.501 164.781 289.179C154.274 293.857 149.547 306.163 154.223 316.666C158.9 327.169 171.208 331.891 181.715 327.213Z" fill="white"/>
<path fill-rule="evenodd" clip-rule="evenodd" d="M227.536 430.128C231.862 428.202 233.808 423.134 231.883 418.81C229.957 414.485 224.889 412.541 220.563 414.467C216.236 416.393 214.29 421.461 216.216 425.785C218.141 430.11 223.209 432.054 227.536 430.128ZM232.516 441.314C243.023 436.636 247.75 424.33 243.074 413.827C238.398 403.324 226.089 398.602 215.582 403.28C205.075 407.958 200.349 420.265 205.025 430.768C209.701 441.27 222.009 445.992 232.516 441.314Z" fill="white"/>
<path fill-rule="evenodd" clip-rule="evenodd" d="M350.045 193.29C354.371 191.364 356.318 186.296 354.392 181.972C352.467 177.647 347.399 175.703 343.072 177.629C338.746 179.555 336.8 184.623 338.725 188.947C340.651 193.272 345.719 195.216 350.045 193.29ZM355.026 204.476C365.532 199.798 370.259 187.492 365.583 176.989C360.907 166.486 348.599 161.765 338.092 166.443C327.585 171.121 322.858 183.427 327.534 193.93C332.21 204.432 344.519 209.154 355.026 204.476Z" fill="white"/>
<path fill-rule="evenodd" clip-rule="evenodd" d="M400.846 307.392C405.173 305.465 407.119 300.398 405.194 296.073C403.268 291.749 398.2 289.804 393.874 291.731C389.547 293.657 387.601 298.724 389.526 303.049C391.452 307.374 396.52 309.318 400.846 307.392ZM405.827 318.578C416.334 313.9 421.061 301.594 416.384 291.091C411.708 280.588 399.4 275.866 388.893 280.544C378.386 285.222 373.659 297.529 378.336 308.031C383.012 318.534 395.32 323.256 405.827 318.578Z" fill="white"/>
<path fill-rule="evenodd" clip-rule="evenodd" d="M383.913 269.358C388.239 267.432 390.185 262.364 388.26 258.04C386.334 253.715 381.266 251.771 376.94 253.697C372.613 255.623 370.667 260.69 372.593 265.015C374.518 269.34 379.586 271.284 383.913 269.358ZM388.893 280.544C399.4 275.866 404.127 263.56 399.451 253.057C394.775 242.554 382.466 237.832 371.959 242.51C361.452 247.188 356.726 259.495 361.402 269.998C366.078 280.5 378.386 285.222 388.893 280.544Z" fill="white"/>
<path fill-rule="evenodd" clip-rule="evenodd" d="M434.714 383.46C439.04 381.533 440.987 376.466 439.061 372.141C437.136 367.817 432.068 365.872 427.741 367.799C423.415 369.725 421.469 374.792 423.394 379.117C425.319 383.441 430.388 385.386 434.714 383.46ZM439.694 394.646C450.201 389.968 454.928 377.662 450.252 367.159C445.576 356.656 433.268 351.934 422.761 356.612C412.254 361.29 407.527 373.596 412.203 384.099C416.879 394.602 429.188 399.324 439.694 394.646Z" fill="white"/>
<path fill-rule="evenodd" clip-rule="evenodd" d="M328.93 248.264C333.256 246.338 335.203 241.271 333.277 236.946C331.352 232.621 326.284 230.677 321.957 232.603C317.631 234.53 315.684 239.597 317.61 243.922C319.535 248.246 324.604 250.191 328.93 248.264ZM333.91 259.451C344.417 254.773 349.144 242.466 344.468 231.964C339.792 221.461 327.484 216.739 316.977 221.417C306.47 226.095 301.743 238.401 306.419 248.904C311.095 259.407 323.404 264.129 333.91 259.451Z" fill="white"/>
<path fill-rule="evenodd" clip-rule="evenodd" d="M379.731 362.366C384.058 360.44 386.004 355.372 384.078 351.048C382.153 346.723 377.085 344.779 372.759 346.705C368.432 348.631 366.486 353.699 368.411 358.023C370.337 362.348 375.405 364.292 379.731 362.366ZM384.712 373.553C395.219 368.875 399.945 356.568 395.269 346.065C390.593 335.563 378.285 330.841 367.778 335.519C357.271 340.197 352.544 352.503 357.22 363.006C361.897 373.509 374.205 378.23 384.712 373.553Z" fill="white"/>
<path fill-rule="evenodd" clip-rule="evenodd" d="M273.947 227.171C278.273 225.245 280.22 220.177 278.294 215.853C276.369 211.528 271.301 209.584 266.974 211.51C262.648 213.436 260.702 218.504 262.627 222.828C264.553 227.153 269.621 229.097 273.947 227.171ZM278.928 238.357C289.435 233.679 294.161 221.373 289.485 210.87C284.809 200.367 272.501 195.646 261.994 200.324C251.487 205.001 246.76 217.308 251.436 227.811C256.112 238.313 268.421 243.035 278.928 238.357Z" fill="white"/>
<path fill-rule="evenodd" clip-rule="evenodd" d="M324.748 341.273C329.075 339.346 331.021 334.279 329.096 329.954C327.17 325.63 322.102 323.685 317.776 325.612C313.449 327.538 311.503 332.605 313.428 336.93C315.354 341.255 320.422 343.199 324.748 341.273ZM329.729 352.459C340.236 347.781 344.963 335.475 340.287 324.972C335.61 314.469 323.302 309.747 312.795 314.425C302.288 319.103 297.561 331.41 302.238 341.912C306.914 352.415 319.222 357.137 329.729 352.459Z" fill="white"/>
<path fill-rule="evenodd" clip-rule="evenodd" d="M307.815 303.239C312.141 301.313 314.087 296.245 312.162 291.921C310.236 287.596 305.168 285.652 300.842 287.578C296.516 289.504 294.569 294.571 296.495 298.896C298.42 303.221 303.488 305.165 307.815 303.239ZM312.795 314.425C323.302 309.747 328.029 297.441 323.353 286.938C318.677 276.435 306.368 271.713 295.861 276.391C285.354 281.069 280.628 293.376 285.304 303.879C289.98 314.381 302.288 319.103 312.795 314.425Z" fill="white"/>
<path fill-rule="evenodd" clip-rule="evenodd" d="M358.616 417.341C362.942 415.414 364.889 410.347 362.963 406.022C361.038 401.698 355.97 399.753 351.643 401.679C347.317 403.606 345.371 408.673 347.296 412.998C349.222 417.322 354.29 419.267 358.616 417.341ZM363.597 428.527C374.103 423.849 378.83 411.543 374.154 401.04C369.478 390.537 357.17 385.815 346.663 390.493C336.156 395.171 331.429 407.477 336.105 417.98C340.781 428.483 353.09 433.205 363.597 428.527Z" fill="white"/>
<path fill-rule="evenodd" clip-rule="evenodd" d="M252.832 282.145C257.158 280.219 259.105 275.152 257.179 270.827C255.254 266.502 250.186 264.558 245.859 266.484C241.533 268.41 239.587 273.478 241.512 277.803C243.438 282.127 248.506 284.072 252.832 282.145ZM257.813 293.332C268.32 288.654 273.046 276.347 268.37 265.845C263.694 255.342 251.386 250.62 240.879 255.298C230.372 259.976 225.645 272.282 230.321 282.785C234.997 293.288 247.306 298.01 257.813 293.332Z" fill="white"/>
<path fill-rule="evenodd" clip-rule="evenodd" d="M303.633 396.247C307.96 394.321 309.906 389.253 307.981 384.929C306.055 380.604 300.987 378.66 296.661 380.586C292.334 382.512 290.388 387.58 292.313 391.904C294.239 396.229 299.307 398.173 303.633 396.247ZM308.614 407.433C319.121 402.755 323.848 390.449 319.171 379.946C314.495 369.443 302.187 364.722 291.68 369.4C281.173 374.078 276.446 386.384 281.123 396.887C285.799 407.389 298.107 412.111 308.614 407.433Z" fill="white"/>
<path fill-rule="evenodd" clip-rule="evenodd" d="M426.143 159.409C430.469 157.483 432.416 152.415 430.49 148.091C428.565 143.766 423.496 141.822 419.17 143.748C414.844 145.674 412.897 150.742 414.823 155.066C416.748 159.391 421.816 161.335 426.143 159.409ZM431.123 170.595C441.63 165.918 446.357 153.611 441.681 143.108C437.005 132.606 424.697 127.884 414.19 132.562C403.683 137.24 398.956 149.546 403.632 160.049C408.308 170.552 420.616 175.273 431.123 170.595Z" fill="white"/>
<path fill-rule="evenodd" clip-rule="evenodd" d="M476.944 273.511C481.271 271.585 483.217 266.517 481.291 262.193C479.366 257.868 474.298 255.924 469.971 257.85C465.645 259.776 463.699 264.843 465.624 269.168C467.55 273.493 472.618 275.437 476.944 273.511ZM481.925 284.697C492.432 280.019 497.158 267.713 492.482 257.21C487.806 246.707 475.498 241.985 464.991 246.663C454.484 251.341 449.757 263.648 454.433 274.15C459.11 284.653 471.418 289.375 481.925 284.697Z" fill="white"/>
<path fill-rule="evenodd" clip-rule="evenodd" d="M460.01 235.477C464.337 233.551 466.283 228.483 464.358 224.159C462.432 219.834 457.364 217.89 453.038 219.816C448.711 221.742 446.765 226.809 448.69 231.134C450.616 235.459 455.684 237.403 460.01 235.477ZM464.991 246.663C475.498 241.985 480.225 229.679 475.549 219.176C470.872 208.673 458.564 203.951 448.057 208.629C437.55 213.307 432.823 225.614 437.5 236.117C442.176 246.619 454.484 251.341 464.991 246.663Z" fill="white"/>
<path fill-rule="evenodd" clip-rule="evenodd" d="M510.812 349.579C515.138 347.652 517.084 342.585 515.159 338.26C513.234 333.936 508.165 331.991 503.839 333.918C499.513 335.844 497.566 340.911 499.492 345.236C501.417 349.561 506.485 351.505 510.812 349.579ZM515.792 360.765C526.299 356.087 531.026 343.781 526.35 333.278C521.674 322.775 509.365 318.053 498.859 322.731C488.352 327.409 483.625 339.716 488.301 350.218C492.977 360.721 505.285 365.443 515.792 360.765Z" fill="white"/>
<path fill-rule="evenodd" clip-rule="evenodd" d="M405.028 214.383C409.354 212.457 411.3 207.39 409.375 203.065C407.449 198.74 402.381 196.796 398.055 198.722C393.729 200.649 391.782 205.716 393.708 210.041C395.633 214.365 400.701 216.31 405.028 214.383ZM410.008 225.57C420.515 220.892 425.242 208.585 420.566 198.083C415.89 187.58 403.581 182.858 393.074 187.536C382.568 192.214 377.841 204.52 382.517 215.023C387.193 225.526 399.501 230.248 410.008 225.57Z" fill="white"/>
<path fill-rule="evenodd" clip-rule="evenodd" d="M455.829 328.485C460.155 326.559 462.102 321.492 460.176 317.167C458.251 312.842 453.183 310.898 448.856 312.824C444.53 314.75 442.584 319.818 444.509 324.142C446.435 328.467 451.503 330.411 455.829 328.485ZM460.81 339.672C471.317 334.994 476.043 322.687 471.367 312.184C466.691 301.682 454.383 296.96 443.876 301.638C433.369 306.316 428.642 318.622 433.318 329.125C437.994 339.628 450.303 344.35 460.81 339.672Z" fill="white"/>
<path fill-rule="evenodd" clip-rule="evenodd" d="M86.3998 316.928C93.6104 313.717 96.8543 305.272 93.6452 298.064C90.4361 290.856 81.9892 287.615 74.7786 290.826C67.5679 294.036 64.3241 302.482 67.5332 309.69C70.7423 316.897 79.1892 320.138 86.3998 316.928ZM89.0561 322.894C99.563 318.216 104.29 305.909 99.6137 295.406C94.9376 284.904 82.6292 280.182 72.1223 284.86C61.6154 289.538 56.8886 301.844 61.5647 312.347C66.2409 322.85 78.5491 327.572 89.0561 322.894Z" fill="white"/>
<path fill-rule="evenodd" clip-rule="evenodd" d="M137.201 431.029C144.412 427.819 147.656 419.373 144.447 412.166C141.237 404.958 132.791 401.717 125.58 404.928C118.369 408.138 115.125 416.584 118.335 423.791C121.544 430.999 129.991 434.24 137.201 431.029ZM139.857 436.995C150.364 432.317 155.091 420.011 150.415 409.508C145.739 399.005 133.431 394.284 122.924 398.961C112.417 403.639 107.69 415.946 112.366 426.449C117.042 436.951 129.351 441.673 139.857 436.995Z" fill="white"/>
<path fill-rule="evenodd" clip-rule="evenodd" d="M120.267 392.995C127.478 389.785 130.722 381.339 127.513 374.132C124.304 366.924 115.857 363.683 108.646 366.894C101.436 370.104 98.1916 378.55 101.401 385.757C104.61 392.965 113.057 396.206 120.267 392.995ZM122.924 398.961C133.431 394.284 138.157 381.977 133.481 371.474C128.805 360.971 116.497 356.25 105.99 360.928C95.4829 365.606 90.7562 377.912 95.4323 388.415C100.108 398.918 112.417 403.639 122.924 398.961Z" fill="white"/>
<path fill-rule="evenodd" clip-rule="evenodd" d="M171.069 507.097C178.279 503.887 181.523 495.441 178.314 488.233C175.105 481.026 166.658 477.785 159.448 480.995C152.237 484.206 148.993 492.651 152.202 499.859C155.411 507.067 163.858 510.307 171.069 507.097ZM173.725 513.063C184.232 508.385 188.959 496.079 184.283 485.576C179.607 475.073 167.298 470.351 156.791 475.029C146.284 479.707 141.558 492.014 146.234 502.516C150.91 513.019 163.218 517.741 173.725 513.063Z" fill="white"/>
<path fill-rule="evenodd" clip-rule="evenodd" d="M65.2847 371.902C72.4953 368.692 75.7392 360.246 72.5301 353.038C69.3209 345.83 60.8741 342.59 53.6634 345.8C46.4528 349.011 43.2089 357.456 46.418 364.664C49.6272 371.872 58.074 375.112 65.2847 371.902ZM67.9409 377.868C78.4479 373.19 83.1746 360.884 78.4985 350.381C73.8224 339.878 61.5141 335.156 51.0072 339.834C40.5002 344.512 35.7735 356.819 40.4496 367.321C45.1257 377.824 57.434 382.546 67.9409 377.868Z" fill="white"/>
<path fill-rule="evenodd" clip-rule="evenodd" d="M116.086 486.004C123.297 482.793 126.541 474.348 123.331 467.14C120.122 459.932 111.675 456.692 104.465 459.902C97.2542 463.112 94.0103 471.558 97.2194 478.766C100.429 485.973 108.875 489.214 116.086 486.004ZM118.742 491.97C129.249 487.292 133.976 474.985 129.3 464.483C124.624 453.98 112.315 449.258 101.809 453.936C91.3016 458.614 86.5748 470.92 91.251 481.423C95.9271 491.926 108.235 496.648 118.742 491.97Z" fill="white"/>
<path fill-rule="evenodd" clip-rule="evenodd" d="M162.311 283.13C169.363 279.99 172.604 271.612 169.37 264.349C166.136 257.086 157.742 253.888 150.69 257.028C143.638 260.168 140.397 268.545 143.631 275.809C146.865 283.072 155.259 286.27 162.311 283.13ZM164.967 289.096C175.371 284.464 180.015 272.194 175.338 261.692C170.662 251.189 158.438 246.43 148.034 251.062C137.63 255.694 132.987 267.963 137.663 278.466C142.339 288.969 154.563 293.728 164.967 289.096Z" fill="white"/>
<path fill-rule="evenodd" clip-rule="evenodd" d="M213.112 397.231C220.165 394.092 223.405 385.714 220.171 378.451C216.938 371.187 208.544 367.99 201.491 371.13C194.439 374.27 191.199 382.647 194.432 389.91C197.666 397.174 206.06 400.371 213.112 397.231ZM215.769 403.198C226.173 398.565 230.816 386.296 226.14 375.793C221.464 365.291 209.239 360.531 198.835 365.164C188.431 369.796 183.788 382.065 188.464 392.568C193.14 403.07 205.365 407.83 215.769 403.198Z" fill="white"/>
<path fill-rule="evenodd" clip-rule="evenodd" d="M196.179 359.197C203.231 356.058 206.471 347.68 203.238 340.417C200.004 333.153 191.61 329.956 184.557 333.096C177.505 336.236 174.265 344.613 177.499 351.877C180.732 359.14 189.126 362.337 196.179 359.197ZM198.835 365.164C209.239 360.531 213.882 348.262 209.206 337.759C204.53 327.257 192.305 322.498 181.901 327.13C171.497 331.762 166.854 344.031 171.53 354.534C176.206 365.037 188.431 369.796 198.835 365.164Z" fill="white"/>
<path fill-rule="evenodd" clip-rule="evenodd" d="M246.98 473.299C254.032 470.159 257.273 461.782 254.039 454.519C250.805 447.255 242.411 444.058 235.359 447.198C228.306 450.337 225.066 458.715 228.3 465.978C231.534 473.242 239.928 476.439 246.98 473.299ZM249.636 479.265C260.04 474.633 264.684 462.364 260.007 451.861C255.331 441.358 243.106 436.599 232.703 441.231C222.299 445.864 217.655 458.133 222.332 468.636C227.008 479.138 239.232 483.897 249.636 479.265Z" fill="white"/>
<path fill-rule="evenodd" clip-rule="evenodd" d="M141.196 338.104C148.248 334.964 151.489 326.587 148.255 319.323C145.021 312.06 136.627 308.862 129.575 312.002C122.523 315.142 119.282 323.52 122.516 330.783C125.75 338.046 134.144 341.244 141.196 338.104ZM143.852 344.07C154.256 339.438 158.9 327.169 154.223 316.666C149.547 306.163 137.322 301.404 126.919 306.036C116.515 310.668 111.871 322.938 116.547 333.44C121.224 343.943 133.448 348.702 143.852 344.07Z" fill="white"/>
<path fill-rule="evenodd" clip-rule="evenodd" d="M191.997 452.206C199.05 449.066 202.29 440.688 199.056 433.425C195.822 426.162 187.429 422.964 180.376 426.104C173.324 429.244 170.083 437.621 173.317 444.885C176.551 452.148 184.945 455.346 191.997 452.206ZM194.654 458.172C205.058 453.54 209.701 441.27 205.025 430.768C200.349 420.265 188.124 415.506 177.72 420.138C167.316 424.77 162.673 437.039 167.349 447.542C172.025 458.045 184.25 462.804 194.654 458.172Z" fill="white"/>
<path fill-rule="evenodd" clip-rule="evenodd" d="M238.223 249.332C245.433 246.121 248.677 237.676 245.468 230.468C242.259 223.26 233.812 220.02 226.601 223.23C219.391 226.44 216.147 234.886 219.356 242.094C222.565 249.302 231.012 252.542 238.223 249.332ZM240.879 255.298C251.386 250.62 256.112 238.313 251.436 227.811C246.76 217.308 234.452 212.586 223.945 217.264C213.438 221.942 208.711 234.248 213.387 244.751C218.063 255.254 230.372 259.976 240.879 255.298Z" fill="white"/>
<path fill-rule="evenodd" clip-rule="evenodd" d="M289.024 363.433C296.235 360.223 299.478 351.777 296.269 344.57C293.06 337.362 284.613 334.121 277.403 337.332C270.192 340.542 266.948 348.988 270.157 356.196C273.366 363.403 281.813 366.644 289.024 363.433ZM291.68 369.4C302.187 364.722 306.914 352.415 302.238 341.912C297.561 331.41 285.253 326.688 274.746 331.366C264.239 336.044 259.513 348.35 264.189 358.853C268.865 369.356 281.173 374.078 291.68 369.4Z" fill="white"/>
<path fill-rule="evenodd" clip-rule="evenodd" d="M272.09 325.4C279.301 322.189 282.545 313.744 279.335 306.536C276.126 299.328 267.68 296.087 260.469 299.298C253.258 302.508 250.014 310.954 253.223 318.162C256.433 325.369 264.879 328.61 272.09 325.4ZM274.746 331.366C285.253 326.688 289.98 314.381 285.304 303.879C280.628 293.376 268.32 288.654 257.813 293.332C247.306 298.01 242.579 310.316 247.255 320.819C251.931 331.322 264.239 336.044 274.746 331.366Z" fill="white"/>
<path fill-rule="evenodd" clip-rule="evenodd" d="M322.891 439.501C330.102 436.291 333.346 427.845 330.137 420.638C326.928 413.43 318.481 410.189 311.27 413.4C304.06 416.61 300.816 425.056 304.025 432.263C307.234 439.471 315.681 442.712 322.891 439.501ZM325.548 445.467C336.055 440.789 340.781 428.483 336.105 417.98C331.429 407.477 319.121 402.755 308.614 407.433C298.107 412.111 293.38 424.418 298.056 434.921C302.732 445.423 315.041 450.145 325.548 445.467Z" fill="white"/>
<path fill-rule="evenodd" clip-rule="evenodd" d="M217.107 304.306C224.318 301.096 227.562 292.65 224.353 285.442C221.144 278.235 212.697 274.994 205.486 278.204C198.275 281.415 195.032 289.86 198.241 297.068C201.45 304.276 209.897 307.517 217.107 304.306ZM219.764 310.272C230.271 305.594 234.997 293.288 230.321 282.785C225.645 272.282 213.337 267.56 202.83 272.238C192.323 276.916 187.596 289.223 192.272 299.725C196.948 310.228 209.257 314.95 219.764 310.272Z" fill="white"/>
<path fill-rule="evenodd" clip-rule="evenodd" d="M267.909 418.408C275.119 415.197 278.363 406.752 275.154 399.544C271.945 392.336 263.498 389.096 256.287 392.306C249.077 395.517 245.833 403.962 249.042 411.17C252.251 418.378 260.698 421.618 267.909 418.408ZM270.565 424.374C281.072 419.696 285.799 407.389 281.123 396.887C276.446 386.384 264.138 381.662 253.631 386.34C243.124 391.018 238.398 403.324 243.074 413.827C247.75 424.33 260.058 429.052 270.565 424.374Z" fill="white"/>
<path fill-rule="evenodd" clip-rule="evenodd" d="M390.418 181.57C397.629 178.359 400.873 169.914 397.664 162.706C394.454 155.498 386.008 152.258 378.797 155.468C371.586 158.679 368.342 167.124 371.552 174.332C374.761 181.54 383.208 184.78 390.418 181.57ZM393.074 187.536C403.581 182.858 408.308 170.552 403.632 160.049C398.956 149.546 386.648 144.824 376.141 149.502C365.634 154.18 360.907 166.486 365.583 176.989C370.259 187.492 382.568 192.214 393.074 187.536Z" fill="white"/>
<path fill-rule="evenodd" clip-rule="evenodd" d="M441.22 295.672C448.43 292.461 451.674 284.016 448.465 276.808C445.256 269.6 436.809 266.359 429.598 269.57C422.388 272.78 419.144 281.226 422.353 288.434C425.562 295.641 434.009 298.882 441.22 295.672ZM443.876 301.638C454.383 296.96 459.11 284.653 454.433 274.15C449.757 263.648 437.449 258.926 426.942 263.604C416.435 268.282 411.708 280.588 416.384 291.091C421.061 301.594 433.369 306.316 443.876 301.638Z" fill="white"/>
<path fill-rule="evenodd" clip-rule="evenodd" d="M424.286 257.638C431.496 254.427 434.74 245.982 431.531 238.774C428.322 231.566 419.875 228.326 412.665 231.536C405.454 234.746 402.21 243.192 405.419 250.4C408.628 257.608 417.075 260.848 424.286 257.638ZM426.942 263.604C437.449 258.926 442.176 246.619 437.5 236.117C432.823 225.614 420.515 220.892 410.008 225.57C399.501 230.248 394.775 242.554 399.451 253.057C404.127 263.56 416.435 268.282 426.942 263.604Z" fill="white"/>
<path fill-rule="evenodd" clip-rule="evenodd" d="M475.087 371.739C482.298 368.529 485.542 360.083 482.333 352.876C479.123 345.668 470.677 342.427 463.466 345.638C456.255 348.848 453.011 357.294 456.221 364.501C459.43 371.709 467.876 374.95 475.087 371.739ZM477.743 377.705C488.25 373.028 492.977 360.721 488.301 350.218C483.625 339.716 471.317 334.994 460.81 339.672C450.303 344.35 445.576 356.656 450.252 367.159C454.928 377.662 467.236 382.383 477.743 377.705Z" fill="white"/>
<path fill-rule="evenodd" clip-rule="evenodd" d="M369.303 236.544C376.514 233.334 379.758 224.888 376.548 217.68C373.339 210.473 364.892 207.232 357.682 210.443C350.471 213.653 347.227 222.098 350.436 229.306C353.646 236.514 362.092 239.755 369.303 236.544ZM371.959 242.51C382.466 237.832 387.193 225.526 382.517 215.023C377.841 204.52 365.532 199.798 355.026 204.476C344.519 209.154 339.792 221.461 344.468 231.964C349.144 242.466 361.452 247.188 371.959 242.51Z" fill="white"/>
<path fill-rule="evenodd" clip-rule="evenodd" d="M420.104 350.646C427.315 347.436 430.559 338.99 427.35 331.782C424.141 324.574 415.694 321.334 408.483 324.544C401.273 327.755 398.029 336.2 401.238 343.408C404.447 350.616 412.894 353.856 420.104 350.646ZM422.761 356.612C433.268 351.934 437.994 339.628 433.318 329.125C428.642 318.622 416.334 313.9 405.827 318.578C395.32 323.256 390.593 335.563 395.269 346.065C399.945 356.568 412.254 361.29 422.761 356.612Z" fill="white"/>
<path fill-rule="evenodd" clip-rule="evenodd" d="M314.32 215.451C321.531 212.24 324.775 203.795 321.566 196.587C318.357 189.379 309.91 186.139 302.699 189.349C295.489 192.559 292.245 201.005 295.454 208.213C298.663 215.421 307.11 218.661 314.32 215.451ZM316.977 221.417C327.484 216.739 332.21 204.432 327.534 193.93C322.858 183.427 310.55 178.705 300.043 183.383C289.536 188.061 284.809 200.367 289.485 210.87C294.161 221.373 306.47 226.095 316.977 221.417Z" fill="white"/>
<path fill-rule="evenodd" clip-rule="evenodd" d="M365.122 329.553C372.332 326.342 375.576 317.897 372.367 310.689C369.158 303.481 360.711 300.24 353.5 303.451C346.29 306.661 343.046 315.107 346.255 322.315C349.464 329.522 357.911 332.763 365.122 329.553ZM367.778 335.519C378.285 330.841 383.012 318.534 378.336 308.031C373.659 297.529 361.351 292.807 350.844 297.485C340.337 302.163 335.61 314.469 340.287 324.972C344.963 335.475 357.271 340.197 367.778 335.519Z" fill="white"/>
<path fill-rule="evenodd" clip-rule="evenodd" d="M348.188 291.519C355.399 288.308 358.642 279.863 355.433 272.655C352.224 265.447 343.777 262.207 336.567 265.417C329.356 268.627 326.112 277.073 329.321 284.281C332.53 291.488 340.977 294.729 348.188 291.519ZM350.844 297.485C361.351 292.807 366.078 280.5 361.402 269.998C356.726 259.495 344.417 254.773 333.91 259.451C323.404 264.129 318.677 276.435 323.353 286.938C328.029 297.441 340.337 302.163 350.844 297.485Z" fill="white"/>
<path fill-rule="evenodd" clip-rule="evenodd" d="M398.989 405.62C406.2 402.41 409.444 393.964 406.235 386.757C403.026 379.549 394.579 376.308 387.368 379.519C380.157 382.729 376.914 391.175 380.123 398.382C383.332 405.59 391.779 408.831 398.989 405.62ZM401.646 411.586C412.152 406.908 416.879 394.602 412.203 384.099C407.527 373.596 395.219 368.875 384.712 373.553C374.205 378.23 369.478 390.537 374.154 401.04C378.83 411.543 391.139 416.264 401.646 411.586Z" fill="white"/>
<path fill-rule="evenodd" clip-rule="evenodd" d="M293.205 270.425C300.416 267.215 303.66 258.769 300.451 251.561C297.241 244.354 288.795 241.113 281.584 244.324C274.373 247.534 271.129 255.979 274.339 263.187C277.548 270.395 285.995 273.636 293.205 270.425ZM295.861 276.391C306.368 271.713 311.095 259.407 306.419 248.904C301.743 238.401 289.435 233.679 278.928 238.357C268.421 243.035 263.694 255.342 268.37 265.845C273.046 276.347 285.354 281.069 295.861 276.391Z" fill="white"/>
<path fill-rule="evenodd" clip-rule="evenodd" d="M344.006 384.527C351.217 381.317 354.461 372.871 351.252 365.663C348.043 358.455 339.596 355.215 332.385 358.425C325.175 361.636 321.931 370.081 325.14 377.289C328.349 384.497 336.796 387.737 344.006 384.527ZM346.663 390.493C357.17 385.815 361.897 373.509 357.22 363.006C352.544 352.503 340.236 347.781 329.729 352.459C319.222 357.137 314.495 369.443 319.171 379.946C323.848 390.449 336.156 395.171 346.663 390.493Z" fill="white"/>
<path fill-rule="evenodd" clip-rule="evenodd" d="M466.516 147.689C473.727 144.479 476.97 136.033 473.761 128.825C470.552 121.617 462.105 118.377 454.895 121.587C447.684 124.798 444.44 133.243 447.649 140.451C450.859 147.659 459.305 150.899 466.516 147.689ZM469.172 153.655C479.679 148.977 484.406 136.671 479.73 126.168C475.054 115.665 462.745 110.943 452.239 115.621C441.732 120.299 437.005 132.606 441.681 143.108C446.357 153.611 458.665 158.333 469.172 153.655Z" fill="white"/>
<path fill-rule="evenodd" clip-rule="evenodd" d="M517.317 261.791C524.528 258.58 527.772 250.135 524.563 242.927C521.354 235.719 512.907 232.479 505.696 235.689C498.486 238.899 495.242 247.345 498.451 254.553C501.66 261.76 510.107 265.001 517.317 261.791ZM519.974 267.757C530.481 263.079 535.207 250.772 530.531 240.27C525.855 229.767 513.547 225.045 503.04 229.723C492.533 234.401 487.806 246.707 492.482 257.21C497.158 267.713 509.467 272.435 519.974 267.757Z" fill="white"/>
<path fill-rule="evenodd" clip-rule="evenodd" d="M500.384 223.757C507.594 220.546 510.838 212.101 507.629 204.893C504.42 197.685 495.973 194.445 488.762 197.655C481.552 200.865 478.308 209.311 481.517 216.519C484.726 223.727 493.173 226.967 500.384 223.757ZM503.04 229.723C513.547 225.045 518.274 212.738 513.597 202.236C508.921 191.733 496.613 187.011 486.106 191.689C475.599 196.367 470.872 208.673 475.549 219.176C480.225 229.679 492.533 234.401 503.04 229.723Z" fill="white"/>
<path fill-rule="evenodd" clip-rule="evenodd" d="M551.185 337.858C558.396 334.648 561.639 326.202 558.43 318.995C555.221 311.787 546.774 308.546 539.564 311.757C532.353 314.967 529.109 323.413 532.318 330.621C535.527 337.828 543.974 341.069 551.185 337.858ZM553.841 343.825C564.348 339.147 569.075 326.84 564.399 316.337C559.723 305.835 547.414 301.113 536.907 305.791C526.401 310.469 521.674 322.775 526.35 333.278C531.026 343.781 543.334 348.503 553.841 343.825Z" fill="white"/>
<path fill-rule="evenodd" clip-rule="evenodd" d="M445.401 202.663C452.612 199.453 455.855 191.007 452.646 183.8C449.437 176.592 440.99 173.351 433.78 176.562C426.569 179.772 423.325 188.218 426.534 195.425C429.743 202.633 438.19 205.874 445.401 202.663ZM448.057 208.629C458.564 203.951 463.291 191.645 458.615 181.142C453.939 170.639 441.63 165.918 431.123 170.595C420.616 175.273 415.89 187.58 420.566 198.083C425.242 208.585 437.55 213.307 448.057 208.629Z" fill="white"/>
<path fill-rule="evenodd" clip-rule="evenodd" d="M496.202 316.765C503.413 313.555 506.657 305.109 503.448 297.901C500.239 290.693 491.792 287.453 484.581 290.663C477.37 293.874 474.127 302.319 477.336 309.527C480.545 316.735 488.992 319.975 496.202 316.765ZM498.859 322.731C509.365 318.053 514.092 305.747 509.416 295.244C504.74 284.741 492.432 280.019 481.925 284.697C471.418 289.375 466.691 301.682 471.367 312.184C476.043 322.687 488.352 327.409 498.859 322.731Z" fill="white"/>
</g>
</svg>
