<svg width="1440" height="128" viewBox="0 0 1440 128" fill="none" xmlns="http://www.w3.org/2000/svg">
<mask id="mask0" mask-type="alpha" maskUnits="userSpaceOnUse" x="0" y="0" width="1440" height="128">
<rect width="1440" height="128" fill="#007332"/>
</mask>
<g mask="url(#mask0)">
<path fill-rule="evenodd" clip-rule="evenodd" d="M1230.07 154.45C1236.38 151.641 1239.22 144.249 1236.41 137.94C1233.6 131.631 1226.21 128.793 1219.9 131.602C1213.59 134.411 1210.75 141.803 1213.56 148.112C1216.37 154.421 1223.76 157.259 1230.07 154.45ZM1237.34 170.77C1252.66 163.948 1259.55 145.996 1252.73 130.674C1245.91 115.352 1227.96 108.461 1212.64 115.283C1197.31 122.104 1190.42 140.056 1197.24 155.378C1204.07 170.701 1222.02 177.592 1237.34 170.77Z" fill="#FFDC32"/>
<path fill-rule="evenodd" clip-rule="evenodd" d="M1452.02 55.6325C1458.33 52.8235 1461.17 45.4317 1458.36 39.1225C1455.55 32.8133 1448.16 29.9759 1441.85 32.7849C1435.54 35.5939 1432.7 42.9857 1435.51 49.2949C1438.32 55.6041 1445.71 58.4415 1452.02 55.6325ZM1459.29 71.9522C1474.61 65.1303 1481.5 47.1788 1474.68 31.8565C1467.86 16.5342 1449.9 9.64324 1434.58 16.4652C1419.26 23.2871 1412.37 41.2386 1419.19 56.5609C1426.01 71.8832 1443.96 78.7741 1459.29 71.9522Z" fill="#FFDC32"/>
<path fill-rule="evenodd" clip-rule="evenodd" d="M1421.24 135.824C1427.55 133.015 1430.39 125.623 1427.58 119.314C1424.77 113.005 1417.38 110.167 1411.07 112.976C1404.76 115.785 1401.92 123.177 1404.73 129.486C1407.54 135.795 1414.93 138.633 1421.24 135.824ZM1428.5 152.144C1443.83 145.322 1450.72 127.37 1443.9 112.048C1437.07 96.7256 1419.12 89.8346 1403.8 96.6566C1388.48 103.479 1381.59 121.43 1388.41 136.752C1395.23 152.075 1413.18 158.966 1428.5 152.144Z" fill="#FFDC32"/>
<path fill-rule="evenodd" clip-rule="evenodd" d="M1341.05 105.042C1347.36 102.233 1350.19 94.8409 1347.38 88.5317C1344.58 82.2225 1337.18 79.385 1330.87 82.1941C1324.57 85.0031 1321.73 92.3949 1324.54 98.7041C1327.35 105.013 1334.74 107.851 1341.05 105.042ZM1348.31 121.361C1363.64 114.539 1370.53 96.588 1363.7 81.2657C1356.88 65.9433 1338.93 59.0524 1323.61 65.8744C1308.29 72.6963 1301.4 90.6478 1308.22 105.97C1315.04 121.292 1332.99 128.183 1348.31 121.361Z" fill="#FFDC32"/>
<path fill-rule="evenodd" clip-rule="evenodd" d="M1178.25 186.65C1188.53 182.071 1193.26 169.851 1188.54 159.254C1183.82 148.658 1171.58 143.991 1161.29 148.57C1151.01 153.149 1146.29 165.37 1151 175.966C1155.72 186.562 1167.96 191.229 1178.25 186.65ZM1182.12 195.354C1197.3 188.599 1204.07 170.701 1197.24 155.379C1190.42 140.057 1172.59 133.111 1157.42 139.867C1142.25 146.622 1135.48 164.519 1142.3 179.841C1149.12 195.163 1166.95 202.109 1182.12 195.354Z" fill="#FFDC32"/>
<path fill-rule="evenodd" clip-rule="evenodd" d="M1288.95 137.362C1299.47 132.68 1304.2 120.36 1299.51 109.845C1294.83 99.3296 1282.51 94.6006 1272 99.2823C1261.48 103.964 1256.75 116.284 1261.43 126.799C1266.12 137.314 1278.44 142.043 1288.95 137.362ZM1292.83 146.065C1308.15 139.244 1315.04 121.292 1308.22 105.97C1301.4 90.6474 1283.44 83.7565 1268.12 90.5785C1252.8 97.4004 1245.91 115.352 1252.73 130.674C1259.55 145.996 1277.5 152.887 1292.83 146.065Z" fill="#FFDC32"/>
<path fill-rule="evenodd" clip-rule="evenodd" d="M1480.12 118.736C1490.63 114.054 1495.36 101.734 1490.68 91.219C1486 80.7037 1473.68 75.9746 1463.16 80.6563C1452.65 85.338 1447.92 97.6577 1452.6 108.173C1457.28 118.688 1469.6 123.417 1480.12 118.736ZM1483.99 127.44C1499.31 120.618 1506.21 102.666 1499.38 87.3438C1492.56 72.0215 1474.61 65.1305 1459.29 71.9525C1443.97 78.7744 1437.07 96.7259 1443.9 112.048C1450.72 127.371 1468.67 134.261 1483.99 127.44Z" fill="#FFDC32"/>
<path fill-rule="evenodd" clip-rule="evenodd" d="M1399.93 87.9525C1410.44 83.2707 1415.17 70.9511 1410.49 60.4358C1405.81 49.9205 1393.49 45.1914 1382.97 49.8731C1372.46 54.5548 1367.73 66.8745 1372.41 77.3898C1377.09 87.9051 1389.41 92.6342 1399.93 87.9525ZM1403.8 96.6563C1419.12 89.8344 1426.01 71.8829 1419.19 56.5606C1412.37 41.2383 1394.42 34.3473 1379.1 41.1693C1363.77 47.9912 1356.88 65.9427 1363.7 81.265C1370.53 96.5873 1388.48 103.478 1403.8 96.6563Z" fill="#FFDC32"/>
<path fill-rule="evenodd" clip-rule="evenodd" d="M1369.14 168.144C1379.66 163.462 1384.39 151.143 1379.7 140.627C1375.02 130.112 1362.7 125.383 1352.19 130.065C1341.67 134.746 1336.94 147.066 1341.63 157.581C1346.31 168.097 1358.63 172.826 1369.14 168.144ZM1373.02 176.848C1388.34 170.026 1395.23 152.074 1388.41 136.752C1381.59 121.43 1363.64 114.539 1348.31 121.361C1332.99 128.183 1326.1 146.134 1332.92 161.456C1339.74 176.779 1357.69 183.67 1373.02 176.848Z" fill="#FFDC32"/>
</g>
</svg>
